<svg xmlns="http://www.w3.org/2000/svg" width="31.419" height="27.928" viewBox="0 0 31.419 27.928">
  <path id="brain_icon" data-name="brain icon" d="M11.346,0A3.481,3.481,0,0,0,7.975,2.629c-.044,0-.076-.011-.12-.011A3.494,3.494,0,0,0,4.364,6.109a3.217,3.217,0,0,0,.093.764A4.326,4.326,0,0,0,2.2,12.813a4.348,4.348,0,0,0,.5,7.8,4,4,0,0,0-.076.769A3.925,3.925,0,0,0,6.546,25.31a3.7,3.7,0,0,0,.655-.065A3.918,3.918,0,0,0,14.837,24V3.491A3.494,3.494,0,0,0,11.346,0ZM31.419,16.582a4.341,4.341,0,0,0-2.2-3.769,4.293,4.293,0,0,0,.453-1.9,4.364,4.364,0,0,0-2.711-4.036,3.459,3.459,0,0,0-3.4-4.255c-.044,0-.082.011-.12.011a3.484,3.484,0,0,0-6.862.862V24a3.918,3.918,0,0,0,7.637,1.244,3.7,3.7,0,0,0,.655.065A3.925,3.925,0,0,0,28.8,21.382a4,4,0,0,0-.076-.769A4.364,4.364,0,0,0,31.419,16.582Z" fill="#fff"/>
</svg>
