<svg xmlns="http://www.w3.org/2000/svg" width="23.996" height="31.848" viewBox="0 0 23.996 31.848">
  <path id="dental_icon" data-name="dental icon" d="M17.038,18.408c2.384,0,3.49,1.808,3.722,4.378a17.653,17.653,0,0,1-.081,2.548c-.268,3.447-.575,7.683,1.719,7.683,1.943,0,2.938-3.724,3.515-7.97.555-4.2-.034-6.294.257-8.161.552-3.536,3.638-6.706,2.685-11.215A5.2,5.2,0,0,0,25.584,1.5c-3.142-1.143-5.172,1.06-8.547,1.06s-5.4-2.2-8.546-1.06A5.207,5.207,0,0,0,5.22,5.671C4.269,10.18,7.354,13.35,7.908,16.886c.288,1.866-.3,3.958.257,8.161.575,4.246,1.573,7.97,3.514,7.97,2.293,0,1.987-4.236,1.72-7.683a17.779,17.779,0,0,1-.081-2.549C13.549,20.217,14.67,18.408,17.038,18.408Z" transform="translate(-5.039 -1.17)" fill="#fff"/>
</svg>
