<svg id="_921130" data-name="921130" xmlns="http://www.w3.org/2000/svg" width="105.545" height="136.329" viewBox="0 0 105.545 136.329">
  <path id="Path_2544" data-name="Path 2544" d="M153.882,348.562l-23.175-6.816H90.452l-23.175,6.816a13.193,13.193,0,0,0-9.47,12.657v19.263a6.6,6.6,0,0,0,6.6,6.6h92.352a6.6,6.6,0,0,0,6.6-6.6V361.219A13.193,13.193,0,0,0,153.882,348.562Z" transform="translate(-57.807 -250.75)" fill="#30abf5"/>
  <path id="Path_2545" data-name="Path 2545" d="M224.58,390.816H202.592l-4.4-43.977h30.784Z" transform="translate(-160.813 -254.487)" fill="#a5cdff"/>
  <path id="Path_2546" data-name="Path 2546" d="M198.194,346.839l.658,6.582a19.724,19.724,0,0,0,29.468,0l.658-6.582Z" transform="translate(-160.813 -254.487)" fill="#8cb4eb"/>
  <path id="Path_2547" data-name="Path 2547" d="M213.585,295.042h0a15.392,15.392,0,0,1-15.392-15.392V264.258h30.784V279.65A15.392,15.392,0,0,1,213.585,295.042Z" transform="translate(-160.813 -193.895)" fill="#f7d291"/>
  <path id="Path_2548" data-name="Path 2548" d="M198.194,273.561a32.4,32.4,0,0,0,30.784,0v-9.3H198.194Z" transform="translate(-160.813 -193.895)" fill="#f0c382"/>
  <path id="Path_2549" data-name="Path 2549" d="M188.737,96.311h-1.1V74.323h-57.17V96.312h-1.1a5.5,5.5,0,1,0,0,10.994h1.21a28.557,28.557,0,0,0,56.948,0h1.21a5.5,5.5,0,0,0,0-10.994Z" transform="translate(-106.28 -54.533)" fill="#ffe1a0"/>
  <g id="Group_532" data-name="Group 532" transform="translate(37.381 41.969)">
    <path id="Path_2550" data-name="Path 2550" d="M200.393,164.218a2.2,2.2,0,0,1-2.2-2.2v-2.2a2.2,2.2,0,1,1,4.4,0v2.2A2.2,2.2,0,0,1,200.393,164.218Z" transform="translate(-198.194 -157.621)" fill="#6e5a64"/>
    <path id="Path_2551" data-name="Path 2551" d="M299.489,164.218a2.2,2.2,0,0,1-2.2-2.2v-2.2a2.2,2.2,0,1,1,4.4,0v2.2A2.2,2.2,0,0,1,299.489,164.218Z" transform="translate(-270.904 -157.621)" fill="#6e5a64"/>
  </g>
  <g id="Group_533" data-name="Group 533" transform="translate(35.182 35.182)">
    <path id="Path_2552" data-name="Path 2552" d="M196.533,136.527h-4.4a2.2,2.2,0,0,1,0-4.4h4.4a2.2,2.2,0,0,1,0,4.4Z" transform="translate(-189.936 -132.129)" fill="#a06e50"/>
    <path id="Path_2553" data-name="Path 2553" d="M295.629,136.527h-4.4a2.2,2.2,0,0,1,0-4.4h4.4a2.2,2.2,0,0,1,0,4.4Z" transform="translate(-262.646 -132.129)" fill="#a06e50"/>
  </g>
  <path id="Path_2554" data-name="Path 2554" d="M130.468,74.323V96.312h-.906a5.624,5.624,0,0,0-5.49,4,5.515,5.515,0,0,0,5.3,6.99h1.21a28.383,28.383,0,0,0,32.886,26.016,28.567,28.567,0,0,1-24.2-28.215V91.745a8.9,8.9,0,0,1,9.5-8.94c1.44.119,2.952.182,4.541.182a84.5,84.5,0,0,0,21.161-3.025,14.766,14.766,0,0,0,8.2-5.639Z" transform="translate(-106.28 -54.533)" fill="#f7d291"/>
  <path id="Path_2555" data-name="Path 2555" d="M147.245,41.248l.275,8.8s-6.6,6.6-6.6,15.392v2.714a4.4,4.4,0,0,1-3.852,4.364l-4.943.618V54.441C132.128,47.155,139,40.882,147.245,41.248Z" transform="translate(-112.339 -30.254)" fill="#a06e50"/>
  <path id="Path_2556" data-name="Path 2556" d="M282.344,333.554l-4.355-4.355,4.661-6.215a2.692,2.692,0,0,0-.95-4.024l-10.308-5.154L256,366.579h13.193l13.975-27.949A4.4,4.4,0,0,0,282.344,333.554Z" transform="translate(-203.228 -230.25)" fill="#fefefe"/>
  <path id="Path_2557" data-name="Path 2557" d="M376.548,443.175h-3.3v-3.3a2.2,2.2,0,0,0-4.4,0v3.3h-3.3a2.2,2.2,0,0,0,0,4.4h3.3v3.3a2.2,2.2,0,0,0,4.4,0v-3.3h3.3a2.2,2.2,0,1,0,0-4.4Z" transform="translate(-281.997 -321.138)" fill="#a5cdff"/>
  <path id="Path_2558" data-name="Path 2558" d="M322.339,16.474l-.275,15.392s6.6,6.6,6.6,15.392v2.714a4.4,4.4,0,0,0,3.852,4.364l4.943.618V29.667C337.456,22.381,330.585,16.108,322.339,16.474Z" transform="translate(-251.701 -12.076)" fill="#cd916e"/>
  <path id="Path_2559" data-name="Path 2559" d="M231.763,221.306a11.767,11.767,0,0,1-8.141-2.832,2.2,2.2,0,0,1,3.088-3.131,8.937,8.937,0,0,0,10.105,0,2.2,2.2,0,0,1,3.088,3.131A11.765,11.765,0,0,1,231.763,221.306Z" transform="translate(-178.99 -157.539)" fill="#e3aa75"/>
  <path id="Path_2560" data-name="Path 2560" d="M153.513,333.554l4.355-4.355-4.661-6.215a2.692,2.692,0,0,1,.95-4.024l10.308-5.154,15.392,52.773H166.664L152.689,338.63A4.4,4.4,0,0,1,153.513,333.554Z" transform="translate(-127.085 -230.25)" fill="#fefefe"/>
  <path id="Path_2561" data-name="Path 2561" d="M169.8,0c-18.345,0-21.861,5.577-35.987,10.076a1.539,1.539,0,0,0-.859,2.292c3.065,4.795,14.475,17.293,46.889,8.806a10.272,10.272,0,0,0,7.484-7.9h0c.891-4.458-1.818-8.872-5.891-10.891A27.08,27.08,0,0,0,169.8,0Z" transform="translate(-112.771)" fill="#b67f5f"/>
  <path id="Path_2562" data-name="Path 2562" d="M118.886,475.645H101.295a2.2,2.2,0,0,1-2.2-2.2v-8.8a2.2,2.2,0,0,1,2.2-2.2h17.591a2.2,2.2,0,0,1,2.2,2.2v8.8A2.2,2.2,0,0,1,118.886,475.645Z" transform="translate(-88.102 -339.316)" fill="#a5cdff"/>
  <path id="Path_2563" data-name="Path 2563" d="M134.328,448.672a2.2,2.2,0,0,1-2.2-2.2v-6.6a2.2,2.2,0,0,1,4.4,0v6.6A2.2,2.2,0,0,1,134.328,448.672Z" transform="translate(-112.339 -321.138)" fill="#fff"/>
  <path id="Path_2564" data-name="Path 2564" d="M118.886,489.425H101.295a2.2,2.2,0,0,1-2.2-2.2v4.4a2.2,2.2,0,0,0,2.2,2.2h17.591a2.2,2.2,0,0,0,2.2-2.2v-4.4A2.2,2.2,0,0,1,118.886,489.425Z" transform="translate(-88.102 -357.493)" fill="#8cb4eb"/>
</svg>
