<svg xmlns="http://www.w3.org/2000/svg" xmlns:xlink="http://www.w3.org/1999/xlink" width="229.5" height="367.439" viewBox="0 0 229.5 367.439">
  <defs>
    <linearGradient id="linear-gradient" x1="0.368" y1="0.208" x2="0.69" y2="0.921" gradientUnits="objectBoundingBox">
      <stop offset="0" stop-color="#6c7280"/>
      <stop offset="0.985" stop-color="#7f8687"/>
    </linearGradient>
    <linearGradient id="linear-gradient-2" x1="0.291" y1="0.259" x2="0.843" y2="0.896" xlink:href="#linear-gradient"/>
    <linearGradient id="linear-gradient-3" x1="1.272" y1="0.496" x2="1.394" y2="1.212" xlink:href="#linear-gradient"/>
    <linearGradient id="linear-gradient-4" x1="1.274" y1="0.432" x2="3.201" y2="1.068" xlink:href="#linear-gradient"/>
    <linearGradient id="linear-gradient-5" x1="0.417" y1="0.526" x2="0.2" y2="0.242" gradientUnits="objectBoundingBox">
      <stop offset="0" stop-color="#d1ffff"/>
      <stop offset="1" stop-color="#baf6f8"/>
    </linearGradient>
    <linearGradient id="linear-gradient-6" x1="0" y1="0.5" x2="1" y2="0.5" xlink:href="#linear-gradient-5"/>
    <linearGradient id="linear-gradient-8" x1="0" y1="0.5" x2="1" y2="0.5" xlink:href="#linear-gradient-5"/>
    <linearGradient id="linear-gradient-10" x1="0.809" y1="0.439" x2="0.032" y2="0.618" gradientUnits="objectBoundingBox">
      <stop offset="0" stop-color="#f4bb89"/>
      <stop offset="1" stop-color="#f49168"/>
    </linearGradient>
    <linearGradient id="linear-gradient-11" x1="-1.274" y1="0.5" x2="4.197" y2="0.5" xlink:href="#linear-gradient-5"/>
    <linearGradient id="linear-gradient-12" x1="1.255" y1="-0.001" x2="0.164" y2="1.019" gradientUnits="objectBoundingBox">
      <stop offset="0" stop-color="#f4aa8a"/>
      <stop offset="0.343" stop-color="#f48c6f"/>
      <stop offset="0.995" stop-color="#f45941"/>
    </linearGradient>
    <linearGradient id="linear-gradient-13" x1="0.954" y1="0.233" x2="0.377" y2="0.738" gradientUnits="objectBoundingBox">
      <stop offset="0" stop-color="#a04a24"/>
      <stop offset="1" stop-color="#b03f22"/>
    </linearGradient>
    <linearGradient id="linear-gradient-15" x1="0.632" y1="0.078" x2="0.234" y2="0.909" gradientUnits="objectBoundingBox">
      <stop offset="0" stop-color="#baf6f8"/>
      <stop offset="0.985" stop-color="#aae8ef"/>
    </linearGradient>
    <linearGradient id="linear-gradient-17" x1="0.66" y1="0.302" x2="0.51" y2="0.807" xlink:href="#linear-gradient-5"/>
    <linearGradient id="linear-gradient-18" x1="0.447" y1="0.433" x2="0.269" y2="0.951" xlink:href="#linear-gradient-5"/>
    <linearGradient id="linear-gradient-19" x1="-13.889" y1="0.5" x2="7.109" y2="0.5" xlink:href="#linear-gradient-5"/>
    <linearGradient id="linear-gradient-20" x1="0.862" y1="0.981" x2="0.566" y2="0.321" xlink:href="#linear-gradient-10"/>
    <linearGradient id="linear-gradient-21" x1="0.264" y1="-3.275" x2="0.494" y2="0.052" gradientUnits="objectBoundingBox">
      <stop offset="0.005" stop-color="#153e42"/>
      <stop offset="0.99" stop-color="#204c50"/>
    </linearGradient>
    <linearGradient id="linear-gradient-22" x1="-0.026" y1="1.775" x2="0.707" y2="0.163" xlink:href="#linear-gradient-10"/>
    <linearGradient id="linear-gradient-23" x1="0.774" y1="0.812" x2="0.163" y2="0.085" gradientUnits="objectBoundingBox">
      <stop offset="0.005" stop-color="#00a9ad"/>
      <stop offset="1" stop-color="#00cbd2"/>
    </linearGradient>
    <linearGradient id="linear-gradient-24" x1="0.334" y1="1.38" x2="0.594" y2="-0.106" xlink:href="#linear-gradient-10"/>
    <linearGradient id="linear-gradient-25" x1="0.307" y1="1.58" x2="0.579" y2="-0.073" xlink:href="#linear-gradient-10"/>
    <linearGradient id="linear-gradient-26" x1="0.035" y1="-0.121" x2="0.433" y2="0.471" xlink:href="#linear-gradient-10"/>
    <linearGradient id="linear-gradient-27" x1="0.43" y1="0.016" x2="0.932" y2="1.035" xlink:href="#linear-gradient-10"/>
    <linearGradient id="linear-gradient-28" x1="0.296" y1="0.909" x2="0.711" y2="0.188" xlink:href="#linear-gradient-10"/>
    <linearGradient id="linear-gradient-29" x1="0.191" y1="0.024" x2="0.545" y2="0.908" xlink:href="#linear-gradient-12"/>
    <linearGradient id="linear-gradient-30" x1="0.262" y1="0.118" x2="0.898" y2="1.004" gradientUnits="objectBoundingBox">
      <stop offset="0" stop-color="#d63800"/>
      <stop offset="1" stop-color="#c62700"/>
    </linearGradient>
    <linearGradient id="linear-gradient-31" x1="0.332" y1="1.002" x2="0.632" y2="0.175" xlink:href="#linear-gradient-10"/>
    <linearGradient id="linear-gradient-32" x1="0.516" y1="0.557" x2="0.478" y2="-0.038" gradientUnits="objectBoundingBox">
      <stop offset="0" stop-color="#7f8687"/>
      <stop offset="0.356" stop-color="#9ea2a3"/>
      <stop offset="0.99" stop-color="#d2d2d2"/>
    </linearGradient>
    <linearGradient id="linear-gradient-33" x1="0.638" y1="0.669" x2="0.952" y2="1.271" xlink:href="#linear-gradient-21"/>
    <linearGradient id="linear-gradient-34" x1="1.149" y1="0.411" x2="-0.064" y2="0.554" xlink:href="#linear-gradient-10"/>
  </defs>
  <g id="Group_719" data-name="Group 719" transform="translate(-89.076 -520.386)">
    <path id="Path_2895" data-name="Path 2895" d="M89.076,914.259c0,3.737,60.466,16.925,114.859,16.134,102.325-1.49,114.641-10.023,114.641-15.556,0-3.63-80.183-9.341-111.411-9.311C187.648,905.546,89.076,906.753,89.076,914.259Z" transform="translate(0 -42.602)" fill="#ddcec4" opacity="0.7"/>
    <g id="Group_688" data-name="Group 688" transform="translate(153.907 721.589)">
      <g id="Group_678" data-name="Group 678" transform="translate(93.36 11.256)">
        <g id="Group_675" data-name="Group 675" transform="translate(0 11.475)">
          <g id="Group_674" data-name="Group 674">
            <path id="Path_2896" data-name="Path 2896" d="M273.239,907.519a1.9,1.9,0,0,1-1.86,1.936h-.037a1.91,1.91,0,0,1-1.9-1.863l-2.5-133.49a1.9,1.9,0,0,1,3.8-.072l.209,11.155Z" transform="translate(-266.942 -772.17)" fill="url(#linear-gradient)"/>
          </g>
          <path id="Path_2897" data-name="Path 2897" d="M268.335,788.493l1.758,75.695v44.794a1.887,1.887,0,0,1-.65-1.389l-2.5-133.49a1.9,1.9,0,0,1,3.8-.072l.209,11.155C269.869,786.51,268.335,788.493,268.335,788.493Z" transform="translate(-266.942 -772.17)" fill="#94959c" opacity="0.4" style="mix-blend-mode: multiply;isolation: isolate"/>
        </g>
        <g id="Group_677" data-name="Group 677" transform="translate(16.866)">
          <g id="Group_676" data-name="Group 676">
            <path id="Path_2898" data-name="Path 2898" d="M299.661,892.987a1.891,1.891,0,0,1-1.249,1.928,1.809,1.809,0,0,1-.5.109,1.3,1.3,0,0,1-.144.005,1.9,1.9,0,0,1-1.889-1.755L285.91,761.311a1.9,1.9,0,1,1,3.785-.288l.728,9.641Z" transform="translate(-285.905 -759.268)" fill="url(#linear-gradient-2)"/>
          </g>
          <path id="Path_2899" data-name="Path 2899" d="M298.412,894.915a1.809,1.809,0,0,1-.5.109,1.3,1.3,0,0,1-.144.005,1.9,1.9,0,0,1-1.889-1.755L285.91,761.311a1.9,1.9,0,1,1,3.785-.288l.728,9.641c-1.1,1.723-2.152,3.358-2.152,3.358Z" transform="translate(-285.905 -759.268)" fill="#94959c" opacity="0.4" style="mix-blend-mode: multiply;isolation: isolate"/>
        </g>
      </g>
      <g id="Group_683" data-name="Group 683" transform="translate(0 10.703)">
        <g id="Group_680" data-name="Group 680" transform="translate(0 9.518)">
          <g id="Group_679" data-name="Group 679">
            <path id="Path_2900" data-name="Path 2900" d="M165.758,904.325a1.9,1.9,0,0,1-2.07,1.71l-.038,0a1.908,1.908,0,0,1-1.671-2.068l12.795-132.9a1.9,1.9,0,0,1,3.779.363l-1.07,11.106Z" transform="translate(-161.97 -769.348)" fill="url(#linear-gradient-3)"/>
          </g>
          <path id="Path_2901" data-name="Path 2901" d="M174.51,785.521l-6.918,75.4-5.127,44.5a1.884,1.884,0,0,1-.486-1.454l12.795-132.9a1.9,1.9,0,0,1,3.779.363l-1.07,11.106C176.261,783.724,174.51,785.521,174.51,785.521Z" transform="translate(-161.97 -769.348)" fill="#94959c" opacity="0.4" style="mix-blend-mode: multiply;isolation: isolate"/>
        </g>
        <g id="Group_682" data-name="Group 682" transform="translate(30.717)">
          <g id="Group_681" data-name="Group 681">
            <path id="Path_2902" data-name="Path 2902" d="M200.448,892.88a1.892,1.892,0,0,1-1.387,1.83,1.807,1.807,0,0,1-.508.072c-.05,0-.1,0-.145-.006a1.9,1.9,0,0,1-1.755-1.889l-.145-132.34a1.9,1.9,0,1,1,3.8-.006l.011,9.668Z" transform="translate(-196.508 -758.646)" fill="url(#linear-gradient-4)"/>
          </g>
          <path id="Path_2903" data-name="Path 2903" d="M199.061,894.711a1.807,1.807,0,0,1-.508.072c-.05,0-.1,0-.145-.006a1.9,1.9,0,0,1-1.755-1.889l-.145-132.34a1.9,1.9,0,1,1,3.8-.006l.011,9.668c-1.221,1.636-2.4,3.189-2.4,3.189Z" transform="translate(-196.508 -758.646)" fill="#94959c" opacity="0.4" style="mix-blend-mode: multiply;isolation: isolate"/>
        </g>
      </g>
      <g id="Group_687" data-name="Group 687" transform="translate(12.582)">
        <g id="Group_684" data-name="Group 684" transform="translate(0 13.693)">
          <path id="Path_2904" data-name="Path 2904" d="M258.794,771.437V782.6l-21.276-2.858-52.947-7.12-8.453-1.136v-9.473l.6.068,67.9,7.745Z" transform="translate(-176.117 -762.009)" fill="#6c7280"/>
          <path id="Path_2905" data-name="Path 2905" d="M244.68,769.83l-7.1,9.917-52.947-7.12-7.949-10,.1-.545Z" transform="translate(-176.18 -762.017)" fill="#6c7280" opacity="0.3" style="mix-blend-mode: multiply;isolation: isolate"/>
        </g>
        <g id="Group_685" data-name="Group 685" transform="translate(82.676 9.614)">
          <path id="Path_2906" data-name="Path 2906" d="M288.388,767.242l-4.372,3.361-14.939,11.485V770.929l10.328-7.5,8.27-6.008Z" transform="translate(-269.076 -757.422)" fill="#94959c"/>
          <path id="Path_2907" data-name="Path 2907" d="M289.673,767.243,285.3,770.6c-1.386-2.153-3.348-5.2-4.611-7.174l8.27-6.008Z" transform="translate(-270.361 -757.422)" fill="#94959c" opacity="0.3" style="mix-blend-mode: screen;isolation: isolate"/>
        </g>
        <g id="Group_686" data-name="Group 686">
          <path id="Path_2908" data-name="Path 2908" d="M277.391,756.226l-18.6,13.508-14.176-1.615h-.008l-68.492-7.813L196.8,746.612l50.807,6.061Z" transform="translate(-176.117 -746.612)" fill="#d6d6d6"/>
          <path id="Path_2909" data-name="Path 2909" d="M247.609,752.674l-2.992,15.445h-.008l-68.492-7.813L196.8,746.612Z" transform="translate(-176.117 -746.612)" fill="#d6d6d6" style="mix-blend-mode: multiply;isolation: isolate"/>
        </g>
      </g>
    </g>
    <g id="Group_689" data-name="Group 689" transform="translate(116.442 714.864)">
      <path id="Path_2910" data-name="Path 2910" d="M219.359,898.9l-1.276.237-1.95.364s-35.3-40.977-43.838-59.9-3.606-33.511-3.606-33.511C157.683,785.948,153.129,754,153.129,754s-3.8,20.489-5.693,30.038c-.675,3.4-1.571,9.507-2.5,16.951,0,.008,0,.019,0,.033s-.007.062-.015.111c-.289,2.327-.581,4.784-.877,7.331-1.388,12.112-2.733,26.228-3.435,37.906-1.33,22.051,0,54.519,0,54.519h-2.278s-18.6-45.665-18.48-65.285A94.878,94.878,0,0,1,126.37,801.4c-7.211-24.309-6.073-53.131-6.525-57.3,6.774,2.309,17.05,4.949,27.366,4.341a78.979,78.979,0,0,0,18.939-3.85,127.881,127.881,0,0,0,14.2-5.543c-.008.832.02,1.878.079,3.115.482,10.446,3.171,34.317,6.361,54.811q.395,2.507.792,4.94c1.4,8.484,2.862,16.105,4.258,21.536C197.156,844.113,219.359,898.9,219.359,898.9Z" transform="translate(-119.845 -739.051)" fill="url(#linear-gradient-5)"/>
      <path id="Path_2911" data-name="Path 2911" d="M140.624,920.636s4.555-3.82,9.869-2.952,8.349,8.161,8.349,8.161S148.216,923.935,140.624,920.636Z" transform="translate(-122.144 -758.796)" fill="#225668"/>
      <path id="Path_2912" data-name="Path 2912" d="M228.109,919s.568-3.825,7.78-3.651,11.955,6.106,11.955,6.106S235.7,921.087,228.109,919Z" transform="translate(-131.821 -758.552)" fill="#225668"/>
      <path id="Path_2913" data-name="Path 2913" d="M130.546,859.22c5.066,23.052,8.122,36.161,9.43,41.671h-1.651s-18.6-45.665-18.48-65.285A94.878,94.878,0,0,1,126.37,801.4c-7.211-24.309-6.073-53.131-6.525-57.3,6.774,2.309,17.05,4.949,27.366,4.341a78.979,78.979,0,0,0,18.939-3.85,127.881,127.881,0,0,0,14.2-5.543c-.008.832.02,1.878.079,3.115-16.775,7.469-30.412,12.816-51.779,10.334,0,0-1.819,40.4,2.787,52.9C131.44,805.4,123.524,827.273,130.546,859.22Z" transform="translate(-119.845 -739.051)" fill="url(#linear-gradient-6)" style="mix-blend-mode: multiply;isolation: isolate"/>
      <path id="Path_2914" data-name="Path 2914" d="M222.223,901l-1.95.364s-35.3-40.977-43.838-59.9-3.606-33.511-3.606-33.511c-11.007-20.141-15.562-52.088-15.562-52.088S168.4,793.6,176.5,805.633c0,0-4.306,11.807,6.831,34.725C193.067,860.4,216.491,893.1,222.223,901Z" transform="translate(-123.985 -740.91)" fill="url(#linear-gradient-6)" style="mix-blend-mode: multiply;isolation: isolate"/>
      <path id="Path_2915" data-name="Path 2915" d="M147.229,808.73c-.3,2.361-.592,4.854-.892,7.442-1.529.583-3.374,1.169-4.194.983a2.045,2.045,0,0,1-1.518-1.97s3.917-.967,5.061-2.082C146.758,812.053,147.179,809.1,147.229,808.73Z" transform="translate(-122.144 -746.758)" fill="url(#linear-gradient-8)" style="mix-blend-mode: multiply;isolation: isolate"/>
      <path id="Path_2916" data-name="Path 2916" d="M195.343,809.121a14.521,14.521,0,0,1-1.31,1.51c-1.34,1.33-4.046,0-4.046,0,2.781-1.157,4.7-5.592,4.564-6.45Q194.946,806.688,195.343,809.121Z" transform="translate(-127.604 -746.255)" fill="url(#linear-gradient-6)" style="mix-blend-mode: multiply;isolation: isolate"/>
    </g>
    <path id="Path_2917" data-name="Path 2917" d="M160.876,563.034c1.295-2.984,2.681-6.347,3.469-8.267.377-.928.615-1.518.635-1.572a6.51,6.51,0,0,1-7.691.16s1.234-1.139,3.322-2.943,0-1.991,0-1.991-1.14,3.037-7.4,5.315-8.066-.286-8.16-1.234c-.023-.245.25-.626.668-1.068-3.735,2.091-7.652,2.1-8.085,1.54-.568-.735,2.311-3.533,2.474-3.692a98.3,98.3,0,0,1-10.43,5.78,15.95,15.95,0,0,0-4.391,6.011c-.03.194-.383.548-.383.548-.509-1.2-1.716-7.307-4.62-6.084-2.55,1.074-3.009,4.712-1.111,8.562.165.338.35.679.553,1.017a17.063,17.063,0,0,0,3.026,3.7s-2.657,2.469.76,8.35a55.094,55.094,0,0,0,4.751,6.734c.756.925,1.554,1.852,2.376,2.748a42.378,42.378,0,0,0,4.52,4.3c2.513,2.023,5.021,3.361,7.14,3.3.269-.008.535-.029.8-.057a11.807,11.807,0,0,0,3.279-.842,29.382,29.382,0,0,0,5.409-3.572c2.033-1.581,3.812-3.112,4.177-3.374,3.542-2.529,6.707-8.981,4.3-14.042a8.313,8.313,0,0,1-.455-1.186,8.484,8.484,0,0,1-.332-1.891,12.908,12.908,0,0,1,1.154-5.685C160.709,563.41,160.794,563.22,160.876,563.034Z" transform="translate(-3.2 -3.101)" fill="url(#linear-gradient-10)"/>
    <path id="Path_2918" data-name="Path 2918" d="M147.341,629.139a85.809,85.809,0,0,0,.887-17.966c-.353-5.076-1-7.675-1.1-9.552-.084-.1-.164-.212-.234-.316a24.7,24.7,0,0,0-2.427-1.828c-.262.028-.527.047-.8.057-2.117.066-4.626-1.277-7.14-3.3a7.673,7.673,0,0,0-6.091,1.828,19.641,19.641,0,0,0,2.223,6.153C135.829,609.655,144.685,627.24,147.341,629.139Z" transform="translate(-4.576 -8.384)" fill="url(#linear-gradient-11)"/>
    <path id="Path_2919" data-name="Path 2919" d="M152.86,548.421a32.33,32.33,0,0,0-3.7,3.014A13.41,13.41,0,0,0,152.86,548.421Z" transform="translate(-6.647 -3.101)" fill="#a04a24"/>
    <path id="Path_2920" data-name="Path 2920" d="M139.736,580.962s7.147,5.691,13.315,4.459c0,0-3.41,6.338-6.989,5.313C141.1,589.311,139.736,580.962,139.736,580.962Z" transform="translate(-5.604 -6.7)" fill="#fff"/>
    <path id="Path_2921" data-name="Path 2921" d="M127.759,567.138c-1.766,2.407,2.5,5.829,4.051,3.436C132.97,568.781,129.417,564.879,127.759,567.138Z" transform="translate(-4.232 -5.096)" fill="#ff4949" opacity="0.5"/>
    <path id="Path_2922" data-name="Path 2922" d="M161.4,574.927c.95,1.371,4.795-1.322,3.7-3.191C163.792,569.522,159.889,572.744,161.4,574.927Z" transform="translate(-7.962 -5.598)" fill="#ff4949" opacity="0.5"/>
    <path id="Path_2923" data-name="Path 2923" d="M154.127,575.234c.4,1.113.623,2.085-.057,2.621-1.329,1.041-5.029-2.279-5.123-5.916a3,3,0,0,1,.014-.409c.254-3.56,4.869-7.891,6.245-10.085-.084.241-2.366,6.782-2.085,10.494A13.91,13.91,0,0,0,154.127,575.234Z" transform="translate(-6.622 -4.542)" fill="url(#linear-gradient-12)"/>
    <g id="Group_690" data-name="Group 690" transform="translate(97.275 520.386)">
      <path id="Path_2924" data-name="Path 2924" d="M167.144,577.342a3.9,3.9,0,0,1-.216.341,13.882,13.882,0,0,1-.888,1.192c-.236.29-.493.585-.779.888-.124.133-.253.267-.386.4-.1.09-.189.179-.289.265-.145.128-.292.255-.44.373-.1.078-.2.158-.3.234a.736.736,0,0,1-.076.057c-.068.053-.135.1-.209.154-.113.077-.227.158-.341.234s-.217.145-.33.212c-.005.006-.005.009-.009.009h0c-.147.091-.3.181-.455.27-.141.084-.284.163-.428.239l-.315.164c-.092.045-.187.1-.278.136-.524.254-1.063.486-1.605.691-.115.045-.228.086-.342.129a33.818,33.818,0,0,1-6.578,1.571l-.683.1-.6.076c.76-.65,1.481-1.258,2.186-1.762a9,9,0,0,0,.991-.82c.084-.075.163-.156.244-.236a1.629,1.629,0,0,0,.117-.118c.079-.082.16-.17.243-.256a14.082,14.082,0,0,0,2.661-4.313c.084-.212.163-.429.235-.645a11.7,11.7,0,0,0,.406-1.483c.02-.1.042-.2.056-.294a10.776,10.776,0,0,0,.184-2.376c0-.093-.008-.191-.016-.291,0-.081-.011-.16-.018-.239-.02-.194-.042-.387-.073-.581-.011-.079-.026-.164-.042-.242a8.077,8.077,0,0,0-.235-.987c-.02-.054-.035-.111-.053-.164a.353.353,0,0,1-.02-.059c-.064-.189-.133-.378-.212-.563a.18.18,0,0,0-.02-.042c-.045-.11-.094-.225-.147-.334-1.405-2.961-.776-6.01.367-8.761.052-.122.1-.233.151-.359l.1-.208c1.919-4.424,4.039-9.675,4.1-9.839a6.344,6.344,0,0,1-4.282,1.348l-.25-.024c-.107-.011-.214-.022-.317-.037l-.294-.052c-.069-.018-.142-.032-.211-.051a6.779,6.779,0,0,1-.653-.186c-.072-.023-.141-.046-.2-.072a7.1,7.1,0,0,1-.854-.384c-.045-.022-.092-.048-.133-.072a4.942,4.942,0,0,1-.43-.264c-.029-.02-.052-.036-.06-.042l0,0s1.234-1.139,3.322-2.943,0-1.991,0-1.991a5.336,5.336,0,0,1-1.151,1.6,16.173,16.173,0,0,1-6.251,3.717c-.229.083-.453.158-.669.229s-.428.134-.633.195c-.1.025-.2.057-.3.083-.3.08-.588.149-.861.2a9.481,9.481,0,0,1-2.415.192c-.072,0-.148-.011-.217-.017-.14-.013-.277-.032-.41-.055-.064-.011-.128-.021-.193-.036s-.123-.027-.179-.041c-.031-.01-.061-.016-.092-.024a1.46,1.46,0,0,1-.181-.054c-.061-.018-.117-.038-.174-.056s-.11-.041-.163-.065-.106-.045-.157-.068a1.594,1.594,0,0,1-.147-.072,2.777,2.777,0,0,1-.419-.259,1.183,1.183,0,0,1-.158-.124,1.583,1.583,0,0,1-.174-.156,1.685,1.685,0,0,1-.141-.151,1.444,1.444,0,0,1-.11-.133,2.072,2.072,0,0,1-.267-.459,1.03,1.03,0,0,1-.044-.131.772.772,0,0,1-.035-.12c-.008-.042-.016-.08-.019-.113-.023-.245.25-.626.668-1.068a13.858,13.858,0,0,0,3.032-2.288v0c.231-.23.448-.465.664-.72-.079.052-.159.109-.235.166-.065.042-.129.089-.189.137-.1.072-.205.152-.3.225-.259.192-.567.423-.892.679a.074.074,0,0,1-.031.016,22.313,22.313,0,0,0-2.045,1.79,14.158,14.158,0,0,1-6.7,1.853h0a1.04,1.04,0,0,1-.106,0,3.805,3.805,0,0,1-.819-.091.828.828,0,0,1-.456-.218c-.348-.454.615-1.7,1.442-2.617.115-.126.221-.247.326-.353.19-.2.361-.379.486-.506l.068-.066c.065-.067.111-.109.133-.134-.177.109-.355.223-.535.337-.329.206-.652.4-.975.6-.269.165-.535.327-.8.483-.566.338-1.121.661-1.652.963-.224.125-.441.252-.657.374-.971.545-1.863,1.023-2.641,1.431-.238.13-.471.25-.687.36-.653.333-1.2.607-1.609.808l-.286.134c-.144.069-.256.126-.347.169-.036.015-.061.029-.087.041l-.138.065a15.95,15.95,0,0,0-4.391,6.011c-.107.239-.212.483-.316.726-.185-.44-.473-1.555-.9-2.737-.106-.285-.216-.573-.341-.858-.055-.13-.112-.256-.171-.383-.75-1.6-1.8-2.9-3.274-2.284-2.622,1.1-3.035,4.91-.955,8.878.064.125.133.254.209.383.092.158.185.322.283.485a17.117,17.117,0,0,0,2.931,3.537s-2.657,2.469.76,8.35a55.094,55.094,0,0,0,4.751,6.734c.756.925,1.554,1.852,2.376,2.748v0a20.451,20.451,0,0,1-2.189.258,25.436,25.436,0,0,1-3.444,0c-.118-.007-.236-.015-.35-.026-.884-.068-1.775-.174-2.665-.319l-.33-.058c-.976-.165-1.95-.374-2.911-.621-.149-.038-.288-.074-.431-.115a.3.3,0,0,1-.06-.016c-.322-.087-.64-.178-.962-.271s-.661-.2-.992-.31c-.307-.1-.615-.2-.918-.31-.41-.14-.816-.292-1.213-.448-.233-.085-.457-.178-.682-.268l-.158-.065c-.2-.081-.387-.165-.577-.248a.642.642,0,0,1-.132-.056c-.117-.049-.236-.1-.353-.156a.042.042,0,0,1-.028-.012c-.2-.086-.4-.177-.591-.274-.7-.325-1.379-.666-2.023-1.019-.181-.1-.359-.2-.534-.3-.564-.318-1.1-.647-1.6-.982-.17-.109-.334-.221-.494-.334-.329-.224-.644-.452-.941-.683-.148-.115-.288-.225-.429-.338s-.266-.218-.391-.326c-.1-.092-.207-.179-.307-.27a1.938,1.938,0,0,1-.148-.137c-.094-.087-.19-.174-.277-.261-.232-.221-.442-.445-.638-.665-.107-.121-.21-.238-.309-.356-.069-.08-.137-.159-.2-.239l-.223-.281c-.239-.3-.463-.6-.664-.9-.056-.084-.114-.165-.167-.248-.079-.12-.155-.239-.228-.361s-.144-.234-.209-.356c-.1-.163-.186-.326-.266-.494-.044-.083-.088-.167-.125-.253-.108-.217-.205-.433-.289-.654-.056-.144-.109-.284-.16-.429-.034-.087-.06-.178-.09-.265-.038-.107-.068-.217-.1-.323-.019-.068-.037-.133-.053-.2a3.985,3.985,0,0,1-.1-.428c-.035-.153-.061-.309-.087-.459a.938.938,0,0,1-.016-.107c-.02-.125-.035-.252-.05-.376,0-.034-.006-.069-.011-.1-.012-.133-.022-.261-.031-.395,0-.02,0-.043,0-.065,0-.052,0-.106-.008-.164,0-.129-.008-.262-.008-.394a12.208,12.208,0,0,1,.2-2.191c.023-.127.047-.261.077-.39.033-.174.075-.349.117-.527.035-.151.072-.3.118-.454.03-.126.063-.252.106-.377s.068-.235.111-.356c.042-.146.087-.29.136-.434.052-.159.106-.318.166-.479q.073-.215.164-.436c.052-.149.111-.3.174-.447.072-.19.151-.379.235-.574s.157-.368.239-.554c.058-.128.118-.262.18-.395.094-.213.2-.42.3-.637s.208-.434.318-.654c.069-.137.138-.277.21-.417s.148-.291.228-.437c.087-.165.175-.337.261-.5a215.162,215.162,0,0,1,13.208-21.973l0,0c.326-.486.657-.967.991-1.453q.934-1.355,1.883-2.7c7.127-10.123,14.678-10.556,19.22-10.217a36.172,36.172,0,0,1,7.425,1.236c.368.107.725.221,1.073.341a20.635,20.635,0,0,1,5.029,2.521c.176.122.35.246.524.371a27.454,27.454,0,0,1,2.707,2.282c.14.133.28.267.422.406,1.02,1,2.026,2.108,3.1,3.34v.012c.125.145.249.288.372.437.49.567.984,1.154,1.5,1.77a19.843,19.843,0,0,1,2.453,3.708v0c.079.155.154.307.232.462.212.448.4.88.575,1.33v.015c.137.356.266.712.38,1.073,0,0,0,0,0,.007s0,0,0,.008A23.026,23.026,0,0,1,163.8,546.3v0c.009.266.012.535.012.8s0,.5-.012.748c0,.178-.007.353-.015.526-.022.627-.064,1.239-.117,1.835-.02.2-.037.394-.057.588-.037.39-.083.775-.129,1.146-.022.185-.044.372-.071.553-.046.364-.1.722-.149,1.063s-.1.684-.148,1.006c-.016.107-.031.209-.045.311-.035.217-.066.426-.091.626-.024.152-.047.3-.066.444a14.179,14.179,0,0,0-.13,1.632v0A16.069,16.069,0,0,0,163,560.54v0c.049.305.108.6.171.889v0a28.163,28.163,0,0,0,3.04,7.607C167.483,571.346,169.486,573.521,167.144,577.342Z" transform="translate(-98.294 -520.386)" fill="url(#linear-gradient-13)"/>
      <path id="Path_2925" data-name="Path 2925" d="M126.081,585.4c.756.925,1.554,1.852,2.376,2.748v0a20.452,20.452,0,0,1-2.189.258c-9.315.646-20.539-4.319-24.58-8.889-4.365-4.934-4.494-9.424-.539-17.174.075-.144.148-.291.228-.437a15.044,15.044,0,0,0,5.339,10.085c4.27,3.865,10.059-1.677,10.059-1.677a12.151,12.151,0,0,1,.864-3.537,17.117,17.117,0,0,0,2.931,3.537s-2.657,2.469.76,8.35A55.094,55.094,0,0,0,126.081,585.4Z" transform="translate(-98.294 -524.979)" fill="#a04a24" opacity="0.4" style="mix-blend-mode: multiply;isolation: isolate"/>
      <path id="Path_2926" data-name="Path 2926" d="M140.861,549.283a98.306,98.306,0,0,1-10.43,5.78,15.949,15.949,0,0,0-4.391,6.011c-.107.239-.212.483-.316.726-.185-.44-.473-1.555-.9-2.737,5.931-6.151,15.162-10.256,17.428-10.642l-2.422,1.936C140.342,549.786,140.8,549.342,140.861,549.283Z" transform="translate(-101.229 -523.487)" fill="#a04a24" opacity="0.4" style="mix-blend-mode: multiply;isolation: isolate"/>
      <path id="Path_2927" data-name="Path 2927" d="M162.074,549.879a16.173,16.173,0,0,1-6.251,3.717c-6.263,2.277-8.066-.286-8.16-1.234-.023-.245.25-.626.668-1.068a14.158,14.158,0,0,1-6.7,1.853c2.825-1.416,7.27-4.247,9.637-5.341,3.7-1.707.76.475.76.475-.079.052-.159.109-.235.166-.065.042-.129.089-.189.137-.1.072-.205.152-.3.225a8.95,8.95,0,0,0-1.777,1.739c-1.085,1.491-.679,2.729,2.505,2.858C155.538,553.546,159.993,551.138,162.074,549.879Z" transform="translate(-103.088 -523.347)" fill="#a04a24" opacity="0.4" style="mix-blend-mode: multiply;isolation: isolate"/>
      <path id="Path_2928" data-name="Path 2928" d="M172.669,582.1c-.236.29-.493.585-.779.888-3.673,3.946-10.732,4.931-13.667,5.3.76-.65,1.481-1.258,2.186-1.762,3.542-2.529,6.707-8.981,4.3-14.043-1.405-2.961-.776-6.01.367-8.761.052-.122.1-.233.151-.359l.1-.208c1.919-4.424,4.039-9.675,4.1-9.839a6.5,6.5,0,0,1-7.686.165c.17.044,4.322,1.169,7.018-1.663a10.876,10.876,0,0,0,1.665-2.293,55.439,55.439,0,0,1-.888,9.644,14.177,14.177,0,0,0-.13,1.632v0c-2.082,4.58-3.017,8.176.023,14.969C170.574,578.326,171.864,580.38,172.669,582.1Z" transform="translate(-104.923 -523.61)" fill="#a04a24" opacity="0.4" style="mix-blend-mode: multiply;isolation: isolate"/>
    </g>
    <path id="Path_2929" data-name="Path 2929" d="M139.262,663.663c-1.123,3.126-3.148,10.917-2.9,14.691s-4.49-18.381-4.49-18.381Z" transform="translate(-4.734 -15.44)" opacity="0.5" fill="url(#linear-gradient-6)" style="mix-blend-mode: multiply;isolation: isolate"/>
    <g id="Group_691" data-name="Group 691" transform="translate(98.258 521.696)" opacity="0.5" style="mix-blend-mode: multiply;isolation: isolate">
      <path id="Path_2930" data-name="Path 2930" d="M167.4,539.4a14.377,14.377,0,0,1-1.974,3.686,23.8,23.8,0,0,1-5.094,5.241,27.188,27.188,0,0,1-10.854,4.543,2.978,2.978,0,0,1-.372-.311,26.045,26.045,0,0,0,10.971-4.512c2.89-2.188,6.009-5.436,7.091-9.109C167.247,539.094,167.321,539.246,167.4,539.4Z" transform="translate(-104.898 -523.748)" fill="#8a3a1e"/>
      <path id="Path_2931" data-name="Path 2931" d="M162.277,532.722a14.039,14.039,0,0,1-1.291,5.622,16.736,16.736,0,0,1-4.916,5.954,31.507,31.507,0,0,1-4.824,3.059v0c-.256.137-.515.265-.777.4-.061.029-.118.055-.179.086a.074.074,0,0,1-.031.016,89.3,89.3,0,0,1-8.413,3.472c-.149.058-.294.114-.441.167a3.805,3.805,0,0,1-.819-.091c1.18-.445,2.378-.885,3.571-1.341a58.33,58.33,0,0,0,7.979-3.6,29.07,29.07,0,0,0,3.157-2.049,16.913,16.913,0,0,0,5.169-5.851,14.46,14.46,0,0,0,1.443-6.279C162.031,532.43,162.155,532.573,162.277,532.722Z" transform="translate(-103.956 -523.012)" fill="#8a3a1e"/>
      <path id="Path_2932" data-name="Path 2932" d="M119.385,566.788a29.043,29.043,0,0,0-.786,21.092c-.151-.038-.3-.077-.449-.119a29.385,29.385,0,0,1-.511-16.961,28.559,28.559,0,0,1,1.537-4.4C119.24,566.53,119.309,566.659,119.385,566.788Z" transform="translate(-101.306 -526.786)" fill="#8a3a1e"/>
      <path id="Path_2933" data-name="Path 2933" d="M155.251,528.466c.147,6.752-6.518,11.762-11.987,14.529-4.349,2.2-8.851,4.026-12.977,6.653a35.515,35.515,0,0,0-7.612,6.3c-.055-.13-.112-.256-.171-.383.174-.2.357-.391.538-.583a42.26,42.26,0,0,1,10.632-7.755c4.378-2.368,9.169-4.032,13.318-6.821,3.844-2.581,7.727-6.7,7.871-11.534a2.075,2.075,0,0,1-1.638.865c-2.794.326-5.581.738-8.343,1.266-6.01,1.142-12.024,2.862-17.276,6.088a38.828,38.828,0,0,0-16.523,20.882,45.786,45.786,0,0,0-1.4,22.674c-.144-.073-.287-.144-.428-.221a45.293,45.293,0,0,1,2.268-24.772,38.868,38.868,0,0,1,16.632-19.333,51.5,51.5,0,0,1,15.331-5.431c2.715-.551,5.456-1.011,8.2-1.359a7.736,7.736,0,0,0,2.418-.384,1.414,1.414,0,0,0,.718-1.089C154.969,528.193,155.11,528.327,155.251,528.466Z" transform="translate(-100.405 -522.545)" fill="#8a3a1e"/>
      <path id="Path_2934" data-name="Path 2934" d="M151.584,525.446c-.653.07-1.342-.01-1.989.028-1.73.106-3.466.231-5.185.441a33.1,33.1,0,0,0-9.7,2.538,49.054,49.054,0,0,0-8.384,4.934,70.436,70.436,0,0,0-6.987,5.535c-10.357,9.623-15.838,24.065-15.3,38.178-.133-.107-.266-.218-.391-.326a51.679,51.679,0,0,1,3.25-19.617,48.468,48.468,0,0,1,15.765-21.5c4.2-3.268,8.65-6.42,13.676-8.285a34.421,34.421,0,0,1,7.989-1.833q2.124-.245,4.251-.379a19.419,19.419,0,0,1,1.982-.1c.166.007.334.015.5.015C151.236,525.2,151.41,525.321,151.584,525.446Z" transform="translate(-99.867 -522.213)" fill="#8a3a1e"/>
      <path id="Path_2935" data-name="Path 2935" d="M101.5,561.842c.087-.165.175-.337.261-.5a56.615,56.615,0,0,0-1.052,5.719,74.731,74.731,0,0,0-.953,9.561c-.129-.228-.25-.46-.357-.695.056-1.954.277-3.912.521-5.818.318-2.486.648-4.965,1.141-7.409.069-.137.138-.277.21-.417S101.42,561.989,101.5,561.842Z" transform="translate(-99.4 -526.226)" fill="#8a3a1e"/>
      <path id="Path_2936" data-name="Path 2936" d="M147.5,522.2a46.448,46.448,0,0,0-16.261,3.505,44.4,44.4,0,0,0-12.8,7.89c-.513.459-1.025.927-1.526,1.4.326-.486.657-.967.991-1.453a43.713,43.713,0,0,1,6.193-4.648,47.836,47.836,0,0,1,22.334-7.035C146.8,521.966,147.153,522.08,147.5,522.2Z" transform="translate(-101.337 -521.859)" fill="#8a3a1e"/>
      <path id="Path_2937" data-name="Path 2937" d="M170.065,542.044s0,0,0,.007,0,0,0,.008a15.71,15.71,0,0,1-.224,2.8,14.012,14.012,0,0,1-1.389,4.05,20.719,20.719,0,0,1-3.463,4.7c-.147-.032-.286-.066-.421-.1A19.371,19.371,0,0,0,168,548.962a13.763,13.763,0,0,0,1.582-4.837,23.68,23.68,0,0,0,.108-3.154C169.822,541.327,169.951,541.683,170.065,542.044Z" transform="translate(-106.608 -523.973)" fill="#8a3a1e"/>
      <path id="Path_2938" data-name="Path 2938" d="M170.708,585.876c-.115.076-.221.148-.339.221h0a13.919,13.919,0,0,1-1.76-2.349,18.517,18.517,0,0,1-2.19-6.279v-.007c-.13-.744-.229-1.487-.3-2.235a.807.807,0,0,1-.008-.1v0a19.837,19.837,0,0,1,1.594-10,46.665,46.665,0,0,1,2.725-4.942c-.012.056-.018.116-.027.173-.031.232-.057.46-.076.692a36.586,36.586,0,0,0-2.133,3.921,21.515,21.515,0,0,0,.626,18.4A14.436,14.436,0,0,0,170.708,585.876Z" transform="translate(-106.769 -526.097)" fill="#8a3a1e"/>
      <path id="Path_2939" data-name="Path 2939" d="M175.127,582.337a3.9,3.9,0,0,1-.216.341,8.337,8.337,0,0,1-.576-.634,18.031,18.031,0,0,1-3-6.623,18.6,18.6,0,0,1-.35-9.884c.049.305.108.6.171.889v0a18.577,18.577,0,0,0,.551,8.909c.656,2.293,1.446,4.9,3.111,6.678C174.919,582.128,175.021,582.232,175.127,582.337Z" transform="translate(-107.261 -526.69)" fill="#8a3a1e"/>
    </g>
    <path id="Path_2940" data-name="Path 2940" d="M154.07,579.109c-1.329,1.041-5.029-2.279-5.123-5.916a3,3,0,0,1,.014-.409c.694,2.531,2.072,5.474,3.7,5.064a2.1,2.1,0,0,0,1.466-1.36C154.529,577.6,154.749,578.573,154.07,579.109Z" transform="translate(-6.622 -5.796)" fill="#e56b44" opacity="0.2" style="mix-blend-mode: multiply;isolation: isolate"/>
    <path id="Path_2941" data-name="Path 2941" d="M164.98,553.2c-.02.054-.258.645-.635,1.572a8.1,8.1,0,0,1-.918.344c-.319.3-7.538,1.167-7.12-1.829a11.609,11.609,0,0,1-9.011,3.325c-5.245-.551-3.715-3.191-3.638-3.321-.187.1-5.3,2.956-7.117,1.825-1.853-1.156.38-2.858.38-2.858s-10.487,6.995-11.633,12.161a18.241,18.241,0,0,0,3.783,16.369c4.564,5.749,8.813,11,14.026,11.254a18.094,18.094,0,0,0,8.688-2.259,29.382,29.382,0,0,1-5.409,3.572,11.807,11.807,0,0,1-3.279.842c-.263.028-.528.049-.8.057-2.119.063-4.627-1.275-7.14-3.3a42.378,42.378,0,0,1-4.52-4.3c-.823-.9-1.62-1.823-2.376-2.748a55.094,55.094,0,0,1-4.751-6.734c-3.416-5.882-.76-8.35-.76-8.35-5.5-5.123-6.073-11.764-2.468-13.283,2.9-1.223,4.112,4.881,4.62,6.084,0,0,.353-.354.383-.548a15.95,15.95,0,0,1,4.391-6.011,98.3,98.3,0,0,0,10.43-5.78c-.164.159-3.043,2.957-2.474,3.692.432.564,4.35.55,8.085-1.54-.418.442-.691.823-.668,1.068.094.947,1.9,3.51,8.16,1.234s7.4-5.315,7.4-5.315,2.086.19,0,1.991-3.322,2.943-3.322,2.943A6.51,6.51,0,0,0,164.98,553.2Z" transform="translate(-3.2 -3.101)" fill="#e56b44" opacity="0.2" style="mix-blend-mode: multiply;isolation: isolate"/>
    <path id="Path_2942" data-name="Path 2942" d="M132.622,557.341a13.326,13.326,0,0,1,6.628-1.612,8.4,8.4,0,0,1,5.994,2.846s.608-5.125-3.416-5.788S132.622,557.341,132.622,557.341Z" transform="translate(-4.817 -3.578)" fill="#b5461e"/>
    <path id="Path_2943" data-name="Path 2943" d="M155.988,560.263c.285-.663,2.941-4.708,6.452-4.251s3.227,4.251,3.227,4.251a5.634,5.634,0,0,0-4.081-1.328A16.805,16.805,0,0,0,155.988,560.263Z" transform="translate(-7.401 -3.937)" fill="#b5461e"/>
    <g id="Group_695" data-name="Group 695" transform="translate(103.01 589.676)">
      <path id="Path_2944" data-name="Path 2944" d="M202.886,670.5c-2.229.087-5.419,3.575-7.378,5.989-1.04,1.292-1.73,2.277-1.73,2.277-7.592.874-23.153-3.613-23.153-3.613a8.632,8.632,0,0,1,1.1,2.225,135.628,135.628,0,0,1,3.644,13.113l5.691,2.276s.381,1.624.764,3.314.755,3.424.755,3.687c0,.526-5.883-.35-5.883-.35l.08.337,5.8,25.042s-1.443.771-3.9,1.909c-6.543,3.039-20.282,8.7-33.141,9.468a65.523,65.523,0,0,1-18.45-1.811,89.757,89.757,0,0,1-8.915-2.565,75.774,75.774,0,0,1-7.9-3.15c.512-19.654,8.683-43.693,10.336-48.369.189-.531.293-.813.293-.813a34.014,34.014,0,0,1-3.963-4.759c-7.921-11.378-11.732-29.287-12.169-42.732a38.79,38.79,0,0,1,1.151-11.681c1.905-6.778,5.81-9.7,9.476-11.072a13.347,13.347,0,0,0,3.048-1.681,43.772,43.772,0,0,0,7.4-7.364,20.986,20.986,0,0,1,1.4-1.571c.118-.109.241-.212.361-.31a17.143,17.143,0,0,0,2.221,5.676c1.063,1.69,2.77,4.643,4.672,7.892,3.751,6.4,8.244,13.934,10.006,15.095a74.252,74.252,0,0,0,.961-15.419c-.023-.382-.046-.763-.076-1.149-.354-4.683-1-7.081-1.1-8.81a15.274,15.274,0,0,0,4.588,3.056c1.742.862,3.723,1.684,5.629,2.457,3.288,1.331,6.346,2.5,7.579,3.413,2.846,2.1,5.883,6.652,10.057,16.667s8.54,33.363,8.54,33.363C187.7,667.5,202.886,670.5,202.886,670.5Z" transform="translate(-104.743 -598.294)" fill="url(#linear-gradient-15)"/>
      <path id="Path_2945" data-name="Path 2945" d="M203.084,682.575c-1.04,1.292-1.73,2.277-1.73,2.277-7.592.874-23.153-3.613-23.153-3.613a8.632,8.632,0,0,1,1.1,2.225c-3.8-5.4-6.935-15.426-5.845-22.525,1.3-8.476,3.5-7.6,3.5-7.6-1.948,7.34.166,17.624,5.351,21.945C187.329,679.457,193.528,680.906,203.084,682.575Z" transform="translate(-112.32 -604.38)" opacity="0.5" fill="url(#linear-gradient-6)" style="mix-blend-mode: multiply;isolation: isolate"/>
      <path id="Path_2946" data-name="Path 2946" d="M148.165,630.809c-12.153-10.086-17.967-25.347-19.7-30.634a20.982,20.982,0,0,1,1.4-1.571c.118-.109.241-.212.361-.31a17.143,17.143,0,0,0,2.221,5.676c1.063,1.69,2.77,4.643,4.672,7.892,3.751,6.4,8.244,13.934,10.006,15.095a74.252,74.252,0,0,0,.961-15.419c-.023-.382-.046-.763-.076-1.149-.354-4.683-1-7.081-1.1-8.81a15.274,15.274,0,0,0,4.588,3.056C152.5,615.429,148.165,630.809,148.165,630.809Z" transform="translate(-107.368 -598.294)" fill="#f0fbff"/>
      <g id="Group_692" data-name="Group 692" transform="translate(13.948 103.81)">
        <path id="Path_2947" data-name="Path 2947" d="M140.793,718.4l-.365,3.482-1.659,15.771s-13.538.35-18.344-2.45l1.792-15.893.486-4.29S135.609,719.1,140.793,718.4Z" transform="translate(-120.426 -715.015)" fill="#94e6ed"/>
        <path id="Path_2948" data-name="Path 2948" d="M141.016,718.4l-.365,3.482a101.09,101.09,0,0,1-18.21-2.573l.486-4.29S135.832,719.1,141.016,718.4Z" transform="translate(-120.649 -715.015)" fill="#f0fbff"/>
      </g>
      <g id="Group_693" data-name="Group 693" transform="translate(13.705)">
        <path id="Path_2949" data-name="Path 2949" d="M131.528,603.97c1.063,1.69,2.77,4.643,4.672,7.892a54.508,54.508,0,0,1-16.047-4.323c4.13-2.939,7.7-7.938,8.793-8.935.118-.109.241-.212.361-.31A17.143,17.143,0,0,0,131.528,603.97Z" transform="translate(-120.153 -598.294)" fill="url(#linear-gradient-17)" style="mix-blend-mode: multiply;isolation: isolate"/>
        <path id="Path_2950" data-name="Path 2950" d="M159.424,607.5a18.258,18.258,0,0,1-9.044,4.447c-.023-.382-.046-.763-.076-1.149-.354-4.683-1-7.081-1.1-8.81C150.888,603.937,155.333,605.842,159.424,607.5Z" transform="translate(-123.367 -598.703)" fill="url(#linear-gradient-18)" style="mix-blend-mode: multiply;isolation: isolate"/>
      </g>
      <g id="Group_694" data-name="Group 694" transform="translate(9.899 20.916)">
        <path id="Path_2951" data-name="Path 2951" d="M164.994,654.639q.293,1.087.566,2.15a19.715,19.715,0,0,0,6.354-2.376c-1.95,4.867-1.393,10.385.505,15.468s7.717,15.682,5.821,9.709-5.188-12.458-5.568-15.841,1.9-11.9,1.9-11.9c4.176-4.667,4.176-10.851,1.942-15.635s-6.623-15.17-7.256-14.354,5.44,12.486,6.832,15.987-.886,10.268-3.29,13.3C171.723,652.5,168.719,653.72,164.994,654.639Z" transform="translate(-121.306 -621.811)" fill="#94e6ed"/>
        <path id="Path_2952" data-name="Path 2952" d="M158.7,661.8a43.521,43.521,0,0,0,4.469-.589c-.183-.707-.372-1.415-.563-2.116-1.941.42-4.02.76-6.095,1,.082.618.165,1.229.249,1.837C157.419,661.9,158.07,661.855,158.7,661.8Z" transform="translate(-120.368 -625.936)" fill="#94e6ed"/>
        <path id="Path_2953" data-name="Path 2953" d="M163.36,684.127q-.751-.472-1.535-.956c-.177-.108-.352-.218-.533-.327-1.7-1.039-3.67-2.08-5.749-3.086-.534-.258-1.076-.514-1.62-.767-9.014-4.18-19.326-7.582-19.326-7.582-.125-5.252-4.49-17.62-4.49-17.62,3.8,3.968,12.748,4.742,20.678,4.411q-.119-.868-.237-1.753a54.146,54.146,0,0,1-5.829.258c-8.224-.116-14.8-4.2-16.505-10.5s-8.039-18.2-12.34-21.587a23.17,23.17,0,0,0,2.15,4.552c1.392,2.216,6.074,13.769,8.73,21.468s6.959,22.989,6.959,22.989c4.148,1.077,12.495,4.96,20.763,8.664q.819.368,1.636.732c1.018.453,2.031.9,3.029,1.337q1.449.632,2.832,1.278.778.359,1.531.721c7.517,3.6,13.1,7.044,13.1,7.044A148.1,148.1,0,0,0,163.36,684.127Z" transform="translate(-115.873 -622.121)" fill="#94e6ed"/>
      </g>
      <path id="Path_2954" data-name="Path 2954" d="M182.094,700.027c-6.836-1.216-13-2.472-18.594-3.858q-.794-.2-1.572-.4-2.037-.524-3.972-1.075c-.584-.165-1.159-.333-1.729-.5-19.307-5.76-31.113-13.949-40.91-29.375-6.7-10.558-9.344-31.262-9.393-41.792a38.79,38.79,0,0,0-1.151,11.681c.438,13.453,4.255,31.369,12.183,42.744l-.014-.012c.028.041.06.079.089.12.2.284.4.559.6.833.1.142.211.288.318.43.207.269.417.53.628.792.108.133.213.268.323.4.232.279.471.549.711.817.091.1.18.207.271.309q.5.546,1.019,1.059s-.1.282-.293.813c-1.652,4.676-9.823,28.716-10.336,48.369a75.774,75.774,0,0,0,7.9,3.15,89.757,89.757,0,0,0,8.915,2.565c-6.738-23.245-.808-44.33,1.785-48.746l-1.008-.921c5.865,3.643,15.666,8.376,30.259,11.42.593.124,1.2.245,1.807.364q1.454.28,2.963.537.8.137,1.613.264c.08.012.154.026.232.039,4.965.775,11.955,2.1,11.955,2.1s5.883.876,5.883.35A18.092,18.092,0,0,0,182.094,700.027Z" transform="translate(-104.743 -601.03)" opacity="0.5" fill="url(#linear-gradient-19)" style="mix-blend-mode: multiply;isolation: isolate"/>
    </g>
    <g id="Group_696" data-name="Group 696" transform="translate(125.249 583.556)">
      <path id="Path_2955" data-name="Path 2955" d="M147.267,628.611c-1.811-1.295-6.491-9.854-10.294-16.906-.037-.073-.076-.14-.115-.208-1.019-1.9-1.978-3.678-2.793-5.166-.569-1.043-1.071-1.942-1.476-2.644a18.655,18.655,0,0,1-1.966-4.988c-.1-.391-.18-.777-.255-1.166a39.953,39.953,0,0,1-.621-5.863,20.451,20.451,0,0,0,2.189-.258,42.949,42.949,0,0,0,4.52,4.3c.6.482,1.2.922,1.785,1.317a9.722,9.722,0,0,0,5.355,1.981c.269-.008.535-.029.8-.057a11.807,11.807,0,0,0,3.279-.842,5.231,5.231,0,0,0-.619,2.987c.05.942.235,2.064.455,3.6,0,.012,0,.033.007.056.221,1.5.463,3.4.634,5.9A85.832,85.832,0,0,1,147.267,628.611Z" transform="translate(-129.748 -591.412)" fill="url(#linear-gradient-20)"/>
      <path id="Path_2956" data-name="Path 2956" d="M147.055,601.094c.05.942.235,2.064.455,3.6a7.588,7.588,0,0,0-4.718-3.311c-4.55-1.044-7.31,2.786-8.726,4.952-.569-1.043-1.071-1.942-1.476-2.644a19.525,19.525,0,0,1-2.221-6.154,39.953,39.953,0,0,1-.621-5.863,20.451,20.451,0,0,0,2.189-.258,42.949,42.949,0,0,0,4.52,4.3c2.513,2.023,5.021,3.361,7.14,3.3.269-.008.535-.029.8-.057a11.807,11.807,0,0,0,3.279-.842A5.231,5.231,0,0,0,147.055,601.094Z" transform="translate(-129.748 -591.412)" fill="#e56b44" opacity="0.2" style="mix-blend-mode: multiply;isolation: isolate"/>
      <path id="Path_2957" data-name="Path 2957" d="M148.166,630.27c-1.811-1.295-6.491-9.854-10.294-16.906,2.14,3.861,9.154,13.805,9.154,13.805,1.616-4.163,1.507-19.4,1.389-20.765.221,1.5.463,3.4.634,5.9A85.832,85.832,0,0,1,148.166,630.27Z" transform="translate(-130.647 -593.07)" fill="#e56b44" opacity="0.2" style="mix-blend-mode: multiply;isolation: isolate"/>
      <path id="Path_2958" data-name="Path 2958" d="M138.242,597.026a24.347,24.347,0,0,0-7.618,1.673c-.1-.391-.18-.777-.255-1.166a39.953,39.953,0,0,1-.621-5.863,20.451,20.451,0,0,0,2.189-.258,42.949,42.949,0,0,0,4.52,4.3C137.053,596.191,137.653,596.631,138.242,597.026Z" transform="translate(-129.748 -591.412)" fill="#e56b44" opacity="0.2" style="mix-blend-mode: multiply;isolation: isolate"/>
    </g>
    <path id="Path_2959" data-name="Path 2959" d="M211.71,713.619c-.888.462-1.76.9-2.623,1.322,1.033-.548,2.079-1.114,3.153-1.718a1.214,1.214,0,0,0,.414-1.352c-.151-.536-.582-.8-.962-.583-18.527,10.406-31.234,12.779-36.746,6.858-1.692-1.817-2.907-4.89-3.8-8.755-.543-.127-1.081-.255-1.613-.39a27.853,27.853,0,0,0,3.416,9.388c-.14-.1-.281-.21-.418-.319-2.447-1.979-4.394-5.515-5.961-9.861-.609-.172-1.214-.35-1.807-.531,1.766,5.349,4.046,9.783,7.03,12.2a19.99,19.99,0,0,0,13.013,4.256c7.345,0,16.434-2.847,27.414-8.559a1.2,1.2,0,0,0,.437-1.339C212.518,713.695,212.092,713.422,211.71,713.619Z" transform="translate(-8.372 -20.717)" fill="url(#linear-gradient-21)"/>
    <g id="Group_713" data-name="Group 713" transform="translate(157.062 606.53)">
      <g id="Group_697" data-name="Group 697" transform="translate(29.022 83.401)">
        <path id="Path_2960" data-name="Path 2960" d="M210.355,732.181c-.5.311-3.638,2.367-7.228,5.2-1.637,1.289-3.364,2.735-4.978,4.254.54-3.07,1.178-7.23,1.6-11.74.444-4.774.861-10.47,1.162-14.843.106-1.543.193-2.919.265-4.035a68.44,68.44,0,0,1,5.91,4.536S209.078,728.388,210.355,732.181Z" transform="translate(-198.149 -711.017)" fill="url(#linear-gradient-22)"/>
        <path id="Path_2961" data-name="Path 2961" d="M203.47,737.381a87.58,87.58,0,0,0-2.221-22.329c.106-1.543.193-2.919.265-4.035a68.44,68.44,0,0,1,5.91,4.536s2,12.836,3.274,16.628C210.2,732.492,207.059,734.548,203.47,737.381Z" transform="translate(-198.492 -711.017)" fill="#e56b44" opacity="0.2" style="mix-blend-mode: multiply;isolation: isolate"/>
      </g>
      <g id="Group_699" data-name="Group 699" transform="translate(31.293 53.482)">
        <path id="Path_2962" data-name="Path 2962" d="M238.026,710.719c-.029.022-.044.035-.044.035.109.4.235,1.073.371,1.923.155.988.326,2.217.5,3.557.189,1.462.378,3.052.557,4.605.118,1.035.231,2.053.339,3,.186,1.686.341,3.154.439,4.129.084.784.13,1.248.13,1.248-.125.072-.253.149-.388.221-4,2.24-11.906,4.82-18.313,4.452a16.343,16.343,0,0,1-9.135-3.723c-.232-.181-.439-.36-.631-.527-.007-.008-.019-.015-.026-.023-.384-.339-.676-.618-.878-.824s-.312-.333-.312-.333c-.074-.221-.15-.471-.226-.748v0c-.2-.711-.418-1.595-.639-2.577-.186-.855-.379-1.784-.564-2.741-.255-1.291-.506-2.634-.73-3.908-.253-1.432-.485-2.782-.666-3.887-.02-.123-.042-.24-.059-.354-.244-1.459-.39-2.409-.39-2.409a4.153,4.153,0,0,0-.548-.517c-.409-.348-.994-.808-1.643-1.294l0-.005c-1.3-.985-2.85-2.1-3.716-2.72-.41-.3-.668-.479-.668-.479-.042-.561-.068-1.187-.079-1.855-.007-.572,0-1.18.015-1.811.027-.937.08-1.927.171-2.953.106-1.244.269-2.531.494-3.814a32.583,32.583,0,0,1,1.092-4.5,19.748,19.748,0,0,1,1.4-3.342,12.729,12.729,0,0,1,1.106-1.714,14.532,14.532,0,0,1,1.066-1.229,19.2,19.2,0,0,1,3.09-2.572,32.283,32.283,0,0,1,6.468-3.26c.672-.256,1.2-.445,1.527-.581,2.53-1.059,6.026-2.32,9.623-1.588.685.141,1.421.312,2.2.521a30.765,30.765,0,0,1,8.946,3.905,19.526,19.526,0,0,1,2.847,2.292,14.668,14.668,0,0,1,2.925,3.99c.022.035.038.071.058.109.416.874.849,1.94,1.282,3.1.41,1.116.82,2.323,1.2,3.526.331,1.032.647,2.062.934,3.033.3,1.005.569,1.951.8,2.775.213.759.39,1.419.523,1.924.187.7.293,1.108.293,1.108a64.689,64.689,0,0,0-7.634,4.681c-1.483,1.009-2.663,1.848-3.032,2.11-.026.019-.05.037-.068.049Z" transform="translate(-200.703 -677.378)" fill="url(#linear-gradient-23)"/>
        <g id="Group_698" data-name="Group 698" transform="translate(0.004 4.645)">
          <path id="Path_2963" data-name="Path 2963" d="M241.411,684.892c-2.871.983-8.384,2.41-17.362,2.984-10.616.683-15.508-.854-17.334-1.7a19.2,19.2,0,0,1,3.09-2.572c4.032,1.191,16.374,3.074,28.759-1A19.526,19.526,0,0,1,241.411,684.892Z" transform="translate(-201.372 -682.6)" fill="#83c4a3" opacity="0.3" style="mix-blend-mode: screen;isolation: isolate"/>
          <path id="Path_2964" data-name="Path 2964" d="M245.231,692.873c-3.07.874-9.022,2.123-18.417,2.342a112.529,112.529,0,0,1-24.116-1.974,19.748,19.748,0,0,1,1.4-3.342c4.932,1.358,21.567,4.083,39.793-.236.022.035.038.071.058.109C244.366,690.647,244.8,691.712,245.231,692.873Z" transform="translate(-200.927 -683.381)" fill="#83c4a3" opacity="0.3" style="mix-blend-mode: screen;isolation: isolate"/>
          <path id="Path_2965" data-name="Path 2965" d="M247.171,700.27c-3.01,1.216-10.389,3.508-23.623,3.716-14.5.229-20.731-1.068-22.632-1.591.106-1.244.269-2.531.494-3.814a84.682,84.682,0,0,0,22.139,2.178c8.273-.463,18.966-2.7,22.689-3.522C246.568,698.269,246.884,699.3,247.171,700.27Z" transform="translate(-200.73 -684.219)" fill="#83c4a3" opacity="0.3" style="mix-blend-mode: screen;isolation: isolate"/>
          <path id="Path_2966" data-name="Path 2966" d="M248.765,707.038a64.689,64.689,0,0,0-7.634,4.681,122.618,122.618,0,0,1-16.4,2.154c-9.617.676-15.809.065-19.562-.694l0-.005c-1.3-.985-2.85-2.1-3.716-2.72-.41-.3-.668-.479-.668-.479-.042-.561-.068-1.187-.079-1.855,2.566,1.061,11.314,3.123,23.394,2.269a108.4,108.4,0,0,0,24.371-4.458C248.659,706.628,248.765,707.038,248.765,707.038Z" transform="translate(-200.707 -685.181)" fill="#83c4a3" opacity="0.3" style="mix-blend-mode: screen;isolation: isolate"/>
          <path id="Path_2967" data-name="Path 2967" d="M239.732,720.624c-1.993.794-6.347,1.9-15.33,2.145s-13.164.187-15.046.1c-.253-1.432-.485-2.782-.666-3.887-.02-.123-.042-.24-.059-.354,4.449.634,19.049,1.378,30.6-1.564C239.385,718.055,239.556,719.284,239.732,720.624Z" transform="translate(-201.583 -686.412)" fill="#83c4a3" opacity="0.3" style="mix-blend-mode: screen;isolation: isolate"/>
          <path id="Path_2968" data-name="Path 2968" d="M240.809,729.246a105.918,105.918,0,0,1-16.735,2.239c-7.94.507-11.663-.346-13.243-.949-.186-.855-.379-1.784-.564-2.741,5.108.483,21.455.525,30.2-1.551C240.588,727.279,240.7,728.3,240.809,729.246Z" transform="translate(-201.764 -687.428)" fill="#83c4a3" opacity="0.3" style="mix-blend-mode: screen;isolation: isolate"/>
          <path id="Path_2969" data-name="Path 2969" d="M241.527,735.478c-.125.072-.253.149-.388.221-4,2.24-11.906,4.82-18.313,4.452a16.343,16.343,0,0,1-9.135-3.723c-.232-.181-.439-.36-.631-.527-.007-.008-.019-.015-.026-.023-.384-.339-.676-.618-.878-.824s-.312-.333-.312-.333c-.074-.221-.15-.471-.226-.748,2.292,1.351,6.361,3.636,15.132,2.779A84.119,84.119,0,0,0,241.4,734.23C241.481,735.014,241.527,735.478,241.527,735.478Z" transform="translate(-201.914 -688.282)" fill="#83c4a3" opacity="0.3" style="mix-blend-mode: screen;isolation: isolate"/>
        </g>
        <path id="Path_2970" data-name="Path 2970" d="M230.806,678.117a8.013,8.013,0,0,1-7.261,6.022,5.528,5.528,0,0,1-6.084-4.375c.672-.256,1.2-.445,1.527-.581,2.53-1.059,6.026-2.32,9.623-1.588C229.3,677.736,230.032,677.908,230.806,678.117Z" transform="translate(-202.557 -677.378)" fill="#00a9ad" opacity="0.4" style="mix-blend-mode: multiply;isolation: isolate"/>
        <path id="Path_2971" data-name="Path 2971" d="M212.618,731.887c-.384-.339-.676-.618-.878-.824s-.312-.333-.312-.333c-.9-2.682-2.166-9.871-2.825-13.865.542-3.428,1.065-6.854.753-9.486-.645-5.423-1.457-9.242-1.506-9.476.664,1.814,3.214,7.78,3.119,13.178C210.887,715.795,211.278,726.558,212.618,731.887Z" transform="translate(-201.494 -679.648)" fill="#00a9ad" opacity="0.4" style="mix-blend-mode: multiply;isolation: isolate"/>
        <path id="Path_2972" data-name="Path 2972" d="M207.057,711.636l-.241,2.884c-1.236-1.048-4.069-3.092-5.362-4.019-.41-.3-.668-.479-.668-.479-.076-1.042-.1-2.3-.064-3.666C202.226,707.7,205.284,710.384,207.057,711.636Z" transform="translate(-200.703 -680.583)" fill="#00a9ad" opacity="0.4" style="mix-blend-mode: multiply;isolation: isolate"/>
        <path id="Path_2973" data-name="Path 2973" d="M239.491,712.878h.005c.667-.479,7.838-5.571,10.733-6.839,0,0-.315-1.226-.816-3.032-2.122,1.02-7.5,3.762-10.582,6.788-.932-4.934-1.61-10.974-1.12-12.9a27.978,27.978,0,0,0-.259,13.694c1.8,7.5,1.9,16.225,1.286,18.029s-5.365,4.839-12.958,5.787-10.531-2.562-11.832-2.079a16.342,16.342,0,0,0,9.135,3.723c6.407.368,14.309-2.212,18.313-4.452.134-.071.262-.149.388-.221,0,0-1.579-15.667-2.337-18.464C239.448,712.913,239.462,712.9,239.491,712.878Z" transform="translate(-202.168 -679.537)" fill="#00a9ad" opacity="0.4" style="mix-blend-mode: multiply;isolation: isolate"/>
      </g>
      <g id="Group_700" data-name="Group 700" transform="translate(59.122 53.925)">
        <path id="Path_2974" data-name="Path 2974" d="M247.929,683.524a14.3,14.3,0,0,1-.208,2.116c-.712,4.225-3.032,8.969-3.614,8.977a.587.587,0,0,1-.471-.179c-.713-.735.189-3.548.486-4.27-.037.08-.076.156-.114.237l-.006.008c-.893,1.92-2.053,4.145-3.113,3.936a.133.133,0,0,1-.092-.066c-.345-.45.623-3.268,1.022-4.384-.05.062-.092.13-.141.2l0,.006c-1.022,1.51-2.335,4.034-3.3,3.9a.183.183,0,0,1-.129-.089c-.418-.614.736-4.272,1.458-6.394v-.005c.042-.121.084-.239.121-.35-.05.138-.107.286-.16.438a.3.3,0,0,1-.011.03,36.812,36.812,0,0,1-1.693,4.039.022.022,0,0,1-.007.014,3.867,3.867,0,0,1-1.057,1.453c-.3.178-.521.213-.665.134-.456-.244-.238-1.56.23-3.064a59.778,59.778,0,0,0,1.52-7.154s-1.211,1.238-3.1,2.9c-1.339,1.173-2.569.626-2.839.117a.3.3,0,0,1,.208-.481c.926-.254,2.949-3.807,3.781-6.119.478-1.336,1.9-1.682,3.723-1.571a28.052,28.052,0,0,1,4.428.774A4.925,4.925,0,0,1,247.929,683.524Z" transform="translate(-231.993 -677.875)" fill="url(#linear-gradient-24)"/>
        <path id="Path_2975" data-name="Path 2975" d="M237.84,688.327a50.42,50.42,0,0,1-1.6,5.385c-.456-.243-.237-1.561.234-3.064a59.808,59.808,0,0,0,1.516-7.156s-1.21,1.242-3.1,2.9c-1.341,1.177-2.571.627-2.839.118a3.083,3.083,0,0,0,3.034-1.2c1.062-1.432,2.89-3.575,3.3-3.423S238.766,685.054,237.84,688.327Z" transform="translate(-232 -678.318)" fill="#e56b44" opacity="0.2" style="mix-blend-mode: multiply;isolation: isolate"/>
        <path id="Path_2976" data-name="Path 2976" d="M240.4,688.843a36.3,36.3,0,0,1-1.693,4.039C239.219,691.584,239.885,690.02,240.4,688.843Z" transform="translate(-232.736 -679.088)" fill="#e56b44" opacity="0.2" style="mix-blend-mode: multiply;isolation: isolate"/>
        <path id="Path_2977" data-name="Path 2977" d="M240.781,691.124a12.661,12.661,0,0,1-1.763,3.766c-.418-.613.736-4.274,1.457-6.394v0c.269-.622.491-1.124.618-1.41C241.677,685.766,241.689,688.33,240.781,691.124Z" transform="translate(-232.76 -678.854)" fill="#e56b44" opacity="0.2" style="mix-blend-mode: multiply;isolation: isolate"/>
        <path id="Path_2978" data-name="Path 2978" d="M244.079,689.615a19.522,19.522,0,0,1-2.2,5.639c-.345-.449.622-3.267,1.02-4.384-.047.063-.091.129-.139.2.289-.973.6-2.075.93-3.188C244.407,685.49,244.648,686.865,244.079,689.615Z" transform="translate(-233.079 -678.846)" fill="#e56b44" opacity="0.2" style="mix-blend-mode: multiply;isolation: isolate"/>
        <path id="Path_2979" data-name="Path 2979" d="M245.052,695.407c-.716-.736.187-3.548.482-4.27-.038.08-.076.156-.113.236.493-1.351.973-2.916,1.242-4.014.39-1.6.511-.436.221,2.352C246.619,692.314,245.505,694.088,245.052,695.407Z" transform="translate(-233.408 -678.844)" fill="#e56b44" opacity="0.2" style="mix-blend-mode: multiply;isolation: isolate"/>
      </g>
      <g id="Group_701" data-name="Group 701" transform="translate(46.872 48.764)">
        <path id="Path_2980" data-name="Path 2980" d="M229.038,672.072c0,.342-.009.71-.02,1.1-.071,2.44-.369,5.61-1.339,7.2a2.669,2.669,0,0,1-.236.324c-1.92,2.323-6.991.66-7.355.113-.109-.163-.417-.785-.8-1.594-.326-.687-.705-1.5-1.066-2.286a25.242,25.242,0,0,0,9.739-4.026C228.335,672.63,228.7,672.353,229.038,672.072Z" transform="translate(-218.22 -672.072)" fill="url(#linear-gradient-25)"/>
        <path id="Path_2981" data-name="Path 2981" d="M229.018,673.271c-.071,2.44-.369,5.61-1.339,7.2a2.669,2.669,0,0,1-.236.324c-2.175-1.049-5.651-1.379-8.157-1.481-.326-.687-.705-1.5-1.066-2.286A25.242,25.242,0,0,0,227.959,673Z" transform="translate(-218.22 -672.174)" fill="#e56b44" opacity="0.2" style="mix-blend-mode: multiply;isolation: isolate"/>
      </g>
      <path id="Path_2982" data-name="Path 2982" d="M248.9,683.527a14.3,14.3,0,0,1-.208,2.116c-.957-3.522-4.62-6.513-7.96-7.746a28.052,28.052,0,0,1,4.428.774A4.925,4.925,0,0,1,248.9,683.527Z" transform="translate(-173.837 -623.953)" fill="#e56b44" opacity="0.2" style="mix-blend-mode: multiply;isolation: isolate"/>
      <g id="Group_707" data-name="Group 707" transform="translate(0 104.565)">
        <g id="Group_702" data-name="Group 702" transform="translate(9.931 15.153)">
          <path id="Path_2983" data-name="Path 2983" d="M203.348,762.213s-6.737,21.541-10.058,27.707-13.19,23.438-13.19,23.438c-.242-.487-1.581-1.051-2.507-1.4-.518-.189-.909-.312-.909-.312s2.278-16.794,3.985-25.81,2.563-19.924,4.833-25.493a27.018,27.018,0,0,1,5.252-8.5c1.165.354,5.777,4.358,9.088,7.284C201.719,760.8,203.173,762.111,203.348,762.213Z" transform="translate(-176.684 -751.851)" fill="url(#linear-gradient-26)"/>
          <path id="Path_2984" data-name="Path 2984" d="M203.576,763.119s-6.737,21.541-10.058,27.707-13.19,23.438-13.19,23.438c-.242-.487-.655-.706-1.581-1.051,11.132-14.51,14.814-37.8,15.563-42.092.831-4.765,2.67-7.405,5.76-11.08C201.948,761.7,203.4,763.017,203.576,763.119Z" transform="translate(-176.912 -752.757)" fill="#e56b44" opacity="0.2" style="mix-blend-mode: multiply;isolation: isolate"/>
        </g>
        <path id="Path_2985" data-name="Path 2985" d="M240.469,743.7a26.835,26.835,0,0,1-1.842,9.444c-1.761,4.414-9.01,10.508-13.576,14.034-2.231,1.725-3.822,2.831-3.822,2.831a15.625,15.625,0,0,0-3.314-4.215,17.852,17.852,0,0,0-5.721-3.4.057.057,0,0,1-.019-.008,22.668,22.668,0,0,0-4.157-1.107,19.425,19.425,0,0,0-3.127-.293c-.1-.063-.208-.132-.322-.208a.026.026,0,0,0-.012-.007c-.323-.221-.687-.487-1.077-.79a.054.054,0,0,1-.02-.012c-.736-.568-1.572-1.267-2.443-2.027-3.885-3.374-8.515-7.972-8.515-7.972a24.784,24.784,0,0,1,2.058-2.643c.895-1.033,1.905-2.058,2.963-3.056a87.213,87.213,0,0,1,8.61-6.987c.148-.108.292-.213.436-.312,1.67-1.188,2.869-1.973,3.16-2.155a4.706,4.706,0,0,0,1.216,1.18c.3.262.646.55,1.045.851.113.085.231.173.352.262a16.043,16.043,0,0,0,8.361,3.137h.007c.125.009.252.012.38.014a24.978,24.978,0,0,0,3.276-.09h0c.179-.014.352-.035.532-.053h0a41.572,41.572,0,0,0,9.629-2.312h0c.259-.093.508-.189.755-.287.311-.121.62-.244.914-.366a27.877,27.877,0,0,0,2.817-1.357,16.456,16.456,0,0,1,1.439,6.9C240.475,743.026,240.475,743.36,240.469,743.7Z" transform="translate(-168.503 -734.813)" fill="#f3840e"/>
        <path id="Path_2986" data-name="Path 2986" d="M226.552,770.079c-2.231,1.725-3.822,2.831-3.822,2.831s-1.642-5.472-8.886-7.575c-.051-.015-.1-.031-.149-.043a.057.057,0,0,1-.019-.008c-1.761-.508-3.116-.86-4.157-1.107-3-.708-3.411-.522-3.445-.505l2.139-2.5a1.365,1.365,0,0,1,.175-.031C210.159,760.9,221.815,760.548,226.552,770.079Z" transform="translate(-170.004 -737.716)" fill="#b00011"/>
        <g id="Group_703" data-name="Group 703" transform="translate(37.632 2.031)">
          <path id="Path_2987" data-name="Path 2987" d="M245.7,744.034a56.916,56.916,0,0,1-5.93-5.9c.259-.093.508-.189.755-.287a56.855,56.855,0,0,0,5.17,5.181C245.7,743.362,245.7,743.7,245.7,744.034Z" transform="translate(-211.363 -737.18)" fill="#e01722"/>
          <path id="Path_2988" data-name="Path 2988" d="M214.039,737.359a7.754,7.754,0,0,1-3.207.439,21.741,21.741,0,0,1-3-.266c.148-.108.292-.213.436-.312a19.243,19.243,0,0,0,2.342.195,8.588,8.588,0,0,0,3.079-.318C213.8,737.182,213.918,737.27,214.039,737.359Z" transform="translate(-207.83 -737.097)" fill="#e01722"/>
          <path id="Path_2989" data-name="Path 2989" d="M228.363,740.774a20.232,20.232,0,0,1-3.55,3.561.187.187,0,0,1-.264-.016c-1.025-1.009-.864-2.235-.384-3.416h.007c.125.009.252.012.38.014a2.694,2.694,0,0,0,.159,3.015,19.788,19.788,0,0,0,3.116-3.1h0C228.01,740.813,228.184,740.793,228.363,740.774Z" transform="translate(-209.595 -737.504)" fill="#e01722"/>
        </g>
        <path id="Path_2990" data-name="Path 2990" d="M241.787,753.263c-2.623,6.57-17.4,16.865-17.4,16.865a15.625,15.625,0,0,0-3.314-4.215c4.018-4.134,16-16.47,16.328-16.944.368-.535,2.387-7.556,1.965-11.7a27.877,27.877,0,0,0,2.817-1.357C243.965,739.284,244.4,746.72,241.787,753.263Z" transform="translate(-171.663 -734.935)" fill="#c80103" opacity="0.4" style="mix-blend-mode: multiply;isolation: isolate"/>
        <g id="Group_704" data-name="Group 704" transform="translate(30.816 26.168)">
          <path id="Path_2991" data-name="Path 2991" d="M222.077,773.261c-.475.475-4.081,3.892-4.081,3.892s1.612,4.554,1.9,14.327-1.612,31.692-1.612,31.692a1.73,1.73,0,0,0-.834.083c-.791.195-1.822.582-1.822.582s-2.941-8.446-5.036-14.707-9.576-28.846-10.336-34.635,3.785-10.327,5.488-10.26c5.8.239,9.6,2.071,12.319,4.25C220.67,770.581,222.307,773.03,222.077,773.261Z" transform="translate(-200.167 -764.235)" fill="url(#linear-gradient-27)"/>
          <path id="Path_2992" data-name="Path 2992" d="M223.523,773.838c-.475.475-4.081,3.892-4.081,3.892s1.612,4.554,1.9,14.327-1.612,31.692-1.612,31.692a1.73,1.73,0,0,0-.834.083c.172-13.383-5.652-45.857-5.652-45.857.908.23,2.927-3.116,6.714-8.527C222.565,771.542,223.753,773.607,223.523,773.838Z" transform="translate(-201.613 -764.812)" fill="#e56b44" opacity="0.2" style="mix-blend-mode: multiply;isolation: isolate"/>
        </g>
        <path id="Path_2993" data-name="Path 2993" d="M201.508,775.093a9.9,9.9,0,0,0,3.415.8,8.536,8.536,0,0,1-2.4,1.134c-.632,0-1.582-1.933-1.582-1.933Z" transform="translate(-169.436 -739.268)" fill="#e56b44" opacity="0.2" style="mix-blend-mode: multiply;isolation: isolate"/>
        <path id="Path_2994" data-name="Path 2994" d="M187.011,761.4s1.63,1.9,2.7,1.87c0,0-1.644.662-2.277.345S187.011,761.4,187.011,761.4Z" transform="translate(-167.892 -737.754)" fill="#e56b44" opacity="0.2" style="mix-blend-mode: multiply;isolation: isolate"/>
        <g id="Group_705" data-name="Group 705" transform="translate(39.6 83.882)">
          <path id="Path_2995" data-name="Path 2995" d="M220.985,833.713c-4.554,3.542-10.942,3.668-10.942,3.668s.061-.18.182-.479c.619-1.559,2.835-6.46,6.521-7.6,2.669-.827,3.667,1.507,4.036,3.09A8.924,8.924,0,0,1,220.985,833.713Z" transform="translate(-210.043 -829.127)" fill="#57585a"/>
          <path id="Path_2996" data-name="Path 2996" d="M220.985,834.118c-4.554,3.542-10.942,3.668-10.942,3.668s.061-.18.182-.479a51.242,51.242,0,0,0,10.557-4.512A8.924,8.924,0,0,1,220.985,834.118Z" transform="translate(-210.043 -829.533)" fill="#57585a" opacity="0.4" style="mix-blend-mode: multiply;isolation: isolate"/>
        </g>
        <path id="Path_2997" data-name="Path 2997" d="M206.9,760.018l-2.325,2.312a.026.026,0,0,0-.012-.007c-.065-.05-.459-.338-1.077-.79a.054.054,0,0,1-.02-.012c-.736-.568-1.572-1.267-2.443-2.027-3.885-3.374-8.515-7.972-8.515-7.972a24.784,24.784,0,0,1,2.058-2.643C196.987,751.191,206.9,760.018,206.9,760.018Z" transform="translate(-168.503 -736.369)" fill="#b00011"/>
        <g id="Group_706" data-name="Group 706" transform="translate(0 73.738)">
          <path id="Path_2998" data-name="Path 2998" d="M178.865,820.644l-1.009,2.1-.573,1.192-11.766-.888s.409-.406,1.081-1c1.7-1.5,5.086-4.163,7.648-4.32A4.527,4.527,0,0,1,178.865,820.644Z" transform="translate(-165.518 -817.721)" fill="#57585a"/>
          <path id="Path_2999" data-name="Path 2999" d="M177.856,823.268l-.573,1.192-11.766-.888s.409-.406,1.081-1C170.14,822.182,175.845,822.961,177.856,823.268Z" transform="translate(-165.518 -818.246)" fill="#57585a" opacity="0.4" style="mix-blend-mode: multiply;isolation: isolate"/>
        </g>
        <path id="Path_3000" data-name="Path 3000" d="M220.768,748.353c-2.82,1.6-10.471,9.279-15.139,13.918a41.36,41.36,0,0,1-3.551-2.835C210.107,751.667,218.188,748.353,220.768,748.353Z" transform="translate(-169.562 -736.311)" fill="#c80103" opacity="0.4" style="mix-blend-mode: multiply;isolation: isolate"/>
      </g>
      <g id="Group_711" data-name="Group 711" transform="translate(27.703)">
        <path id="Path_3001" data-name="Path 3001" d="M238.321,662.592a5.334,5.334,0,0,1-.88,1.09,6.833,6.833,0,0,1-6.831,1.518,13.3,13.3,0,0,1-2.436,2.561,24.582,24.582,0,0,1-10.818,4.851,19.3,19.3,0,0,1-9.929-.55c-6.118-2.182-9.489-9.114-10.459-14.423a17.207,17.207,0,0,1-.3-2.782c-.1-5.313,2.342-5.788,2.342-5.788s-.084-1.813-.084-4.459c0,0,2.675-12.669,8.877-14.749,0,0,1.01,5.64,2.908,5.385,0,0,1.518-6.721,2.531-5.385s.254,9.056,1.9,8.3-.379-6.705.633-6.072,2.03,8.6,6.959,10.5,10.373,5.186,6.2,16.952c0,0,.5-.414,1.265-.973,1.739-1.27,4.828-3.3,6.327-2.823a3.664,3.664,0,0,1,1.887,2.642A6.706,6.706,0,0,1,238.321,662.592Z" transform="translate(-196.667 -618.62)" fill="url(#linear-gradient-28)"/>
        <path id="Path_3002" data-name="Path 3002" d="M253.059,638.269a17.449,17.449,0,0,0-2.315,1.6S251.859,639.17,253.059,638.269Z" transform="translate(-202.649 -619.569)" fill="#d63800"/>
        <path id="Path_3003" data-name="Path 3003" d="M238.358,662.592a5.334,5.334,0,0,1-.88,1.09,6.833,6.833,0,0,1-6.831,1.518,13.3,13.3,0,0,1-2.436,2.561,24.582,24.582,0,0,1-10.818,4.851,19.3,19.3,0,0,1-9.929-.55c-6.118-2.182-9.489-9.114-10.459-14.423,2.952,9.265,8.44,13.231,18.87,12.495,10.794-.763,11.925-9.395,12.306-14.012s-1.936-9.812-7.306-11.512c-3.29-1.043-4.235-4.33-4.474-6.726a1.288,1.288,0,0,1-1.124,1.033c-1.9.189-2.372-6.358-2.467-6.927s-.094,2.372-1.165,3.89-4.147-3.89-4.147-3.89c-3.8,2.372-4.746,5.6-6.35,9.157s-1.526,7.449-2.1,7.923c0,0-.084-1.813-.084-4.459,0,0,2.675-12.669,8.877-14.749,0,0,1.01,5.64,2.908,5.385,0,0,1.518-6.721,2.531-5.385s.254,9.056,1.9,8.3-.379-6.705.633-6.072,2.03,8.6,6.959,10.5,10.373,5.186,6.2,16.952c0,0,.5-.414,1.265-.973a5.563,5.563,0,0,1-.953.738,11.11,11.11,0,0,1,9.167-.919A6.706,6.706,0,0,1,238.358,662.592Z" transform="translate(-196.704 -618.62)" fill="#e56b44" opacity="0.2" style="mix-blend-mode: multiply;isolation: isolate"/>
        <path id="Path_3004" data-name="Path 3004" d="M224.034,660.933c1.355,2.448,6.313-1.465,5.409-3.391C228.38,655.272,222.38,657.943,224.034,660.933Z" transform="translate(-199.662 -621.607)" fill="#ff4949" opacity="0.5"/>
        <path id="Path_3005" data-name="Path 3005" d="M200.663,657.183c1-.814-1.665-5.229-2.718-3.737S198.788,658.709,200.663,657.183Z" transform="translate(-196.775 -621.214)" fill="#ff4949" opacity="0.5"/>
        <path id="Path_3006" data-name="Path 3006" d="M201.841,652.248c-.569-.378.19-3.6,2.275-3.225s3.132,4.267,2.468,4.555c-.479.21-1.026-3.179-2.8-3.083A2.006,2.006,0,0,0,201.841,652.248Z" transform="translate(-197.219 -620.755)" fill="#4f3a31"/>
        <path id="Path_3007" data-name="Path 3007" d="M218.92,654.826c-.456-.4.253-3.992,2.578-3.925s3.526,4.651,3.054,4.7-1.47-2.958-3.211-2.935S218.92,654.826,218.92,654.826Z" transform="translate(-199.114 -620.966)" fill="#4f3a31"/>
        <path id="Path_3008" data-name="Path 3008" d="M239.613,662.4c-.822,0-4.491,2.121-4.113,3.812,0,0,.857,1.3,1.743.546s-.477-1.856-.477-1.856Z" transform="translate(-200.959 -622.238)" fill="#d56731" opacity="0.7"/>
        <g id="Group_708" data-name="Group 708" transform="translate(9.943 27.13)">
          <path id="Path_3009" data-name="Path 3009" d="M212.72,659.133c-2.035,1.166-4.873-.883-4.873-1.773a.81.81,0,0,1,.148-.416c.567-.923,2.6-2.24,2.762-2.627.191-.455-.337-6.569-.337-6.569s.528.062,1.54,4.269a25.166,25.166,0,0,1,.783,6.2c0,.4-.023.6-.023.6S212.993,658.978,212.72,659.133Z" transform="translate(-207.847 -647.748)" fill="url(#linear-gradient-29)"/>
          <path id="Path_3010" data-name="Path 3010" d="M212.72,660.277c-2.035,1.166-4.873-.883-4.873-1.773a.81.81,0,0,1,.148-.416c1.014.875,3.207,1.873,4.748,1.268,0,.4-.023.6-.023.6S212.993,660.122,212.72,660.277Z" transform="translate(-207.847 -648.892)" fill="#e56b44" opacity="0.2" style="mix-blend-mode: multiply;isolation: isolate"/>
        </g>
        <g id="Group_709" data-name="Group 709" transform="translate(0.869)">
          <path id="Path_3011" data-name="Path 3011" d="M242.923,640.452c9.732,10.361-3.618,20.58-5.218,21.744a2.48,2.48,0,0,0,.724-.98,5.627,5.627,0,0,0,.36-2.615c-.011-.144-.023-.288-.041-.431-.221-1.765-1.018-3.459-2.119-3.8a2.385,2.385,0,0,0-1.267.037,6.506,6.506,0,0,0-.744.24,26.2,26.2,0,0,0-5.581,3.518,19.817,19.817,0,0,0,1.413-8.67c-.019-.2-.049-.406-.084-.6-.762-4.554-4.259-6.425-7.526-7.683a7.948,7.948,0,0,1-3.77-3.422c-.086-.144-.174-.287-.257-.433-1.644-2.884-2.288-6.243-2.931-6.646a.194.194,0,0,0-.147-.043c-.1.013-.14.141-.149.354-.045.953.578,3.567.224,4.952a1.61,1.61,0,0,1-.137.366.923.923,0,0,1-.379.421l-.046.022a.534.534,0,0,1-.231.054.09.09,0,0,1-.034,0c-1.294-.175-.677-7.081-1.632-8.345-.144-.191-.292-.215-.448-.127h0c-.96.551-2.079,5.512-2.079,5.512a.862.862,0,0,1-.4-.035.634.634,0,0,1-.117-.044,1.346,1.346,0,0,1-.361-.228c-1.332-1.154-2.035-5.078-2.035-5.078-3.1,1.041-5.321,4.729-6.763,8.152a41.418,41.418,0,0,0-2.111,6.567v.006a.122.122,0,0,0,0,.023,24.345,24.345,0,0,1-1.39-7.352c0-.212,0-.424,0-.642a15.035,15.035,0,0,1,.27-2.633c.9-4.506,5.417-7.306,6.4-7.867l.187-.1c-3.416.254-5.063-4.05-4.175-5.86a.7.7,0,0,1,.217-.278.666.666,0,0,1,.7-.03,2.172,2.172,0,0,1,.384.2c1.327.865,3.134,3.407,3.757,3.639.885.33,23.656-13.715,33.988,3.59,3.1,5.2,1.477,11.846,1.317,12.5,2.111-6.763,6.6-7.268,8.654-6.407a3.285,3.285,0,0,1,.447.236.581.581,0,0,1,.1.072c.824.713-1.017,2.38-2.7,3.644a17.5,17.5,0,0,0-2.3,1.588c.141-.087,1.186-.75,2.3-1.588.779-.421,1.5-.646,1.707-.173.494,1.138-4.964,3.413-4.964,3.413s6.081-.367,6.751.962a.5.5,0,0,1,.023.053C251.238,641.59,242.923,640.452,242.923,640.452Z" transform="translate(-197.644 -617.244)" fill="url(#linear-gradient-30)"/>
          <path id="Path_3012" data-name="Path 3012" d="M245.054,641.9c9.732,10.361-3.618,20.58-5.218,21.744a2.48,2.48,0,0,0,.724-.98c.972-2.2-.019-6.287-1.8-6.85-2.151-.679-7.592,3.8-7.592,3.8,4.177-11.766-1.27-15.057-6.2-16.952s-5.947-9.866-6.959-10.5,1.011,5.313-.633,6.072a.534.534,0,0,1-.231.054,12.477,12.477,0,0,1,.926-7.93c.79,3.986,7.656,10.722,11.094,12.147s5.2,8.919,5.2,8.919c10.248,1.514,9.6-9.535,9.6-9.535,1.176-1.616,6.654-.975,8.85-.291a.5.5,0,0,1,.023.053C253.37,643.04,245.054,641.9,245.054,641.9Z" transform="translate(-199.775 -618.694)" fill="#d63800" opacity="0.4" style="mix-blend-mode: multiply;isolation: isolate"/>
          <path id="Path_3013" data-name="Path 3013" d="M214.423,629.735c-.96.551-2.079,5.512-2.079,5.512a.861.861,0,0,1-.4-.035C210.346,630.75,212.639,629.391,214.423,629.735Z" transform="translate(-199.166 -618.62)" fill="#d63800" opacity="0.4" style="mix-blend-mode: multiply;isolation: isolate"/>
          <path id="Path_3014" data-name="Path 3014" d="M208.047,629.759c-3.1,1.041-5.321,4.729-6.763,8.152a41.418,41.418,0,0,0-2.111,6.567c-.653-3.174-.425-7.793,1.845-10.978C203.522,629.99,208.12,627.173,208.047,629.759Z" transform="translate(-197.778 -618.517)" fill="#d63800" opacity="0.4" style="mix-blend-mode: multiply;isolation: isolate"/>
          <path id="Path_3015" data-name="Path 3015" d="M204.8,624.794c-3.416.254-5.063-4.05-4.175-5.86a.7.7,0,0,1,.217-.278c.348,1.948,1.637,5.113,3.915,5.91C207.582,625.552,204.8,624.794,204.8,624.794Z" transform="translate(-197.947 -617.4)" fill="#d63800" opacity="0.4" style="mix-blend-mode: multiply;isolation: isolate"/>
        </g>
        <path id="Path_3016" data-name="Path 3016" d="M208.482,642.907c1.255.521-1.295-3.33-4.356-2.846s-3.33,2.846-3.33,2.846A10.848,10.848,0,0,1,208.482,642.907Z" transform="translate(-197.124 -619.763)" fill="#c72f00"/>
        <path id="Path_3017" data-name="Path 3017" d="M221.813,645.066c-.093-.948,2.626-2.737,5.362-1.282a4.355,4.355,0,0,1,2.445,5.029,6.6,6.6,0,0,0-3.44-3.132C223.02,644.273,221.813,645.066,221.813,645.066Z" transform="translate(-199.448 -620.119)" fill="#c72f00"/>
        <path id="Path_3018" data-name="Path 3018" d="M246.347,633.4a8.868,8.868,0,0,1,3.536-.945.581.581,0,0,0-.1-.072,3.285,3.285,0,0,0-.447-.236,9.6,9.6,0,0,0-3.374,1.029c-2.136,1.146-4.212,3.7-4.235,6.212a1.633,1.633,0,0,0-1.323-.649c1.19-3.564-.376-7.346-2.346-10.336a23.286,23.286,0,0,0-8.484-7.9c-6.338-3.227-13.091-1.032-18.883,2.71h0c-.259.167-.512.334-.762.509a8.762,8.762,0,0,1-2.585.141,7.8,7.8,0,0,1-3.321-.55c-1.68-.819-2.323-2.649-2.4-4.482a2.172,2.172,0,0,0-.384-.2,5.559,5.559,0,0,0,2.573,5,8.213,8.213,0,0,0,3.941.618c.406,0,.934.019,1.456-.025a56.575,56.575,0,0,0-6.849,5.8c-1.709,1.677-3.17,3.583-4.716,5.384,0,.218,0,.43,0,.642,1.337-1.518,2.593-3.12,3.934-4.634a43.3,43.3,0,0,1,8.5-7.356,1.714,1.714,0,0,0,.847-.546,38.627,38.627,0,0,1,3.818-2.111c4.908-2.352,10.778-2.9,15.6-.042a23.8,23.8,0,0,1,8.568,9.224,11.746,11.746,0,0,1,1.509,6.163c-.406-2.353-2.263-4.569-3.784-6.187a24,24,0,0,0-8.171-5.916c-3.884-1.587-9.037-2.763-13.1-1.179-3.412,1.331-4.782,4.557-5.226,7.984-.1.757-.157,1.518-.186,2.282a1.346,1.346,0,0,0,.361.228,17.317,17.317,0,0,1,1.149-6.218c1.913-4.555,7.071-4.972,11.364-4.293a25.259,25.259,0,0,1,7.129,2.273,20.017,20.017,0,0,1,3.707,2.593,27.049,27.049,0,0,1,4.228,4.289,9.13,9.13,0,0,1,2.236,5.04,3.679,3.679,0,0,1-.08.889,5.269,5.269,0,0,0-2.3-2.745c-1.435-1.036-2.982-1.969-4.468-2.934a28.768,28.768,0,0,0-10.551-4.432c-2.794-.5-6.677-.374-7.6,2.9-.46,1.639-.171,3.514-.149,5.19,0,.164,0,.325.009.487a.09.09,0,0,0,.034,0,.534.534,0,0,0,.231-.054l.046-.022c-.008-.264-.015-.53-.018-.8a4.784,4.784,0,0,0,.4.375,1.61,1.61,0,0,0,.137-.366,4.9,4.9,0,0,1-.516-.549c-.008-.015-.024-.02-.031-.031-.015-.971-.011-1.947.043-2.918a4.979,4.979,0,0,1,.28-1.454,3.1,3.1,0,0,1,.149-.354,3.665,3.665,0,0,1,2.352-1.961,10.554,10.554,0,0,1,5.069.012,28.223,28.223,0,0,1,9.636,4.114c1.315.834,2.6,1.72,3.92,2.554,1.127.718,2.57,1.642,2.941,3.01-.209-.057-.431.068-.767.094-1.309.107-2.622.19-3.931.288a47.236,47.236,0,0,1-7.695-.228c-2.184-.189-4.341-.551-6.512-.861-.63-.09-1.287-.189-1.935-.334.083.146.171.289.257.433.031.009.058.011.088.02,1.928.4,3.924.656,5.88.9a60.974,60.974,0,0,0,7.72.558c1.226,0,2.447-.122,3.662-.224.7-.056,1.394-.109,2.092-.151.247-.012,1.013-.209,1.174.015-.278.17-.547.371-.775.512-.479.293-.938.615-1.394.944a22.131,22.131,0,0,0-5.086,5.534c-.7,1.007-1.367,2.016-2.065,3,.035.194.065.395.084.6.236-.322.462-.644.683-.974a47.577,47.577,0,0,1,4.153-5.687c.546-.595,3.563-3.428,5.2-3.734a2.02,2.02,0,0,0,.136.562,7,7,0,0,1,.292,2.175,13.439,13.439,0,0,1-.505,4.124,17.164,17.164,0,0,1-3.1,5.671,27.235,27.235,0,0,1-2.69,3.014,6.506,6.506,0,0,1,.744-.24,29.427,29.427,0,0,0,2.079-2.33,20.234,20.234,0,0,0,3.227-5.647,12.388,12.388,0,0,0,.634-3.88,15.749,15.749,0,0,0-.073-1.787c-.045-.544-.326-1.143-.36-1.685a.677.677,0,0,1,.591.452.159.159,0,0,0,.244.076,13.732,13.732,0,0,1,2.669,5.821,12.661,12.661,0,0,1-.945,6.816,15.558,15.558,0,0,1-4.68,5.93c.018.143.03.287.041.431a16.878,16.878,0,0,0,5-6.242,12.208,12.208,0,0,0-1.7-12.856.146.146,0,0,0,.012-.054C242.015,637.021,244.186,634.562,246.347,633.4Z" transform="translate(-196.775 -617.396)" fill="#d63800" opacity="0.3" style="mix-blend-mode: screen;isolation: isolate"/>
        <g id="Group_710" data-name="Group 710" transform="translate(8.8 42.527)">
          <path id="Path_3019" data-name="Path 3019" d="M216.509,665.06a6.737,6.737,0,0,1-.512,1.563,5.637,5.637,0,0,1-5.127,3.486,3.794,3.794,0,0,1-3.318-2.3,10.314,10.314,0,0,1-.99-2.6A21.023,21.023,0,0,0,216.509,665.06Z" transform="translate(-206.561 -665.06)" fill="#994141"/>
          <path id="Path_3020" data-name="Path 3020" d="M216.509,665.06a6.737,6.737,0,0,1-.512,1.563c-.948.946-3.358,2.475-8.446,1.185a10.314,10.314,0,0,1-.99-2.6A21.023,21.023,0,0,0,216.509,665.06Z" transform="translate(-206.561 -665.06)" fill="#fff"/>
        </g>
      </g>
      <g id="Group_712" data-name="Group 712" transform="translate(63.968 80.341)">
        <path id="Path_3021" data-name="Path 3021" d="M255.859,725.242c-.071,8.964-6.395,29.927-9.259,36.28,0,0-.634,2.532-2.342,2.913,0,0,.877,5.916.117,6.63a.238.238,0,0,1-.052.042c-.684.379-1.367-3.548-1.614-5.139a.017.017,0,0,1,0-.012c-.026-.174-.049-.322-.063-.429.018.175.052.456.091.8l.021.259c0,.061.012.125.02.195.01.1.018.2.03.31,0,.064.012.131.019.2.182,2,.341,4.838-.193,4.953a.038.038,0,0,1-.016,0c-.452.05-1.013-1.893-1.393-3.776-.058-.291-.114-.584-.163-.865.01,1.818-.145,4.016-.669,4.532a.329.329,0,0,1-.244.115c-.454-.005-.7-.949-.834-2.144,0,.026-.007.051-.011.071-.084.592-.247,1-.525,1.02a.166.166,0,0,1-.053.005c-1.139-.1-1.518-7.876-1.139-8.541S241,761.141,241.855,760s2.657-14.9,2.278-24.765-2.087-21.144-2.087-21.144a68.9,68.9,0,0,1,10.046-6.517s.06.174.167.494a78.767,78.767,0,0,1,3.5,15.244c.014.148.029.294.044.444A14.446,14.446,0,0,1,255.859,725.242Z" transform="translate(-237.442 -707.577)" fill="url(#linear-gradient-31)"/>
        <path id="Path_3022" data-name="Path 3022" d="M245.1,715.856s3.4,7.907,2.383,21.413a102.462,102.462,0,0,1-4.865,24.253s-3.827,1.4-4.495,1.773c-.549.3.647,5.553.654,7.9a.166.166,0,0,1-.053.005c-1.139-.1-1.518-7.876-1.139-8.541S241,761.141,241.855,760s2.657-14.9,2.278-24.765-2.087-21.144-2.087-21.144a68.9,68.9,0,0,1,10.046-6.517s.06.174.167.494C250.662,710.106,246.3,714.47,245.1,715.856Z" transform="translate(-237.442 -707.577)" fill="#e56b44" opacity="0.2" style="mix-blend-mode: multiply;isolation: isolate"/>
        <path id="Path_3023" data-name="Path 3023" d="M257.919,727.184a1.983,1.983,0,0,1-1.859.047,2,2,0,0,0,1.074-2.1,2.219,2.219,0,0,1,.684.125c.014.148.029.294.044.444A14.447,14.447,0,0,1,257.919,727.184Z" transform="translate(-239.502 -709.519)" fill="#e56b44" opacity="0.2" style="mix-blend-mode: multiply;isolation: isolate"/>
        <path id="Path_3024" data-name="Path 3024" d="M245.025,778.1a.238.238,0,0,1-.052.042c-.684.379-1.367-3.548-1.614-5.139a.017.017,0,0,1,0-.012c-.087-1.218-.038-1.783.289-1.836C243.993,771.09,244.719,776.278,245.025,778.1Z" transform="translate(-238.092 -714.609)" fill="#e56b44" opacity="0.2" style="mix-blend-mode: multiply;isolation: isolate"/>
        <path id="Path_3025" data-name="Path 3025" d="M243.082,779.3a.038.038,0,0,1-.016,0c-.452.05-1.013-1.893-1.393-3.776.1-2.288-.38-4.225,0-4.1C242.03,771.553,242.842,777.425,243.082,779.3Z" transform="translate(-237.894 -714.64)" fill="#e56b44" opacity="0.2" style="mix-blend-mode: multiply;isolation: isolate"/>
        <path id="Path_3026" data-name="Path 3026" d="M240.611,779.226a.329.329,0,0,1-.244.115c-.454-.005-.7-.949-.834-2.144,0,.026-.007.051-.011.071-.133-2.429-.14-5.895.152-5.552C240,772.1,240.507,777.3,240.611,779.226Z" transform="translate(-237.663 -714.669)" fill="#e56b44" opacity="0.2" style="mix-blend-mode: multiply;isolation: isolate"/>
      </g>
    </g>
    <path id="Path_3027" data-name="Path 3027" d="M121.256,559.286c-.662-1.117,3.542,4.776,1.771,6.042s-2.783-2.753-1.075-3.02A10.141,10.141,0,0,0,121.256,559.286Z" transform="translate(-3.539 -4.287)" fill="#d56731" opacity="0.7"/>
    <path id="Path_3028" data-name="Path 3028" d="M135.136,563.184c.324-.525,4.27-5.207,7.769-3.909,3.37,1.252,2,7.666,1.465,7.665C140.357,566.932,135.136,563.184,135.136,563.184Z" transform="translate(-5.095 -4.276)" fill="#e57f5f" opacity="0.2" style="mix-blend-mode: multiply;isolation: isolate"/>
    <path id="Path_3029" data-name="Path 3029" d="M159.354,571.25a.571.571,0,0,0-.505-.217,8.484,8.484,0,0,0,.332,1.891c5.809,8.029,5.4,14.421-1.292,21.2-5.215,5.282-5.849,10.9-6.408,15.865a39.554,39.554,0,0,1-.872,5.475c-.462,1.777-1.3,2.8-2.493,3.027-2.065.4-5.275-1.617-7.631-4.8-3.354-4.526-8.6-14.172-8.655-14.269a.57.57,0,0,0-.192-.206c-.277-.18-.689-.43-1.207-.744-3.7-2.246-13.512-8.216-16.038-14.051-2.355-5.441-.04-13.355,4.707-17.56a12.441,12.441,0,0,1,2.225-1.588.569.569,0,1,0-.551-1,13.292,13.292,0,0,0-2.228,1.566c-5.2,4.483-7.762,13.111-5.2,19.03,2.672,6.167,12.356,12.057,16.492,14.572.436.265.8.484,1.061.652a163.733,163.733,0,0,0,8.669,14.273c2.772,3.74,5.885,5.305,8.034,5.305a3.826,3.826,0,0,0,.73-.068c1.141-.222,2.654-1.071,3.379-3.861a40.388,40.388,0,0,0,.9-5.632c.566-5.01,1.15-10.191,6.086-15.193C166.048,587.476,166.251,580.174,159.354,571.25Z" transform="translate(-2.574 -4.847)" fill="url(#linear-gradient-32)"/>
    <path id="Path_3030" data-name="Path 3030" d="M165.676,677.465c-.148-3.277-.286-6.373-.543-9.111a83.918,83.918,0,0,0-2.409-12.041q-.272-1.057-.566-2.136a251.938,251.938,0,0,0-9.186-27.47,33.358,33.358,0,0,1,1.073-3.291,20.277,20.277,0,0,0,1.476-5.924.717.717,0,0,0-.685-.754.736.736,0,0,0-.792.651,19.2,19.2,0,0,1-1.4,5.561c-.2.546-.407,1.109-.6,1.708a5.693,5.693,0,0,0-.872-1.424c-.632-.563-1.907-1.51-3.381-2.606-2.622-1.947-6.211-4.612-7.087-5.851a.763.763,0,0,0-1.028-.189.685.685,0,0,0-.2.978c1.005,1.424,4.4,3.949,7.4,6.175,1.447,1.075,2.7,2,3.277,2.521a12.456,12.456,0,0,1,1.275,2.537,26.469,26.469,0,0,0-.568,7.5c.255,5.182,1.238,13.615,2.283,21.36.079.585.158,1.169.237,1.744.749,5.439,1.5,10.376,2.024,13.375.166.968.343,2.163.547,3.545.167,1.138.353,2.4.567,3.74.544.251,1.087.506,1.62.761-.278-1.7-.513-3.292-.721-4.7-.2-1.391-.382-2.593-.552-3.577-.513-2.969-1.26-7.844-2-13.222-.084-.6-.167-1.21-.249-1.824-1.041-7.715-2.02-16.117-2.275-21.272a28.362,28.362,0,0,1,.136-4.875c1.234,3.147,2.847,7.622,4.627,13.118.855,2.644,2.288,7.2,3.606,12.031.191.7.38,1.4.563,2.1a82.78,82.78,0,0,1,2.385,11.868c.254,2.706.392,5.785.537,9.044.068,1.548.141,3.122.226,4.7q.783.48,1.535.949C165.846,681.259,165.759,679.341,165.676,677.465Z" transform="translate(-5.561 -10.406)" fill="url(#linear-gradient-33)"/>
    <path id="Path_3031" data-name="Path 3031" d="M155.468,568.816c-.041-1.535,1.591-6.447,5.871-6.686,3.558-.2,1.171,5.791,1.171,5.791s-6.316,1.272-7.042,1.015Z" transform="translate(-7.344 -4.617)" fill="#e57f5f" opacity="0.2" style="mix-blend-mode: multiply;isolation: isolate"/>
    <path id="Path_3032" data-name="Path 3032" d="M144.37,567.4a5.9,5.9,0,0,1-1.931.806,4.552,4.552,0,0,1-3.181-.565,7.119,7.119,0,0,1-.749-.483,11.366,11.366,0,0,1-3.373-3.514,7.355,7.355,0,0,1,4.772-.079C142.209,564.334,144.774,567.157,144.37,567.4Z" transform="translate(-5.095 -4.738)" fill="#fff"/>
    <path id="Path_3033" data-name="Path 3033" d="M123.05,564.573a.885.885,0,1,1-.886-.885A.885.885,0,0,1,123.05,564.573Z" transform="translate(-3.562 -4.79)" fill="#1f3d3f"/>
    <path id="Path_3034" data-name="Path 3034" d="M142.94,568.467a4.552,4.552,0,0,1-3.181-.565,1.9,1.9,0,0,1-.061-.229,1.875,1.875,0,0,1,3.68-.68A1.7,1.7,0,0,1,142.94,568.467Z" transform="translate(-5.596 -4.998)" fill="#225668"/>
    <path id="Path_3035" data-name="Path 3035" d="M161.829,569.352a3.645,3.645,0,0,1-2.018.557q-.627.017-1.148,0a8.011,8.011,0,0,1-3.084-.505s3.479-3.3,5.488-3.009A1.612,1.612,0,0,1,161.829,569.352Z" transform="translate(-7.356 -5.087)" fill="#fff"/>
    <path id="Path_3036" data-name="Path 3036" d="M162.231,569a1.9,1.9,0,0,1-.054.441,3.645,3.645,0,0,1-2.018.557q-.627.017-1.148,0a1.867,1.867,0,0,1-.286-1,1.755,1.755,0,1,1,3.507,0Z" transform="translate(-7.704 -5.176)" fill="#225668"/>
    <path id="Path_3037" data-name="Path 3037" d="M155.563,569.228c-.754-.538,1.64-3.666,4.692-4.363s3.1,2.791,2.25,3.349c0,0,.348-2.376-2.235-1.793C158.15,566.9,155.563,569.228,155.563,569.228Z" transform="translate(-7.339 -4.91)" fill="#72594e"/>
    <path id="Path_3038" data-name="Path 3038" d="M144.37,567.222c.542-.466.189-3.734-2.915-5.1s-5.952.211-6.319,1.341a6.65,6.65,0,0,1,5.452.525,14.51,14.51,0,0,1,3.782,3.232Z" transform="translate(-5.095 -4.558)" fill="#72594e"/>
    <g id="Group_718" data-name="Group 718" transform="translate(179.328 683.456)">
      <g id="Group_716" data-name="Group 716" transform="translate(19.795)">
        <g id="Group_715" data-name="Group 715">
          <g id="Group_714" data-name="Group 714">
            <path id="Path_3039" data-name="Path 3039" d="M224.344,709.5a5.744,5.744,0,0,1-1.123,3.421s0,.007-.008.01a5.766,5.766,0,1,1-4.638-9.195c.172,0,.347.008.512.022A5.762,5.762,0,0,1,224.344,709.5Z" transform="translate(-212.81 -703.737)" fill="#bfbfbf"/>
          </g>
          <path id="Path_3040" data-name="Path 3040" d="M222.216,710.525a3.277,3.277,0,0,1-.42,1.617,3.338,3.338,0,1,1-3.9-4.812,3.4,3.4,0,0,1,.98-.144A3.338,3.338,0,0,1,222.216,710.525Z" transform="translate(-213.112 -704.118)" fill="#999"/>
        </g>
        <path id="Path_3041" data-name="Path 3041" d="M224,712.924c2.432-3.751-1.405-7.856-4.134-9.162A5.766,5.766,0,0,1,224,712.924Z" transform="translate(-213.591 -703.74)" fill="#bfbfbf" opacity="0.5" style="mix-blend-mode: screen;isolation: isolate"/>
        <path id="Path_3042" data-name="Path 3042" d="M221.8,712.159a3.338,3.338,0,1,1-3.9-4.812c-1.07,1.3-1.207,3.227.042,4.119A4.585,4.585,0,0,0,221.8,712.159Z" transform="translate(-213.112 -704.136)" fill="#999" opacity="0.4" style="mix-blend-mode: multiply;isolation: isolate"/>
      </g>
      <g id="Group_717" data-name="Group 717" transform="translate(0 0.694)">
        <path id="Path_3043" data-name="Path 3043" d="M212.476,714.507c.273.047,1.067.172,2,.305a.031.031,0,0,0,.014,0c1.375.2,3.041.442,3.709.494.3.026.462.159.456.33-.039.525-1.7,1.424-5.947.725.093.02.79.179,1.564.406l.007,0a6.822,6.822,0,0,1,2.061.865h0c.213.185.228.37-.1.533-1.424.7-10.274,1.837-15.53-4.815a51.729,51.729,0,0,1-8.636-1.837l-.516-2.376-1-4.624a74.731,74.731,0,0,0,8.256,3.412s8.171-2.682,11.778-3.031c3.327-.322,4.784-.3,4.914.462a.692.692,0,0,1,.008.207c-.1.962-3.883.96-5.022,2.1a.488.488,0,0,0-.166.482v0c.247,1.008,3.921,2.03,6.613,2.259a3.212,3.212,0,0,1,1.685.514l.008,0c.587.5-.123,1.166-2.734,1.095h-.011a24.869,24.869,0,0,1-3.5-.387,46.8,46.8,0,0,0,5,1.049c1.684.2,1.947.44,1.519.942a3.238,3.238,0,0,1-.282.282C217.862,714.6,215.653,714.925,212.476,714.507Z" transform="translate(-190.553 -704.517)" fill="url(#linear-gradient-34)"/>
        <path id="Path_3044" data-name="Path 3044" d="M216.363,718.745c-1.424.7-10.274,1.837-15.53-4.815a51.729,51.729,0,0,1-8.636-1.837l-.516-2.376c2.2,1.12,7.056,2.566,8.865,2.474,0,0,0,1.712,5.819,4.044,5.006,2.006,8.744,2.244,10.1,1.978,0,0,0,0,0,0C216.679,718.4,216.693,718.582,216.363,718.745Z" transform="translate(-190.678 -705.092)" fill="#e56b44" opacity="0.2" style="mix-blend-mode: multiply;isolation: isolate"/>
        <path id="Path_3045" data-name="Path 3045" d="M217.856,705.464a.692.692,0,0,1,.008.207c-.1.962-3.883.96-5.022,2.1a.488.488,0,0,0-.166.482c-.508-.111-.8-.322-.835-.567C211.749,707.124,215.29,706.046,217.856,705.464Z" transform="translate(-192.907 -704.622)" fill="#e56b44" opacity="0.2" style="mix-blend-mode: multiply;isolation: isolate"/>
        <path id="Path_3046" data-name="Path 3046" d="M218.393,712.674h-.011a13.365,13.365,0,0,1-4.407-1.1c-1-.582-.8-1.149-.8-1.149a13.04,13.04,0,0,0,5.789,1.139,17.429,17.429,0,0,1,2.159.014l.008,0C221.714,712.083,221,712.745,218.393,712.674Z" transform="translate(-193.053 -705.17)" fill="#e56b44" opacity="0.2" style="mix-blend-mode: multiply;isolation: isolate"/>
        <path id="Path_3047" data-name="Path 3047" d="M221.4,714.686a3.238,3.238,0,0,1-.282.282c-.751.695-2.96,1.017-6.137.6.273.047,1.067.172,2,.305a13.62,13.62,0,0,1-2.1-.32,3.312,3.312,0,0,1-1.722-1.443,13,13,0,0,0,5.138.657C219.482,714.7,220.636,714.658,221.4,714.686Z" transform="translate(-193.053 -705.578)" fill="#e56b44" opacity="0.2" style="mix-blend-mode: multiply;isolation: isolate"/>
        <path id="Path_3048" data-name="Path 3048" d="M221.193,716.989c-.039.525-1.7,1.424-5.947.725.093.02.79.179,1.564.406a11.929,11.929,0,0,1-2.126-.439c-1.329-.4-1.15-.949-1.15-.949,1.708.572,2.907.15,5.211.253C219.713,717.027,220.582,716.994,221.193,716.989Z" transform="translate(-193.094 -705.868)" fill="#e56b44" opacity="0.2" style="mix-blend-mode: multiply;isolation: isolate"/>
      </g>
    </g>
  </g>
</svg>
