<svg xmlns="http://www.w3.org/2000/svg" xmlns:xlink="http://www.w3.org/1999/xlink" width="228.543" height="382.939" viewBox="0 0 228.543 382.939">
  <defs>
    <linearGradient id="linear-gradient" x1="-2.425" y1="5.338" x2="4.467" y2="-6.581" gradientUnits="objectBoundingBox">
      <stop offset="0" stop-color="#f4bb89"/>
      <stop offset="1" stop-color="#f49168"/>
    </linearGradient>
    <linearGradient id="linear-gradient-2" x1="-0.031" y1="0.202" x2="0.722" y2="0.554" gradientUnits="objectBoundingBox">
      <stop offset="0" stop-color="#d2d2d2"/>
      <stop offset="1" stop-color="#c4c2c0"/>
    </linearGradient>
    <linearGradient id="linear-gradient-3" x1="-0.215" y1="0.528" x2="1.304" y2="0.482" xlink:href="#linear-gradient"/>
    <linearGradient id="linear-gradient-4" y1="0.5" x2="1" y2="0.5" gradientUnits="objectBoundingBox">
      <stop offset="0" stop-color="#f4b47d"/>
      <stop offset="1" stop-color="#f48558"/>
    </linearGradient>
    <linearGradient id="linear-gradient-5" x1="0.121" y1="0.139" x2="1.18" y2="0.71" xlink:href="#linear-gradient"/>
    <linearGradient id="linear-gradient-6" x1="0.215" y1="0.148" x2="0.689" y2="0.851" gradientUnits="objectBoundingBox">
      <stop offset="0" stop-color="#addce4"/>
      <stop offset="1" stop-color="#a2d8d4"/>
    </linearGradient>
    <linearGradient id="linear-gradient-7" x1="0" y1="0.5" x2="1" y2="0.5" xlink:href="#linear-gradient"/>
    <linearGradient id="linear-gradient-8" x1="0.876" y1="0.994" x2="0.052" y2="0.216" gradientUnits="objectBoundingBox">
      <stop offset="0" stop-color="#6c2e00"/>
      <stop offset="1" stop-color="#85420a"/>
    </linearGradient>
    <linearGradient id="linear-gradient-9" x1="0.498" y1="0.187" x2="0.555" y2="0.9" xlink:href="#linear-gradient-6"/>
    <linearGradient id="linear-gradient-10" x1="0" y1="0.5" x2="1" y2="0.5" xlink:href="#linear-gradient-6"/>
    <linearGradient id="linear-gradient-11" x1="-0.235" y1="0.294" x2="0.463" y2="0.498" xlink:href="#linear-gradient-4"/>
    <linearGradient id="linear-gradient-12" x1="0" y1="0.5" x2="1" y2="0.5" xlink:href="#linear-gradient-6"/>
    <linearGradient id="linear-gradient-13" x1="0" y1="0.5" x2="1" y2="0.5" xlink:href="#linear-gradient-6"/>
    <linearGradient id="linear-gradient-14" x1="0.533" y1="-0.001" x2="0.483" y2="1.157" gradientUnits="objectBoundingBox">
      <stop offset="0" stop-color="#f4aa8a"/>
      <stop offset="0.343" stop-color="#f48c6f"/>
      <stop offset="0.995" stop-color="#f45941"/>
    </linearGradient>
    <linearGradient id="linear-gradient-15" x1="-0.641" y1="1.889" x2="0.545" y2="0.484" gradientUnits="objectBoundingBox">
      <stop offset="0" stop-color="#ed9300"/>
      <stop offset="1" stop-color="#efaa00"/>
    </linearGradient>
    <linearGradient id="linear-gradient-16" x1="0.375" y1="0.134" x2="0.549" y2="0.732" gradientUnits="objectBoundingBox">
      <stop offset="0" stop-color="#153e42"/>
      <stop offset="1" stop-color="#1f4d55"/>
    </linearGradient>
    <linearGradient id="linear-gradient-17" x1="0.396" y1="1.215" x2="0.58" y2="0.018" xlink:href="#linear-gradient"/>
    <linearGradient id="linear-gradient-18" x1="0" y1="0.5" x2="1" y2="0.5" xlink:href="#linear-gradient-15"/>
    <linearGradient id="linear-gradient-19" x1="0.5" y1="-0.046" x2="0.5" y2="1.302" gradientUnits="objectBoundingBox">
      <stop offset="0.005" stop-color="#00a0a3"/>
      <stop offset="1" stop-color="#00cbd2"/>
    </linearGradient>
    <linearGradient id="linear-gradient-20" x1="0.586" y1="0.035" x2="0.371" y2="1.063" xlink:href="#linear-gradient-4"/>
    <linearGradient id="linear-gradient-21" x1="1.289" y1="0.573" x2="0.202" y2="0.447" xlink:href="#linear-gradient-4"/>
    <linearGradient id="linear-gradient-22" x1="0.44" y1="-0.501" x2="0.528" y2="1.335" xlink:href="#linear-gradient-14"/>
    <linearGradient id="linear-gradient-23" x1="0.58" y1="0.242" x2="0.152" y2="1.856" xlink:href="#linear-gradient-15"/>
    <linearGradient id="linear-gradient-24" x1="0.534" y1="0.231" x2="0.051" y2="1.917" xlink:href="#linear-gradient-15"/>
    <linearGradient id="linear-gradient-25" x1="0.638" y1="0.054" x2="0.414" y2="0.68" xlink:href="#linear-gradient"/>
    <linearGradient id="linear-gradient-26" x1="0.561" y1="0.073" x2="0.343" y2="0.685" xlink:href="#linear-gradient"/>
    <linearGradient id="linear-gradient-27" x1="0.995" y1="0.916" x2="0.11" y2="0.269" xlink:href="#linear-gradient-8"/>
    <linearGradient id="linear-gradient-28" x1="0.436" y1="0.961" x2="0.55" y2="-0.048" gradientUnits="objectBoundingBox">
      <stop offset="0" stop-color="#153e42"/>
      <stop offset="1" stop-color="#264c49"/>
    </linearGradient>
  </defs>
  <g id="Group_811" data-name="Group 811" transform="translate(-677.201 -514.765)">
    <path id="Path_3209" data-name="Path 3209" d="M677.2,961.025c0,4.814,59.853,16.713,110.731,15.975,95.713-1.394,117.813-13.05,117.813-15.975,0-4.116-83.868-7.546-113.077-7.517C774.41,953.525,677.2,954.941,677.2,961.025Z" transform="translate(0 -79.329)" fill="#ddcec4" opacity="0.7"/>
    <path id="Path_3210" data-name="Path 3210" d="M859.825,631.606a25.773,25.773,0,0,1-9.176-.813c.057.663.17,1.754.347,2.9.054.339.111.682.175,1.021.092.481.2.954.315,1.388a4.468,4.468,0,0,0,.9,1.943c.472.433,5.561,4.595,7.691,4.472,1.032-.058,2.952-1.393,4.753-3.154,1.914-1.871,3.7-4.225,4.122-6.037l.1-.643.23-1.493.494-3.214A18.524,18.524,0,0,1,859.825,631.606Z" transform="translate(-31.361 -20.47)" fill="url(#linear-gradient)"/>
    <g id="Group_769" data-name="Group 769" transform="translate(704.374 514.765)">
      <g id="Group_763" data-name="Group 763" transform="translate(0 348.406)">
        <path id="Path_3211" data-name="Path 3211" d="M769.35,960.114a1.773,1.773,0,0,0-1.5-.831H712.206a1.767,1.767,0,0,0-1.5.842h0l3.765-10.246,3.6-9.81,43.406.366,1.459,3.646Z" transform="translate(-710.431 -940.07)" fill="#d2d2d2"/>
        <path id="Path_3212" data-name="Path 3212" d="M763.756,944.082c-13.261.55-40.193,4.537-48.464,5.8l3.6-9.81,43.406.366Z" transform="translate(-711.261 -940.07)" fill="#d2d2d2" opacity="0.4" style="mix-blend-mode: multiply;isolation: isolate"/>
        <g id="Group_761" data-name="Group 761" transform="translate(0 19.213)">
          <path id="Path_3213" data-name="Path 3213" d="M769.568,965.3V970a1.775,1.775,0,0,1-1.774,1.775H712.147A1.775,1.775,0,0,1,710.372,970v-4.7a1.74,1.74,0,0,1,.27-.934,1.768,1.768,0,0,1,1.5-.842h55.648a1.789,1.789,0,0,1,1.743,1.454A1.665,1.665,0,0,1,769.568,965.3Z" transform="translate(-710.372 -963.524)" fill="#b8b8b8"/>
          <path id="Path_3214" data-name="Path 3214" d="M779.974,965.3V970a1.775,1.775,0,0,1-1.774,1.775H767.922c1.679-2.656,3.911-6.041,5.339-8.252H778.2a1.788,1.788,0,0,1,1.743,1.454A1.66,1.66,0,0,1,779.974,965.3Z" transform="translate(-720.778 -963.524)" fill="#d2d2d2" style="mix-blend-mode: multiply;isolation: isolate"/>
          <path id="Path_3215" data-name="Path 3215" d="M769.538,964.978c-9.584.19-52.807.349-59.166.782v-.46a1.74,1.74,0,0,1,.27-.934,1.768,1.768,0,0,1,1.5-.842h55.648a1.789,1.789,0,0,1,1.743,1.454Z" transform="translate(-710.372 -963.524)" fill="#d2d2d2" opacity="0.7" style="mix-blend-mode: screen;isolation: isolate"/>
        </g>
        <g id="Group_762" data-name="Group 762" transform="translate(9.05 5.485)" opacity="0.8">
          <path id="Path_3216" data-name="Path 3216" d="M762.545,955.919c.029.35-9.535.288-19.444.128-10.64-.17-21.681-.451-21.681-.451l3.078-8.83,34.2.541s.926,1.923,1.87,3.961A40.541,40.541,0,0,1,762.545,955.919Z" transform="translate(-721.419 -946.766)" fill="#ffb900"/>
          <path id="Path_3217" data-name="Path 3217" d="M767.33,956.912c.029.35-9.535.288-19.444.128,5.6-1.52,13.739-3.735,17.467-4.779A40.54,40.54,0,0,1,767.33,956.912Z" transform="translate(-726.204 -947.759)" fill="#ffb900" opacity="0.3" style="mix-blend-mode: screen;isolation: isolate"/>
        </g>
      </g>
      <g id="Group_768" data-name="Group 768" transform="translate(20.057)">
        <g id="Group_764" data-name="Group 764">
          <path id="Path_3218" data-name="Path 3218" d="M749,514.765V865.25H737.854l-.018-1.934V863.3l-.017-2.364v0l-1.634-190.76-.011-.906-.074-8.993-.006-.9-.079-9-.006-.9-.078-8.992-.007-.9-.078-8.994-.008-.9-.079-8.994-.006-.9-.074-9-.01-.9-.075-8.992-.01-.9-.726-85.229Z" transform="translate(-734.856 -514.765)" fill="url(#linear-gradient-2)"/>
          <path id="Path_3219" data-name="Path 3219" d="M750.892,514.766V865.25h-5.581c.277-22.883,3.618-304,1.058-350.484Z" transform="translate(-736.747 -514.765)" fill="#d2d2d2" opacity="0.4" style="mix-blend-mode: multiply;isolation: isolate"/>
        </g>
        <g id="Group_767" data-name="Group 767" transform="translate(0.387 346.048)">
          <g id="Group_765" data-name="Group 765" transform="translate(0.827)">
            <path id="Path_3220" data-name="Path 3220" d="M750.86,939.915l-5.754-.1-8.767-.153,1.749-2.351,6.037-.063,5.146-.058Z" transform="translate(-736.339 -937.191)" fill="#e0e0e0"/>
            <path id="Path_3221" data-name="Path 3221" d="M752.579,939.915l-5.754-.1-.982-2.567,5.146-.058Z" transform="translate(-738.057 -937.191)" fill="#d2d2d2" opacity="0.4" style="mix-blend-mode: multiply;isolation: isolate"/>
          </g>
          <g id="Group_766" data-name="Group 766" transform="translate(0 2.472)">
            <path id="Path_3222" data-name="Path 3222" d="M751.647,942.175H735.329l.827-1.966,8.688.149,5.834.1Z" transform="translate(-735.329 -940.209)" fill="#b8b8b8"/>
            <path id="Path_3223" data-name="Path 3223" d="M753.747,942.208h-6.565c-.07-.639-.159-1.344-.238-1.817l5.833.1Z" transform="translate(-737.429 -940.242)" fill="#d2d2d2" opacity="0.4" style="mix-blend-mode: multiply;isolation: isolate"/>
          </g>
        </g>
      </g>
    </g>
    <g id="Group_770" data-name="Group 770" transform="translate(733.959 800.638)">
      <path id="Path_3224" data-name="Path 3224" d="M760.032,919.06a64.031,64.031,0,0,1-3.86,9.4,7.764,7.764,0,0,1-2.285.693l-.378.074s-2.781-31.537-2.9-35.559-.712-4.026-1.538-8.521c-.441-2.4-1.254-8.308-1.918-13.3-.089-.666-.174-1.321-.26-1.946-.032-.269-.068-.535-.1-.794-.022-.173-.043-.342-.065-.5-.088-.669-.17-1.291-.241-1.847l17.236-3.025c.032,1.012.053,1.618.053,1.618s-.048,1.564-.11,4.11c-.068,2.871-.143,6.991-.166,11.542v0c-.034,5.535.014,11.706.245,17.034C764.057,905.178,762.057,913.092,760.032,919.06Z" transform="translate(-746.486 -863.736)" fill="url(#linear-gradient-3)"/>
      <path id="Path_3225" data-name="Path 3225" d="M757.7,891.993a5.134,5.134,0,0,0,3.1-.868s.773,2.03-1.09,2.287A1.621,1.621,0,0,1,757.7,891.993Z" transform="translate(-748.513 -868.688)" fill="#e55b30" opacity="0.3" style="mix-blend-mode: multiply;isolation: isolate"/>
      <path id="Path_3226" data-name="Path 3226" d="M749.333,871.7a82.5,82.5,0,0,0,2.041,18.421s4.7,9.149,3.756,23.55c-.6,9.059-1.016,13.462-1.244,15.486l-.378.074s-2.781-31.537-2.9-35.559-.712-4.026-1.538-8.521c-.441-2.4-1.254-8.308-1.918-13.3-.089-.666-.174-1.321-.26-1.946-.032-.269-.068-.535-.1-.794-.022-.173-.043-.342-.065-.5-.088-.669-.17-1.291-.241-1.847l17.236-3.025c.032,1.012.053,1.618.053,1.618s-.048,1.564-.11,4.11C760.016,870.709,753.189,871.395,749.333,871.7Z" transform="translate(-746.486 -863.736)" fill="#e55b30" opacity="0.2" style="mix-blend-mode: multiply;isolation: isolate"/>
      <path id="Path_3227" data-name="Path 3227" d="M763.022,922.873a174.306,174.306,0,0,0,1.793-20.542,112.383,112.383,0,0,1,1.674-17.507c-.034,5.535.014,11.706.245,17.034C767.047,908.991,765.047,916.9,763.022,922.873Z" transform="translate(-749.476 -867.549)" fill="#e55b30" opacity="0.2" style="mix-blend-mode: multiply;isolation: isolate"/>
    </g>
    <path id="Path_3228" data-name="Path 3228" d="M761.4,714.023a8.109,8.109,0,0,0-.464,3.383c0,.75-1.094.531-1.982.518a14.976,14.976,0,0,1-3.45-.536h0c-.843-.215-1.583-.461-2.1-.645-.456-.161-.732-.272-.732-.272.34-.017.614-.392.69-.882a2.04,2.04,0,0,0-1.9-2.327c-3.078-.53-5.51.842-6.87.013-.009,0-.012-.009-.02-.013-1.356-.855.579-2.289,5.8-2.808s7.308,2.231,8.638,2.808c.015.01.029.013.043.021.189.082.365.153.531.221C761.35,714.231,761.4,714.023,761.4,714.023Z" transform="translate(-12.105 -35.371)" fill="url(#linear-gradient-4)"/>
    <g id="Group_771" data-name="Group 771" transform="translate(712.913 802.554)">
      <path id="Path_3229" data-name="Path 3229" d="M737.717,867.32c-.022.166-.047.343-.073.528-.179,1.221-.4,2.766-.642,4.516-.015.1-.029.192-.04.288-.116.831-.236,1.708-.356,2.612-.857,6.353-1.8,14.255-2,19.538-.356,9.587-1.066,34.083-1.066,34.083a1.78,1.78,0,0,0-1.371-.544,1.445,1.445,0,0,0-.936.544s-7.157-15.741-8.781-24.851a55.765,55.765,0,0,1-.034-18.462c.2-1.118-.53-8.465-1.189-15.072-.11-1.092-.22-2.164-.32-3.182-.038-.392-.074-.808-.109-1.242Z" transform="translate(-720.795 -866.075)" fill="url(#linear-gradient-5)"/>
      <path id="Path_3230" data-name="Path 3230" d="M728.729,891.643s2.219,1.6,3.905,0c0,0-.179,2.573-1.953,2.4S728.729,891.643,728.729,891.643Z" transform="translate(-722.229 -870.698)" fill="#e55b30" opacity="0.3" style="mix-blend-mode: multiply;isolation: isolate"/>
      <path id="Path_3231" data-name="Path 3231" d="M737.717,867.32c-.022.169-.047.343-.073.528-.179,1.221-.4,2.766-.642,4.516q-.022.144-.042.288h0c-.116.831-.236,1.708-.356,2.612-.857,6.353-1.8,14.255-2,19.538-.356,9.587-1.066,34.083-1.066,34.083a1.78,1.78,0,0,0-1.371-.544c-2.076-12.581-.4-38.154-.4-38.154,2.35-4.924.895-11.641.128-16.063-3.824-1.109-8.112-2.665-10.665-3.624-.11-1.092-.22-2.164-.32-3.182-.038-.392-.074-.808-.109-1.242Z" transform="translate(-720.795 -866.075)" fill="#e55b30" opacity="0.2" style="mix-blend-mode: multiply;isolation: isolate"/>
    </g>
    <path id="Path_3232" data-name="Path 3232" d="M869.772,628.36l-.824,5.236c-.425,1.771-2.209,4.075-4.122,5.909-3.781-3.481-9.892-4.447-13.83-5.551-.177-1.126-.29-2.192-.347-2.839a26.33,26.33,0,0,0,9.176.795A18.775,18.775,0,0,0,869.772,628.36Z" transform="translate(-31.361 -20.539)" fill="#e56b44" opacity="0.2" style="mix-blend-mode: multiply;isolation: isolate"/>
    <path id="Path_3233" data-name="Path 3233" d="M897.937,872.136c0,17.042-4.615,47.4-4.615,47.4a16.429,16.429,0,0,0-2.857-2.513c-.777-.589-1.4-1.037-1.4-1.037s-3.9-16.331-8.343-32.484-10.649-34.261-15.266-54.143S858,782.847,858,782.847c.05,1.441-.242,5.035-.687,9.515-1.211,12.082-3.571,30.6-3.571,30.6,1.6,3.55,5.857,11.181,7.277,27.87s-3.549,65.147-3.549,65.147h-3.2s-12.957-52.544-17.219-71.537a221.4,221.4,0,0,1-4.637-31.463c-.5-6.337-.723-12.205-.865-17.531-.339-12.785,4.836-41.865,5.448-48.745.026-.284.043-.532.054-.739a28.728,28.728,0,0,0,4.35,1.547,69.881,69.881,0,0,0,13.756,2.339,86.057,86.057,0,0,0,9.647.17,137.369,137.369,0,0,0,16.566-1.638c2.225-.356,3.55-.625,3.55-.625.886,8.874,4.32,53.194,4.32,62.424s-.71,21.833-.71,21.833C892.257,839.119,897.937,855.1,897.937,872.136Z" transform="translate(-27.905 -41.804)" fill="#34abf5"/>
    <path id="Path_3234" data-name="Path 3234" d="M905.281,872.532c0,17.042-4.615,47.4-4.615,47.4a16.429,16.429,0,0,0-2.857-2.513c.052-5.26.454-14.831,1.792-32.22,2.839-36.922-8.349-48.343-8.349-48.343,3.246-16.391-12.264-18.383-12.264-18.383-7.044-15.881-6.446-53.446-6.841-68.05a137.382,137.382,0,0,0,16.566-1.638c2.225-.355,3.55-.625,3.55-.625.886,8.874,4.32,53.194,4.32,62.424s-.71,21.833-.71,21.833C899.6,839.515,905.281,855.492,905.281,872.532Z" transform="translate(-35.248 -42.2)" fill="#814700" opacity="0.2" style="mix-blend-mode: multiply;isolation: isolate"/>
    <path id="Path_3235" data-name="Path 3235" d="M882.416,748.366v3.868c-25.325,8.643-45.087-2.484-45.087-2.484l.769-3.8c.025-.284-.011.207,0,0,0,0,5.94,2.936,18.106,3.886C866.159,750.616,876.976,749.233,882.416,748.366Z" transform="translate(-28.953 -41.784)" fill="#753d00"/>
    <path id="Path_3236" data-name="Path 3236" d="M913.08,794.194a69.568,69.568,0,0,1-11.716,3.727c-7.455,1.774-20.236,0-20.236,0s0-4.083-1.6-19.882c-.065-.621-.129-1.284-.2-1.991-.961-9.884-2.458-27.592-3.6-45.042-.838-12.888-1.483-25.633-1.576-34.978-.038-4.129-.066-8.375-.087-12.579v0c-.077-18.809.049-36.716.084-38.859,0-.037,0-.068,0-.094.06-2.9,0-5.624,0-5.624a26.908,26.908,0,0,1,8.83,1.986A28.883,28.883,0,0,1,896.2,651.366c10.822,15.589,17.368,45.057,17.763,55.136.614,15.688-4.768,35.378-6.216,40.355-.221.764-.351,1.183-.351,1.183C907.221,754.431,913.08,794.194,913.08,794.194Z" transform="translate(-35.592 -22.439)" fill="url(#linear-gradient-6)"/>
    <path id="Path_3237" data-name="Path 3237" d="M875.735,654.49l6.518,8.166c-3.514,5.1-8.112,20.492-8.18,20.79-.066-16.562.02-32.42.065-37.439v0c.012-.776.019-1.291.022-1.511.016-.761.025-1.511.025-2.2.007-1.941-.025-3.421-.025-3.421l7.383,6.182Z" transform="translate(-35.592 -22.439)" fill="#d9f7f6" opacity="0.5"/>
    <path id="Path_3238" data-name="Path 3238" d="M882.279,596.108a9.292,9.292,0,0,1-6.746,4.376,21.554,21.554,0,0,1-8.884,16.421,18.751,18.751,0,0,1-9.948,3.55,26.3,26.3,0,0,1-9.171-.795,15.658,15.658,0,0,1-7.561-5.305c-.611-.7-1.212-1.463-1.833-2.271-4.41-5.763-6.892-14.522-4.678-20.553.266-.387,4.37-6.578,3.659-18.067-.014-.22-.029-.443-.047-.67,0,0,8.88,1.774,14.8-1.893s9.616-7.164,11.877-5.446,7.531,6.01,9.188,12.66a123.544,123.544,0,0,1,2.482,14.119s4.324-7.582,7.007-7.014C884.425,586.141,884.325,592.627,882.279,596.108Z" transform="translate(-28.104 -9.084)" fill="url(#linear-gradient-7)"/>
    <path id="Path_3239" data-name="Path 3239" d="M882.183,582.394h-.016c-2.683-.569-7.007,7.014-7.007,7.014a123.508,123.508,0,0,0-2.482-14.12c-1.657-6.649-6.927-10.943-9.188-12.66s-5.962,1.776-11.877,5.446-14.8,1.893-14.8,1.893c.916,11.918-3.345,18.344-3.613,18.737a.066.066,0,0,0-.015.02c-1.319-4.67-2.368-15.982-1.81-20.207.034-.273.078-.543.128-.808.017-.127.042-.252.071-.376.038-.2.08-.4.127-.6.032-.143.067-.287.106-.431.029-.117.06-.23.094-.344a19.171,19.171,0,0,1,1.4-3.572c.061-.116.121-.23.185-.343,3.407-6.337,10.445-11.138,19.571-12.43a23.427,23.427,0,0,1,8.909.443c.278.069.55.138.824.218a24.018,24.018,0,0,1,2.882,1c.184.075.363.152.544.231.546.242,1.081.5,1.6.777.118.061.231.121.346.183a28.972,28.972,0,0,1,10.784,10.279C883.617,570.561,882.183,582.394,882.183,582.394Z" transform="translate(-27.849 -6.259)" fill="url(#linear-gradient-8)"/>
    <path id="Path_3240" data-name="Path 3240" d="M872.042,601.388c1.307,1.81,5.616-.847,4-2.889S870.92,599.834,872.042,601.388Z" transform="translate(-35.19 -15.025)" fill="#ff4949" opacity="0.3"/>
    <path id="Path_3241" data-name="Path 3241" d="M837.1,601.423c1.175-1.222-1.734-4.257-3.123-2.788S835.93,602.643,837.1,601.423Z" transform="translate(-28.287 -15.094)" fill="#ff4949" opacity="0.3"/>
    <path id="Path_3242" data-name="Path 3242" d="M890.239,594.3c-1.063,1.067-3.725,2.67-4.851,5.522-.826,2.091.942,3.455,2,2.5a1.556,1.556,0,0,0-.166-2.5Z" transform="translate(-37.604 -14.381)" fill="#e56b44" opacity="0.2" style="mix-blend-mode: multiply;isolation: isolate"/>
    <path id="Path_3243" data-name="Path 3243" d="M841.4,747.515l-1.612,8.027s-.314,11.862-2.191,32.692c-1.307,14.5-3.273,21.224-5.184,24.748-.5-6.337-.723-12.205-.865-17.531-.339-12.785,4.836-41.865,5.448-48.745.026-.284.043-.532.054-.739A28.728,28.728,0,0,0,841.4,747.515Z" transform="translate(-27.905 -41.804)" fill="#814700" opacity="0.2" style="mix-blend-mode: multiply;isolation: isolate"/>
    <path id="Path_3244" data-name="Path 3244" d="M869.386,730.261c-14.545,2.227-27.66-2.951-30.451-4.158.691-4.284,1.435-8.726,2.191-13.2q.112-.67.232-1.389v0c1.958-11.624,3.9-23.325,4.787-32.74.976-10.273,1.662-21.842,2.054-29.593.278-5.383.418-8.927.418-8.927l1.042-2.13s4.528,4.793,7.9,5.5,9.408-8.876,9.408-8.876l.842,3.373s.06,2.724,0,5.624c0,.22-.01.738-.022,1.514-.056,6.293-.176,29.632.022,50.021C867.9,704.628,868.548,717.373,869.386,730.261Z" transform="translate(-29.243 -21.695)" fill="#489fbf"/>
    <path id="Path_3245" data-name="Path 3245" d="M842.689,733.53c.847-4.854,3.147-14.084,3.86-35.563s.95-30.706.95-30.706-5.525,41.449-8.565,64.72Z" transform="translate(-29.243 -27.573)" fill="#489fbf" opacity="0.3" style="mix-blend-mode: multiply;isolation: isolate"/>
    <path id="Path_3246" data-name="Path 3246" d="M835.184,641.469s-.686,17.654-2.063,33.973c0,0-.006.007-.006.01-.052.647-.108,1.289-.165,1.932q-.113,1.316-.238,2.607c-.017.206-.038.417-.061.624-.916,9.3-2.812,20.748-4.727,32.116q-.116.7-.233,1.391c-.756,4.47-1.5,8.913-2.191,13.2-.755,4.712-1.436,9.234-1.966,13.381-2.308,18.108-3.727,49.171-3.727,49.171-2.664-2.308-9.943-4.794-9.943-4.794.019-.233.054-.786.106-1.6.533-7.855,2.692-40.187,3.978-51.118.906-7.731,3.067-22.6,4.5-32.295v-.009c.31-2.062.578-3.887.8-5.36.363-2.412.581-3.873.581-3.873a16.624,16.624,0,0,1-1.323,1.882c-4.3,5.378-15.241,14.542-27.812,18-14.2,3.905-23.788,2.13-23.788,2.13a9.983,9.983,0,0,1-2.162-5.367,20.763,20.763,0,0,1,.742-7.768c5.324-1.952,22.723-8.521,30.178-13.667S818.919,656.2,821.6,651.409a17.286,17.286,0,0,1,5.734-5.774c2-1.326,4.009-2.3,5.382-3.1C834.672,641.4,835.184,641.469,835.184,641.469Z" transform="translate(-15.809 -22.909)" fill="url(#linear-gradient-9)"/>
    <path id="Path_3247" data-name="Path 3247" d="M866.017,712.476c-.314.949-5.984,10.227-7.18,12.184-.008.006-.008.011-.011.014-.138.223-.213.347-.213.347l-.895-1.7-.007-.006-6.082-11.551,7.455-57.87-.247-.391-2.645-4.139,4.2-3.636,4.522,4.261-3.273,4.142C861.94,660.878,866.374,711.408,866.017,712.476Z" transform="translate(-31.538 -23.68)" fill="#493e34"/>
    <path id="Path_3248" data-name="Path 3248" d="M885.941,961.546l20.59-1.814s-3.482-7.779-8.7-7.106C890.912,953.52,885.941,961.546,885.941,961.546Z" transform="translate(-37.742 -79.162)" fill="#3a261b"/>
    <path id="Path_3249" data-name="Path 3249" d="M876.965,642.02a48.621,48.621,0,0,1-2.809,4.313c.012-.776.019-1.291.022-1.511.016-.761.025-1.511.025-2.2l1.32-1.927C875.912,641.074,876.385,641.52,876.965,642.02Z" transform="translate(-35.611 -22.769)" opacity="0.3" fill="url(#linear-gradient-10)" style="mix-blend-mode: multiply;isolation: isolate"/>
    <path id="Path_3250" data-name="Path 3250" d="M849.021,641.469s-.1,2.561-.3,6.632l-.119,2.3c-.359,7.1-.967,17.413-1.816,26.987l-5.025-17.27,4.787-5.863-5.382-8.615c1.611-1.065,3.223-1.9,4.506-2.61.24-.131.47-.26.687-.38.065-.039.128-.075.188-.109C848.51,641.4,849.021,641.469,849.021,641.469Z" transform="translate(-29.647 -22.909)" fill="#d9f7f6" opacity="0.5"/>
    <path id="Path_3251" data-name="Path 3251" d="M881.607,853.61s4.793,2.31,7.455,0c0,0,.178,3.2-3.729,4.44S881.607,853.61,881.607,853.61Z" transform="translate(-36.958 -61.267)" fill="#814700" opacity="0.3" style="mix-blend-mode: multiply;isolation: isolate"/>
    <path id="Path_3252" data-name="Path 3252" d="M914.246,818.029a69.569,69.569,0,0,1-11.716,3.727c-7.455,1.774-20.236,0-20.236,0s0-4.083-1.6-19.882c-.065-.621-.129-1.284-.2-1.991,14.834-2.673,19.077-12.506,19.077-12.506.155-.543.352-1.226.352-1.226,3.047-.652,7.777-12.418,8.991-15.459-.221.764-.351,1.183-.351,1.183C908.387,778.266,914.246,818.029,914.246,818.029Z" transform="translate(-36.758 -46.274)" fill="#c3e4e6" opacity="0.7" style="mix-blend-mode: multiply;isolation: isolate"/>
    <path id="Path_3253" data-name="Path 3253" d="M869.855,643.748c0,.22-.01.738-.022,1.514a27.833,27.833,0,0,1-5.265,5.229c-.539-.357-4.429-4.4-4.429-4.4-1.967,3.126-7.929,6.418-7.929,6.418-.3-.341-1.379-2.28-1.964-3.322.278-5.383.418-8.927.418-8.927l1.042-2.13s4.528,4.793,7.9,5.5,9.408-8.876,9.408-8.876l.842,3.373S869.915,640.848,869.855,643.748Z" transform="translate(-31.288 -21.695)" fill="#489fbf" opacity="0.5" style="mix-blend-mode: multiply;isolation: isolate"/>
    <path id="Path_3254" data-name="Path 3254" d="M754.623,715.912a2.084,2.084,0,0,1-1.125,1.165c-.456-.161-.732-.272-.732-.272.939-.046,1.33-2.769-1.213-3.21-3.078-.53-5.51.842-6.87.013.7-.834,2.993-1.266,5.019-1.371C752.352,712.1,755.406,713.637,754.623,715.912Z" transform="translate(-12.202 -35.704)" fill="#e55b30" opacity="0.2" style="mix-blend-mode: multiply;isolation: isolate"/>
    <g id="Group_772" data-name="Group 772" transform="translate(718.893 677.478)">
      <path id="Path_3255" data-name="Path 3255" d="M750.511,715.487a2.033,2.033,0,0,1-1.957,2.1h-18.5a1.976,1.976,0,0,1-1.876-1.515,2.062,2.062,0,0,1-.083-.586,2.147,2.147,0,0,1,.575-1.48,1.875,1.875,0,0,1,1.384-.614h18.5A2.028,2.028,0,0,1,750.511,715.487Z" transform="translate(-728.095 -713.392)" fill="#979594"/>
      <path id="Path_3256" data-name="Path 3256" d="M750.529,715.487a2.033,2.033,0,0,1-1.957,2.1h-18.5a1.976,1.976,0,0,1-1.876-1.515c1.625-.079,19.572.8,19.208-2.68h1.168A2.028,2.028,0,0,1,750.529,715.487Z" transform="translate(-728.113 -713.392)" fill="#979594" opacity="0.4" style="mix-blend-mode: multiply;isolation: isolate"/>
    </g>
    <path id="Path_3257" data-name="Path 3257" d="M837.808,841.911s3.017,2.663,5.325.709c0,0,1.468,4.083-2.615,4.083C836.791,846.7,837.808,841.911,837.808,841.911Z" transform="translate(-29.016 -59.151)" fill="#814700" opacity="0.3" style="mix-blend-mode: multiply;isolation: isolate"/>
    <g id="Group_774" data-name="Group 774" transform="translate(827.235 574.057)">
      <path id="Path_3258" data-name="Path 3258" d="M870.342,593.174s-.96-6.264-4.99-6.024c-3.977.236-5.474,5.8-4.874,7.009a6.768,6.768,0,0,0,5.318,1.446C869.331,595.1,870.342,593.174,870.342,593.174Z" transform="translate(-860.35 -587.144)" fill="#e57f5f" opacity="0.2" style="mix-blend-mode: multiply;isolation: isolate"/>
      <g id="Group_773" data-name="Group 773" transform="translate(0.013 2.063)">
        <path id="Path_3259" data-name="Path 3259" d="M870.368,594.017s-.945,1.208-3.912,1.644c-.047.007-.093.014-.14.016a12.224,12.224,0,0,1-3.549-.11A13.928,13.928,0,0,1,860.5,595s.024-.061.067-.16a5.323,5.323,0,0,1,4.414-2.994,5.606,5.606,0,0,1,5.1,1.77C870.264,593.858,870.368,594.017,870.368,594.017Z" transform="translate(-860.391 -590.051)" fill="#fff"/>
        <path id="Path_3260" data-name="Path 3260" d="M866.737,595.766a12.219,12.219,0,0,1-3.549-.11,2.167,2.167,0,1,1,3.549.11Z" transform="translate(-860.812 -590.14)" fill="#225668"/>
        <path id="Path_3261" data-name="Path 3261" d="M865.5,589.663c3.756.043,4.845,3.966,4.845,3.966a3,3,0,0,0-.291-.4,5.617,5.617,0,0,0-5.094-1.767,5.321,5.321,0,0,0-4.412,2.994c-.045.1-.068.159-.068.159C859.867,594.026,861.741,589.621,865.5,589.663Z" transform="translate(-860.366 -589.663)" fill="#443c41"/>
      </g>
    </g>
    <g id="Group_776" data-name="Group 776" transform="translate(808.55 574.206)">
      <path id="Path_3262" data-name="Path 3262" d="M846.469,593.86s.446-6-3.48-6.5c-4.259-.541-5.543,5.1-5.442,5.978a4.919,4.919,0,0,0,3.31,2.349C843.16,596.105,846.469,593.86,846.469,593.86Z" transform="translate(-837.541 -587.325)" fill="#e57f5f" opacity="0.2" style="mix-blend-mode: multiply;isolation: isolate"/>
      <g id="Group_775" data-name="Group 775" transform="translate(0.005 1.926)">
        <path id="Path_3263" data-name="Path 3263" d="M846.471,594.617a14.918,14.918,0,0,1-3.855.8,8.751,8.751,0,0,1-1.026,0,8.458,8.458,0,0,1-2.254-.469,8.286,8.286,0,0,1-1.788-.853s2.035-2.956,4.161-2.546S846.471,594.617,846.471,594.617Z" transform="translate(-837.548 -590.009)" fill="#fff"/>
        <path id="Path_3264" data-name="Path 3264" d="M843.624,594.123a2.007,2.007,0,0,1-.664,1.408,8.751,8.751,0,0,1-1.026,0,8.463,8.463,0,0,1-2.254-.469,1.9,1.9,0,0,1-.229-.965,2.1,2.1,0,0,1,2.147-1.976A1.989,1.989,0,0,1,843.624,594.123Z" transform="translate(-837.892 -590.119)" fill="#225668"/>
        <path id="Path_3265" data-name="Path 3265" d="M841.9,589.679c3.495.111,4.569,4.605,4.569,4.605s-2.638-2.652-4.761-3.065-4.161,2.545-4.161,2.545S838.408,589.564,841.9,589.679Z" transform="translate(-837.548 -589.677)" fill="#443c41"/>
      </g>
    </g>
    <path id="Path_3266" data-name="Path 3266" d="M883.258,596.108a9.292,9.292,0,0,1-6.746,4.376,21.554,21.554,0,0,1-8.884,16.421,18.75,18.75,0,0,1-9.947,3.55,26.3,26.3,0,0,1-9.171-.795,15.657,15.657,0,0,1-7.561-5.305c9.891,6.789,21.166,1.928,28.278-4.307,7.92-6.944,4.95-20.836,2.818-29.711a21.467,21.467,0,0,0-8.482-12.782c-7.923,10.02-22.325,7.632-25.464,5.908-.014-.22-.029-.443-.047-.67,0,0,8.88,1.774,14.8-1.893s9.616-7.164,11.877-5.446,7.531,6.01,9.188,12.66a123.513,123.513,0,0,1,2.482,14.119s4.324-7.582,7.007-7.014C885.4,586.141,885.3,592.627,883.258,596.108Z" transform="translate(-29.083 -9.084)" fill="#e56b44" opacity="0.2" style="mix-blend-mode: multiply;isolation: isolate"/>
    <path id="Path_3267" data-name="Path 3267" d="M759.623,719.069c-.1.053-.209.111-.329.167,0,0-5.5,1.954-9.271,1.023-1.337-.328-2.027-.793-2.135-1.273-.206-.873,1.487-1.81,4.628-2.146.5-.055,1.012-.086,1.516-.106a18.642,18.642,0,0,1,4.575.351C760.411,717.492,761.205,718.213,759.623,719.069Z" transform="translate(-12.778 -36.516)" fill="url(#linear-gradient-11)"/>
    <path id="Path_3268" data-name="Path 3268" d="M762,714.687a8.642,8.642,0,0,0-.46,3.435,3.164,3.164,0,0,1-1.916.442c-.1.053-.209.111-.329.167,0,0-5.5,1.954-9.271,1.023-1.337-.328-2.027-.793-2.135-1.273a32.711,32.711,0,0,0,4.628.087,13.193,13.193,0,0,0,3.653-.54h0a5.514,5.514,0,0,0,2.436-1.448,4.507,4.507,0,0,0,1.117-2.657c.189.082.365.153.531.221C762.027,714.87,762,714.687,762,714.687Z" transform="translate(-12.782 -36.01)" fill="#e55b30" opacity="0.2" style="mix-blend-mode: multiply;isolation: isolate"/>
    <path id="Path_3269" data-name="Path 3269" d="M883.012,640.855a13.533,13.533,0,0,1-8.833,3.732c0-.037,0-.068,0-.094.06-2.9,0-5.624,0-5.624A26.908,26.908,0,0,1,883.012,640.855Z" transform="translate(-35.616 -22.439)" opacity="0.4" fill="url(#linear-gradient-12)" style="mix-blend-mode: multiply;isolation: isolate"/>
    <path id="Path_3270" data-name="Path 3270" d="M849.717,648.361l-.119,2.3s-2.507-4.778-2.929-7.372c.24-.131.47-.26.687-.38Z" transform="translate(-30.642 -23.169)" opacity="0.3" fill="url(#linear-gradient-13)" style="mix-blend-mode: multiply;isolation: isolate"/>
    <g id="Group_777" data-name="Group 777" transform="translate(817.899 575.07)">
      <path id="Path_3271" data-name="Path 3271" d="M850.912,606.37a2.042,2.042,0,0,1-1.924-2.575,12.815,12.815,0,0,1,1.924-4.526c2.01-3.316,1.892-8.4,1.42-10.888a34.247,34.247,0,0,1,3.55,9.94c.054.363.089.718.111,1.064C856.25,603.706,854.085,606.861,850.912,606.37Z" transform="translate(-848.954 -588.381)" fill="url(#linear-gradient-14)"/>
      <path id="Path_3272" data-name="Path 3272" d="M850.912,608.8a2.042,2.042,0,0,1-1.924-2.575c.436.565,1.311.916,3.019.649,2.161-.34,3.532-2.349,3.986-5.058C856.25,606.135,854.085,609.29,850.912,608.8Z" transform="translate(-848.954 -590.81)" fill="#e56b44" opacity="0.2" style="mix-blend-mode: multiply;isolation: isolate"/>
    </g>
    <g id="Group_779" data-name="Group 779" transform="translate(828.85 612.052)">
      <g id="Group_778" data-name="Group 778">
        <path id="Path_3273" data-name="Path 3273" d="M873.586,639.594c-.875,1.487-2.758,4.221-4.192,6.271-1.056,1.5-1.866,2.63-1.866,2.63l-5.206-4.972a19.651,19.651,0,0,0,4.306-3.412,28.262,28.262,0,0,0,4.727-6.586Z" transform="translate(-862.322 -633.525)" fill="#5aacca"/>
        <path id="Path_3274" data-name="Path 3274" d="M874.536,639.594c-.875,1.487-2.758,4.221-4.192,6.271a11.463,11.463,0,0,0-2.766-5.753,28.262,28.262,0,0,0,4.727-6.586Z" transform="translate(-863.272 -633.525)" fill="#57b7d1" opacity="0.3" style="mix-blend-mode: multiply;isolation: isolate"/>
      </g>
      <path id="Path_3275" data-name="Path 3275" d="M871.157,633.985c.294-.558-2.089,7.695-8.835,9.617C862.322,643.6,867.4,641.088,871.157,633.985Z" transform="translate(-862.322 -633.603)" fill="#57b7d1" opacity="0.3" style="mix-blend-mode: screen;isolation: isolate"/>
    </g>
    <g id="Group_781" data-name="Group 781" transform="translate(816.203 616.43)">
      <g id="Group_780" data-name="Group 780">
        <path id="Path_3276" data-name="Path 3276" d="M859.531,644.489c-1.051.664-7.573,6.746-7.573,6.746-.388-.526-.99-1.516-1.651-2.646v0c-1.559-2.676-3.423-6.147-3.423-6.147a50.42,50.42,0,0,0,4-3.374c.138-.125.215-.2.215-.2l0,0,0,.007c1.506,1.811,8.212,5.493,8.421,5.607Z" transform="translate(-846.884 -638.869)" fill="#57b7d1"/>
        <path id="Path_3277" data-name="Path 3277" d="M860.286,644.489c-1.051.664-7.573,6.746-7.573,6.746-.388-.526-.99-1.516-1.651-2.646v0c.852-2.727.775-7.728.576-9.521.138-.125.215-.2.215-.2l0,0,0,.007c1.506,1.811,8.212,5.493,8.421,5.607Z" transform="translate(-847.639 -638.869)" fill="#57b7d1" opacity="0.3" style="mix-blend-mode: multiply;isolation: isolate"/>
      </g>
      <path id="Path_3278" data-name="Path 3278" d="M860.462,644.492a19.3,19.3,0,0,1-5.5-2.807,14.943,14.943,0,0,1-2.922-2.8c1.506,1.811,8.212,5.493,8.421,5.607Z" transform="translate(-847.816 -638.871)" fill="#57b7d1" opacity="0.3" style="mix-blend-mode: screen;isolation: isolate"/>
    </g>
    <path id="Path_3279" data-name="Path 3279" d="M888.035,680.979c2.131,6.037,6.509,22.249,7.573,33.137s3.024,39.406-4.348,51.674h0s8.432-11.75,8.905-29.841-2.9-32.247-5.5-39.7A139.172,139.172,0,0,0,888.035,680.979Z" transform="translate(-38.121 -30.053)" fill="#c3e4e6" opacity="0.7" style="mix-blend-mode: multiply;isolation: isolate"/>
    <path id="Path_3280" data-name="Path 3280" d="M832.1,745.465c3.477-20.385,8.883-40.976,10.537-56.211-.916,9.3-2.812,20.748-4.727,32.116-.077.465-.155.93-.233,1.391-.756,4.47-1.5,8.913-2.191,13.2-.755,4.712-1.436,9.234-1.966,13.381-2.308,18.108-3.727,49.171-3.727,49.171-2.664-2.308-9.943-4.794-9.943-4.794.019-.233.054-.786.106-1.6,4.826.1,8.7,1.291,8.479.007C828.192,790.7,828.371,767.332,832.1,745.465Z" transform="translate(-25.792 -31.549)" fill="#c3e4e6" opacity="0.7" style="mix-blend-mode: multiply;isolation: isolate"/>
    <path id="Path_3281" data-name="Path 3281" d="M848.193,682.952c-.052.647-.108,1.289-.165,1.932C848.107,683.827,848.164,683.2,848.193,682.952Z" transform="translate(-30.887 -30.41)" fill="#c3e4e6" opacity="0.7" style="mix-blend-mode: multiply;isolation: isolate"/>
    <path id="Path_3282" data-name="Path 3282" d="M822.139,664c0,2.529,4.261,30.533-28.578,44.556-9.878,4.217-23.308,5.157-28.79,2.976a9.981,9.981,0,0,0,2.162,5.367s9.586,1.775,23.788-2.13c12.571-3.457,23.516-12.621,27.812-18a16.6,16.6,0,0,0,1.323-1.882s-.188,1.253-.5,3.347c-.025.171-.053.344-.079.526v0c-.222,1.474-.491,3.3-.8,5.363a86.848,86.848,0,0,0,4.907-20.595C824.979,670.572,822.139,664,822.139,664Z" transform="translate(-15.833 -26.984)" fill="#c3e4e6" opacity="0.7" style="mix-blend-mode: multiply;isolation: isolate"/>
    <path id="Path_3283" data-name="Path 3283" d="M861.564,921.758h-2.214c.169-8.694.665-38.875-.048-59.349-.846-24.141-5.077-32.07-5.077-32.07-.472-7.456,7.1-52.428,7.1-52.428l.77,10.712-.687,9.515c-1.211,12.082-3.571,30.6-3.571,30.6,1.6,3.549,5.857,11.181,7.277,27.87S861.564,921.758,861.564,921.758Z" transform="translate(-32.004 -47.58)" fill="#814700" opacity="0.2" style="mix-blend-mode: multiply;isolation: isolate"/>
    <path id="Path_3284" data-name="Path 3284" d="M891.782,784.509s4.764,4.806,10.03,4.14l-.352,1.226s-1.7,1.364-4.817,0a21.067,21.067,0,0,1-5.718-4.024Z" transform="translate(-38.643 -48.773)" fill="#489fbf"/>
    <path id="Path_3285" data-name="Path 3285" d="M894.445,786.534c.26.177,6.626,4.312,9.355,1.615a5.949,5.949,0,0,1-4.01.081A48.937,48.937,0,0,1,894.445,786.534Z" transform="translate(-39.28 -49.139)" fill="#c3e4e6" opacity="0.4" style="mix-blend-mode: screen;isolation: isolate"/>
    <path id="Path_3286" data-name="Path 3286" d="M876.1,655.855l5.806-9.439S875.559,653.489,876.1,655.855Z" transform="translate(-35.957 -23.804)" fill="#d9f7f6" opacity="0.5" style="mix-blend-mode: screen;isolation: isolate"/>
    <path id="Path_3287" data-name="Path 3287" d="M755.917,802.131c-.324.183-.508.281-.508.281.05.265.1.565.138.9l0,.019c.351,2.621.6,7.147.768,11.578.246,6.379.329,12.917.329,12.917s-1.013.287-2.868.752c-3.21.8-5.118,1.706-14.794,2a66.693,66.693,0,0,1-17.866-2.355c-1.593-.432-2.548-.752-2.548-.752a93.688,93.688,0,0,1,.409-12.838c.6-6.372,1.525-11.3,1.525-11.3-.258-.084-.528-.186-.8-.3a38.1,38.1,0,0,1-7.52-4.827c-.818-.645-1.334-1.085-1.334-1.085.173-1.035.375-2.017.6-2.957,3.713-15.55,13.735-18.855,17.456-19.708.6-.139,1.037-.216,1.257-.262,0,0,5.334-1.145,16.04.7.077.011.156.024.235.04,10.1,1.768,14.649,12.346,16.388,18.038a33.151,33.151,0,0,1,.918,3.618c-.4.4-.845.793-1.31,1.18A48.4,48.4,0,0,1,755.917,802.131Z" transform="translate(-6.085 -46.844)" fill="url(#linear-gradient-15)"/>
    <g id="Group_786" data-name="Group 786" transform="translate(837.687 610.722)">
      <g id="Group_785" data-name="Group 785" transform="translate(2.509 31.152)">
        <g id="Group_784" data-name="Group 784">
          <g id="Group_782" data-name="Group 782">
            <path id="Path_3288" data-name="Path 3288" d="M879.095,680.027a8.993,8.993,0,0,1-1.176.088,4.284,4.284,0,0,1-.984-.1c-.457-.112-1.22-.3-.4-9.6a.531.531,0,1,1,1.059.093c-.039.423-.075.857-.1,1.293v0a39.517,39.517,0,0,0-.119,7.214,6.09,6.09,0,0,0,1.55-.042.532.532,0,1,1,.176,1.05Z" transform="translate(-876.171 -669.929)" fill="#9a9e9e"/>
          </g>
          <g id="Group_783" data-name="Group 783" transform="translate(6.373 0.76)">
            <path id="Path_3289" data-name="Path 3289" d="M888.378,671.407c-.285,7.963-1.117,8.308-1.43,8.438a3.132,3.132,0,0,1-1.172.193,6.414,6.414,0,0,1-1.416-.168.531.531,0,0,1-.395-.642.465.465,0,0,1,.168-.269.518.518,0,0,1,.474-.125,4.257,4.257,0,0,0,1.858.053c.362-.612.7-4.019.83-7.088v0c.008-.146.016-.288.019-.43a.532.532,0,0,1,.532-.511h.017A.532.532,0,0,1,888.378,671.407Z" transform="translate(-883.951 -670.857)" fill="#9a9e9e"/>
          </g>
        </g>
        <path id="Path_3290" data-name="Path 3290" d="M887.176,676.793c-.269,2.26.316,2.87-2.421,2.565a2.026,2.026,0,0,1-.581-.19.518.518,0,0,1,.473-.125,4.256,4.256,0,0,0,1.858.053c.362-.612.7-4.019.83-7.088A16.817,16.817,0,0,1,887.176,676.793Z" transform="translate(-877.618 -670.305)" fill="#9a9e9e" opacity="0.3" style="mix-blend-mode: screen;isolation: isolate"/>
        <path id="Path_3291" data-name="Path 3291" d="M879.516,679.492c-.592.2-2.227.478-2.27-.1-.049-.681-.228-5.808.425-7.177a39.53,39.53,0,0,0-.119,7.214,6.091,6.091,0,0,0,1.55-.042A.539.539,0,0,1,879.516,679.492Z" transform="translate(-876.355 -670.343)" fill="#9a9e9e" opacity="0.3" style="mix-blend-mode: screen;isolation: isolate"/>
      </g>
      <path id="Path_3292" data-name="Path 3292" d="M885.167,655.91a4.436,4.436,0,0,0-2.47-1.67c1.152-14.18-5.676-20.431-9.358-22.338l-.23,1.493c3.2,1.9,9.205,7.749,8.18,20.673a3.973,3.973,0,0,0-2.55,1c-2.7,2.345-2.807,8.067-2.811,8.307v.031a.711.711,0,0,0,.7.689h.011a.709.709,0,0,0,.71-.7c.021-1.475.475-5.652,2.322-7.253a2.624,2.624,0,0,1,2.182-.632,3.1,3.1,0,0,1,2.18,1.253c1.795,2.375,1.11,7.125,1.1,7.176a.689.689,0,0,0,.087.451.7.7,0,0,0,.511.355.662.662,0,0,0,.107.01.713.713,0,0,0,.7-.606C886.57,663.931,887.319,658.761,885.167,655.91Z" transform="translate(-873.109 -631.902)" fill="url(#linear-gradient-16)"/>
      <path id="Path_3293" data-name="Path 3293" d="M885.841,669.531a.69.69,0,0,1-.087-.451c.009-.051.694-4.8-1.1-7.176a3.1,3.1,0,0,0-2.18-1.253,2.623,2.623,0,0,0-2.182.632c-1.847,1.6-2.3,5.778-2.322,7.253a.709.709,0,0,1-.71.7h-.011a.711.711,0,0,1-.7-.689c.441.263,1.054.412,1.125-.028a11.577,11.577,0,0,1,.56-4.228c.743-2.22,1.658-4.394,4.56-3.876C885.59,660.915,887.313,664.685,885.841,669.531Z" transform="translate(-873.731 -637.043)" fill="#153e42" opacity="0.4" style="mix-blend-mode: multiply;isolation: isolate"/>
    </g>
    <path id="Path_3294" data-name="Path 3294" d="M882.661,667.906a90.041,90.041,0,0,0-6.354,15.022S877.335,674.12,882.661,667.906Z" transform="translate(-36 -27.69)" fill="#d9f7f6" opacity="0.5" style="mix-blend-mode: screen;isolation: isolate"/>
    <path id="Path_3295" data-name="Path 3295" d="M854.064,712.891c-.286,3.43,3.483,11.823,4.773,13.485.063.079.1.132.116.156-.02-.019-.062-.067-.128-.143-.191-.231-.59-.717-1.108-1.352l-.007-.006-6.082-11.551,7.455-57.87-.247-.391c1.213,1.112,1.53,1.248,1.591,1.176.116.684-.425,4.779-.987,10.695C858.778,674.132,854.354,709.458,854.064,712.891Z" transform="translate(-31.538 -25.396)" fill="#605143"/>
    <path id="Path_3296" data-name="Path 3296" d="M862.362,656.616c-.019-.1-.033-.156-.037-.181C862.343,656.47,862.393,656.576,862.362,656.616Z" transform="translate(-33.472 -25.615)" fill="#4f4337"/>
    <g id="Group_789" data-name="Group 789" transform="translate(823.945 739.543)">
      <g id="Group_787" data-name="Group 787">
        <path id="Path_3297" data-name="Path 3297" d="M863.848,789.156s23.668,6.979,44.615,8.872c0,0-8.048-2.228-22.307-5.2A213.889,213.889,0,0,0,863.848,789.156Z" transform="translate(-857.693 -789.156)" fill="#493c34"/>
        <path id="Path_3298" data-name="Path 3298" d="M907.1,798.025l-4.97,28.336q-4.937-.644-9.432-1.316c-8.618-1.289-15.95-2.61-21.722-3.754-9.376-1.856-14.645-3.244-14.645-3.244l3.966-18.6,2.191-10.291c1.471.649,11.786,2.716,22.12,4.688C895.841,795.988,907.1,798.025,907.1,798.025Z" transform="translate(-856.334 -789.156)" fill="#352b23"/>
      </g>
      <path id="Path_3299" data-name="Path 3299" d="M870.979,823.562c-9.376-1.856-14.645-3.244-14.645-3.244l3.966-18.6C864.346,808.426,869.388,818.34,870.979,823.562Z" transform="translate(-856.334 -791.427)" fill="#493c34" opacity="0.2" style="mix-blend-mode: screen;isolation: isolate"/>
      <path id="Path_3300" data-name="Path 3300" d="M913.344,799.06l-4.97,28.336q-4.937-.644-9.432-1.316c-1.563-8.627-4.287-22.546-8.09-31.2C902.082,797.023,913.344,799.06,913.344,799.06Z" transform="translate(-862.575 -790.191)" fill="#493c34" opacity="0.2" style="mix-blend-mode: multiply;isolation: isolate"/>
      <path id="Path_3301" data-name="Path 3301" d="M903.719,801.019l-3.786,18.735-.83,4.1-37.276-6.269,4.948-21.393.376-1.623Z" transform="translate(-857.327 -790.135)" fill="#ebdfc5"/>
      <g id="Group_788" data-name="Group 788" transform="translate(3.323 5.327)">
        <path id="Path_3302" data-name="Path 3302" d="M867.718,795.658l-4.494,21.293-2.47-2.462-.363-.359,3.666-17.744,1.377-.274Z" transform="translate(-860.391 -795.658)" fill="#142028"/>
        <path id="Path_3303" data-name="Path 3303" d="M868.422,795.658h1.3l-4.633,20.231-.817-.592Z" transform="translate(-861.093 -795.658)" fill="#ebdfc5" style="mix-blend-mode: multiply;isolation: isolate"/>
      </g>
      <path id="Path_3304" data-name="Path 3304" d="M904.812,801.019l-3.786,18.736c-10.6-14.9-28.714-21.959-33.158-23.56l.376-1.624Z" transform="translate(-858.419 -790.135)" fill="#ebdfc5" opacity="0.4" style="mix-blend-mode: multiply;isolation: isolate"/>
      <path id="Path_3305" data-name="Path 3305" d="M911.947,802.442l-4.616,22.837s2.25-3.55,3.906-11.419S911.947,802.442,911.947,802.442Z" transform="translate(-865.555 -791.558)" fill="#493c34" opacity="0.5" style="mix-blend-mode: multiply;isolation: isolate"/>
      <path id="Path_3306" data-name="Path 3306" d="M865.433,796.214c-.711,2.985-3.648,14.378-4.679,18.377l-.363-.36,3.665-17.744Z" transform="translate(-857.067 -790.432)" fill="#26414f" opacity="0.7"/>
    </g>
    <g id="Group_790" data-name="Group 790" transform="translate(847.45 737.079)">
      <path id="Path_3307" data-name="Path 3307" d="M900.335,793.184v0a21.685,21.685,0,0,1-.624,3.05c-1.02,3.641-2.944,5.612-3.871,5.536h0a.441.441,0,0,1-.183-.044c-.4-.188-.166-1.28.183-2.361v-.006c.083-.278.183-.549.279-.811-1.32,2.428-3.81,3.592-4.526,3.039a.232.232,0,0,1-.074-.064c-.235-.277-.081-.916.234-1.648v0c.034-.092.078-.181.122-.272-1.384,1.586-2.925,2.157-3.509,1.834a.436.436,0,0,1-.152-.135c-.295-.414.524-2.357,1.407-4.171-.03.049-.066.1-.1.15l0,0c-1.416,2.117-3.173,4.156-3.68,4.013a2.175,2.175,0,0,1-.573-.217c-.383-.252-.376-.786.573-2.507a40.608,40.608,0,0,0,2.485-6.39l-1.547-.44-.939-.271c.232-1.891,3.666-4.494,4.021-5.324l3.667,2.839c3.67,2.84,6.868,1.185,6.868,1.185s.029.187.052.541A14.061,14.061,0,0,1,900.335,793.184Z" transform="translate(-885.027 -786.148)" fill="url(#linear-gradient-17)"/>
      <path id="Path_3308" data-name="Path 3308" d="M900.624,790.713a14.884,14.884,0,0,1-4.668.819c-3.789.178-5.5-3.668-5.5-3.668-1.661.592-2.886,2.731-3.5,3.879l-.939-.271c.232-1.891,3.666-4.494,4.021-5.324l3.667,2.839c3.67,2.84,6.868,1.185,6.868,1.185S900.6,790.359,900.624,790.713Z" transform="translate(-885.206 -786.148)" fill="#e56b44" opacity="0.2" style="mix-blend-mode: multiply;isolation: isolate"/>
      <path id="Path_3309" data-name="Path 3309" d="M891.27,793.267a20.248,20.248,0,0,1-1.7,5.217l0,0c-1.416,2.118-3.173,4.157-3.68,4.013a2.17,2.17,0,0,1-.573-.217,24.76,24.76,0,0,0,5.187-8.188S891.449,791.847,891.27,793.267Z" transform="translate(-885.079 -787.35)" fill="#e56b44" opacity="0.2" style="mix-blend-mode: multiply;isolation: isolate"/>
      <path id="Path_3310" data-name="Path 3310" d="M892.488,801.31c.034-.092.078-.181.122-.272-1.384,1.586-2.925,2.157-3.509,1.834a8.861,8.861,0,0,0,3.741-4.464c1.008-2.718,1.3-4.732,1.719-4.26C894.938,794.582,895.367,797.824,892.488,801.31Z" transform="translate(-885.763 -787.582)" fill="#e56b44" opacity="0.2" style="mix-blend-mode: multiply;isolation: isolate"/>
      <path id="Path_3311" data-name="Path 3311" d="M897.287,800.862c.084-.278.183-.549.279-.811-1.32,2.428-3.81,3.592-4.526,3.039a7.245,7.245,0,0,0,3.886-4.795c.888-3.311,1.66-4.671,1.66-3.372A11.838,11.838,0,0,1,897.287,800.862Z" transform="translate(-886.476 -787.647)" fill="#e56b44" opacity="0.2" style="mix-blend-mode: multiply;isolation: isolate"/>
      <path id="Path_3312" data-name="Path 3312" d="M902.722,794.742a21.7,21.7,0,0,1-.624,3.05c-1.02,3.641-2.944,5.612-3.871,5.536a13.127,13.127,0,0,0,3.132-5.449A7.77,7.77,0,0,1,902.722,794.742Z" transform="translate(-887.413 -787.702)" fill="#e56b44" opacity="0.2" style="mix-blend-mode: multiply;isolation: isolate"/>
    </g>
    <path id="Path_3313" data-name="Path 3313" d="M750.2,774.889c-.724,1.112-1.825,2.841-2.872,4.663-1.775,3.079-10.3,2.594-11.993,1.174-1.385-1.16-2.141-4.608-2.431-6.272.6-.139,1.037-.216,1.257-.262C734.156,774.191,739.489,773.047,750.2,774.889Z" transform="translate(-10.071 -46.844)" opacity="0.4" fill="url(#linear-gradient-18)" style="mix-blend-mode: multiply;isolation: isolate"/>
    <path id="Path_3314" data-name="Path 3314" d="M759.913,859.1l-1.237.216-17.236,3.025c-.227-1.77-.373-2.56-.373-2.56l-3.434.472c-.038.321-.152,1.1-.317,2.224l-16.922-1.245-1.815-.564.948-14.577.053-.852.225-3.418.157-2.4c.039,0,.009-.115.009-.115.863.208,2.733.675,5.276,1.176q.436.085.9.171a90.058,90.058,0,0,0,11.733,1.437c.235.013.471.025.709.035.735.033,1.479.053,2.231.056.237.009.479.009.72.009a50.808,50.808,0,0,0,11.567-1.226c.263-.062.526-.128.788-.2a31.952,31.952,0,0,0,4.157-1.363,11.754,11.754,0,0,1,.412,2.692c.1.894.2,1.956.306,3.115.029.3.057.607.083.92C759.365,851.836,759.913,859.1,759.913,859.1Z" transform="translate(-7.482 -58.681)" fill="url(#linear-gradient-19)"/>
    <path id="Path_3315" data-name="Path 3315" d="M738.592,864.228l-.254,5.108c-3.209,1.079-19.009-2.358-19.867-2.629-.609-.2-.606-3.414-.22-3.928a.161.161,0,0,1,.1-.07c.078-.009.171-.012.274-.016C722.076,862.571,738.592,864.228,738.592,864.228Z" transform="translate(-7.374 -62.908)" fill="#00cbd2"/>
    <path id="Path_3316" data-name="Path 3316" d="M765.319,866.17c-7.658,3.2-19.288,2.546-19.288,2.546l-.611-4.9-.036-.295c8.813-1.336,18.831-2.61,19.353-2.238a.039.039,0,0,1,.022.033C764.759,861.786,765.319,866.17,765.319,866.17Z" transform="translate(-12.328 -62.642)" fill="#00cbd2"/>
    <g id="Group_799" data-name="Group 799" transform="translate(696.963 681.872)">
      <g id="Group_794" data-name="Group 794" transform="translate(51.894 26.09)">
        <g id="Group_792" data-name="Group 792">
          <g id="Group_791" data-name="Group 791">
            <path id="Path_3317" data-name="Path 3317" d="M777.443,760.89c-.2,1.105-1.418,1.539-4.08-.537a15.972,15.972,0,0,1,2.742,4.193,3.859,3.859,0,0,1,.273,1.442,1.69,1.69,0,0,1-.114.579,1.524,1.524,0,0,1-.43.628c-1.228,1.093-2.44-.616-3.223-2.2.446,1.457.626,3.209-.822,3.721-1.683.591-2.392-1.528-2.612-3.572a1.5,1.5,0,0,1-.122.31,1.562,1.562,0,0,1-.358.506,1.4,1.4,0,0,1-.825.347c-1.612.145-3.086-1.805-3.2-6.239a9.687,9.687,0,0,0,.783-4.549,3.9,3.9,0,0,0,1.085-.165,3.249,3.249,0,0,0,.368-.122,4.832,4.832,0,0,0,1.818-1.192c.094-.1.185-.2.274-.307.062-.07.118-.144.176-.22a5.14,5.14,0,0,0,.352-.547s.4.225,1.019.6l0,0c.066.039.133.082.2.125.191.122.4.25.621.4,1.774,1.14,4.35,2.952,5.435,4.532a3.1,3.1,0,0,1,.24.4,3.476,3.476,0,0,1,.412,1.384A2.274,2.274,0,0,1,777.443,760.89Z" transform="translate(-764.673 -751.032)" fill="#ad5c00"/>
            <path id="Path_3318" data-name="Path 3318" d="M775.34,752.107c.106-.685-2.26-1.244-4-1.5a7.8,7.8,0,0,1-.739,1.933S775.21,752.954,775.34,752.107Z" transform="translate(-765.745 -750.605)" fill="#ad5c00"/>
          </g>
          <path id="Path_3319" data-name="Path 3319" d="M776.1,764.547c.379,1.035.437,2.021-.271,2.648-1.228,1.093-2.44-.616-3.223-2.2.446,1.457.626,3.209-.822,3.721-1.683.591-2.392-1.528-2.612-3.572a1.465,1.465,0,0,1-1.3,1.163c-1.612.145-3.086-1.805-3.2-6.239a9.687,9.687,0,0,0,.783-4.549,4.765,4.765,0,0,0,3.721-2.005,5.14,5.14,0,0,0,.352-.547s.489.277,1.227.727c-.288,1.058-1.357,3.916-4.366,2.952,0,0-1.737,5.412.528,6.955s2.306-.4,2.306-.4.466,3.835,1.847,3.384.832-3.237.832-3.237,2.658,2.992,3.636,2.305A1.606,1.606,0,0,0,776.1,764.547Z" transform="translate(-764.673 -751.032)" fill="#ad5c00" opacity="0.2" style="mix-blend-mode: multiply;isolation: isolate"/>
          <path id="Path_3320" data-name="Path 3320" d="M775.279,761.69l-.007-.008s3.213,1.046,3.607-.862c.031-.156.062-.312.09-.462C780.006,762.317,779.236,764.777,775.279,761.69Z" transform="translate(-766.589 -752.368)" fill="#ad5c00" opacity="0.2" style="mix-blend-mode: multiply;isolation: isolate"/>
        </g>
        <g id="Group_793" data-name="Group 793" transform="translate(1.868 2.535)">
          <path id="Path_3321" data-name="Path 3321" d="M769.467,765.952a1.563,1.563,0,0,1-.358.506,33.462,33.462,0,0,0-2.156-10.605,3.27,3.27,0,0,0,.368-.122A33.427,33.427,0,0,1,769.467,765.952Z" transform="translate(-766.953 -754.067)" fill="#bf6000"/>
          <path id="Path_3322" data-name="Path 3322" d="M777.272,766.158a1.693,1.693,0,0,1-.114.579c-1.1-1.919-2.154-3.86-3.3-5.756-1.377-2.279-2.832-4.51-4.242-6.773.094-.1.185-.2.274-.307,1.437,2.3,2.924,4.569,4.316,6.9C775.264,762.565,776.254,764.373,777.272,766.158Z" transform="translate(-767.435 -753.736)" fill="#bf6000"/>
          <path id="Path_3323" data-name="Path 3323" d="M778.741,761.023a28.747,28.747,0,0,1-4.432-4.065c-.885-1.04-1.683-2.141-2.46-3.258.066.039.133.082.2.125.191.122.4.25.621.4.533.755,1.092,1.5,1.692,2.2a30.011,30.011,0,0,0,4.395,4.116A2.286,2.286,0,0,1,778.741,761.023Z" transform="translate(-767.838 -753.7)" fill="#bf6000"/>
        </g>
      </g>
      <g id="Group_797" data-name="Group 797" transform="translate(0 30)">
        <g id="Group_795" data-name="Group 795">
          <path id="Path_3324" data-name="Path 3324" d="M721.3,767.568c0,.021-.069.042-.083.064a.583.583,0,0,1-.317.291h0c-.806.28-2.417-1.337-3.511-2.588-.079-.092-.158-.177-.225-.262l0,0c-.032-.033-.053-.061-.078-.088-.174-.21.238,1.273.422,1.774.014.037.025.075.039.111a4.243,4.243,0,0,1,.306,2.118,1.747,1.747,0,0,1-.293.71,1.3,1.3,0,0,1-.087.114,4.577,4.577,0,0,1-.483.5c-2.268,2-3.129-2.536-3.422-2.881,0,.024-.015.092-.029.192,0,0,0,0,0,.007v0c-.092.724-.347,3.047-.442,3.511a3.476,3.476,0,0,1-.378.628,2.694,2.694,0,0,1-.4.45,1.581,1.581,0,0,1-.185.147c-.5.334-1.072.225-1.412-1.465-.184-.914-.562-3.672-.714-4.843-.04-.306-.065-.5-.065-.537a32.428,32.428,0,0,1-1.561,2.969c-.379.627-1.4,2.7-2.333,2.513a.412.412,0,0,1-.234-.135c-.546-.6.262-2.964.359-3.777.029-.223,0-.331-.125-.246a9.9,9.9,0,0,1-3.391,1.688,3.19,3.19,0,0,1-.415.063.191.191,0,0,1-.051,0c-.673.021-.958-.734-.84-1.262a.6.6,0,0,1,.025-.1,9.005,9.005,0,0,1,.7-1.71,23.525,23.525,0,0,1,2.836-4.364,20.083,20.083,0,0,1,1.906-2.111,14.775,14.775,0,0,1,4.356-2.848h0a15.845,15.845,0,0,1,1.747-.636c.258-.079.5-.139.715-.193a2.163,2.163,0,0,0,.23.308.523.523,0,0,0,.044.056,2.174,2.174,0,0,0,.207.239.822.822,0,0,0,.062.058,1.165,1.165,0,0,0,.142.128,3.962,3.962,0,0,0,.789.49c.012,0,.017.008.025.011.046.022.084.043.132.064h0c.065.028.132.057.2.083a.457.457,0,0,1,.059.024c.052.017.1.035.147.053a8.632,8.632,0,0,0,.877.259c.132.034.258.065.385.089a12.7,12.7,0,0,0,1.755.23,17.914,17.914,0,0,0,2.362,5.955C721.412,765.254,721.7,766.883,721.3,767.568Z" transform="translate(-701.325 -755.378)" fill="#ad5c00"/>
        </g>
        <g id="Group_796" data-name="Group 796" transform="translate(0.866 0.308)">
          <path id="Path_3325" data-name="Path 3325" d="M714.446,756.06c-.024.017-.048.031-.074.048-.2.137-.4.267-.6.394-.667.437-1.348.864-2.018,1.312a21.675,21.675,0,0,0-4.206,3.691,31.946,31.946,0,0,0-3.958,5.688c-.259.465-.5.932-.742,1.406a3.145,3.145,0,0,1-.415.063.186.186,0,0,1-.051.005c.179-.384.37-.759.565-1.129a31.231,31.231,0,0,1,3.9-5.83,22.094,22.094,0,0,1,4.171-3.877c.834-.573,1.694-1.1,2.543-1.655.18-.12.361-.24.542-.365.03-.018.056-.039.086-.057A2.348,2.348,0,0,0,714.446,756.06Z" transform="translate(-702.382 -755.754)" fill="#bf6000"/>
          <path id="Path_3326" data-name="Path 3326" d="M718.1,757.145c-.008.014-.016.024-.022.038a2.681,2.681,0,0,0-.489,1.15v.006a17.1,17.1,0,0,0-1.972,6.171s-.042.016-.042.019a28.2,28.2,0,0,0-.46,7.53,2.7,2.7,0,0,1-.4.45,30.7,30.7,0,0,1,.478-8.441,25.177,25.177,0,0,1,1.911-6c.16-.352.372-.7.561-1.043h0l.02-.042C717.813,757.037,717.98,757.094,718.1,757.145Z" transform="translate(-704.593 -755.976)" fill="#bf6000"/>
          <path id="Path_3327" data-name="Path 3327" d="M721.219,769.387a1.746,1.746,0,0,1-.293.71,97.818,97.818,0,0,1-.96-10.913c.02-.528.068-1.054.111-1.581.135.036.268.064.4.094-.047.51-.073,1.015-.1,1.526a63.594,63.594,0,0,0,.385,6.514c-.107-.125-.211-.241-.306-.354-.174-.21.238,1.273.422,1.774.014.037.025.075.039.111C721.026,768.275,721.138,769.059,721.219,769.387Z" transform="translate(-705.56 -756.088)" fill="#bf6000"/>
        </g>
      </g>
      <path id="Path_3328" data-name="Path 3328" d="M761.312,746.964a7.576,7.576,0,0,1-.741,1.93,5.14,5.14,0,0,1-.352.547,4.967,4.967,0,0,1-2.349,1.751,4.049,4.049,0,0,1-1.371.255,9.688,9.688,0,0,1-.783,4.549c-2.1,4.892-7.858,8.176-11.994,9.607a14.694,14.694,0,0,1-3.346.808,22.022,22.022,0,0,1-8.809-.907,14.254,14.254,0,0,1-5.349-3.206,16.743,16.743,0,0,1-2.717-3.378,17.143,17.143,0,0,1-2.311-5.952,12.314,12.314,0,0,1-1.955-.278,6,6,0,0,1-2.417-1.026,3.587,3.587,0,0,1-.685-.791c-1.044-1.571-1.679-4.472.208-6.363a4.227,4.227,0,0,1,.477-.419,3.476,3.476,0,0,1,1.41-.695c.161.522.41.858.766.924a1.158,1.158,0,0,0,.952-.3c.009.01.019.022.031.034-.382,1.3.014,1.664.693,1.343,1.111-.529,6.93-7.632,7.293-8.074-1.371,2.278-4.159,5.266-1.878,4.746,2.252-.517,6.206-5.924,6.327-6.095-.909,1.6-1.234,3.287,1.375.936s5-7.079,5.09-6.4c.362,2.77,5.746,7.9,6.723,7.308.957-.576-.207-3.208-.257-3.325.113.177,3.932,6.058,5.154,5.545.707-.3.478-1.585.153-2.631,1.076,2.76,3.52,8.529,5.059,8.43.9-.057,1.2-1.331,1.167-2.988a4.084,4.084,0,0,1,1.774-1.025,2.164,2.164,0,0,1,1.176.043C761.543,742.412,761.821,744.833,761.312,746.964Z" transform="translate(-703.822 -720.87)" fill="url(#linear-gradient-20)"/>
      <path id="Path_3329" data-name="Path 3329" d="M749.41,761.719a5.882,5.882,0,0,1-.373.877,7.23,7.23,0,0,1-2.929,3.077,7.1,7.1,0,0,1-3.6.817,9.177,9.177,0,0,1-3.685-.805,7.921,7.921,0,0,1-2.889-2.249,5.727,5.727,0,0,1-.684-1.053C735.858,761.714,741.244,758.94,749.41,761.719Z" transform="translate(-707.459 -726.305)" fill="#b33535"/>
      <path id="Path_3330" data-name="Path 3330" d="M735.326,749.687s.319-3.113-2.362-3.79-4.473,2.494-4.473,2.494a10.736,10.736,0,0,0,3.58,1.346A6.687,6.687,0,0,0,735.326,749.687Z" transform="translate(-706.237 -723.646)" fill="#fff"/>
      <path id="Path_3331" data-name="Path 3331" d="M734.3,747.294a1.565,1.565,0,1,1-1.565-1.566A1.564,1.564,0,0,1,734.3,747.294Z" transform="translate(-706.721 -723.633)" fill="#604b42"/>
      <path id="Path_3332" data-name="Path 3332" d="M747.349,773.338a48.908,48.908,0,0,1-1.863,5.072c-.145.35-.242.562-.242.562-.782.722-6.981.521-7.763,0a4.315,4.315,0,0,1-.882-1.57c-.7-1.708-1.406-4.166-1.406-4.166a20.119,20.119,0,0,0,8.809.909A14.518,14.518,0,0,0,747.349,773.338Z" transform="translate(-707.449 -728.606)" fill="url(#linear-gradient-21)"/>
      <path id="Path_3333" data-name="Path 3333" d="M728.487,748.186c.043.186.622,1.425,2.963,1.886a5.391,5.391,0,0,0,3.871-.589s1.121-4.422-2.545-4.784S728.328,747.508,728.487,748.186Z" transform="translate(-706.233 -723.441)" fill="#e55b30" opacity="0.2" style="mix-blend-mode: multiply;isolation: isolate"/>
      <path id="Path_3334" data-name="Path 3334" d="M758.367,738.63a13.625,13.625,0,0,0-.544-1.441S758.027,737.762,758.367,738.63Z" transform="translate(-711.541 -722.089)" fill="#ad5c00"/>
      <path id="Path_3335" data-name="Path 3335" d="M757.5,740.043a25.937,25.937,0,0,0-.59-3.866c-.149-.657-.313-1.264-.469-1.774-.522-1.66-3.35-11.2-11.581-14.511-.313-.129-.633-.248-.963-.354a15.11,15.11,0,0,0-1.672-.444c-.178-.037-.357-.069-.536-.1-.479-.083-.97-.146-1.478-.183-.128-.012-.257-.022-.39-.025-.341-.022-.687-.031-1.04-.031-.082,0-.16,0-.242,0-.145,0-.289.005-.433.012a17.181,17.181,0,0,0-1.869.157c-.158.02-.313.043-.467.066a18.584,18.584,0,0,0-3,.739c-.261.092-.517.185-.767.282a22.15,22.15,0,0,0-11.575,11.2,2.523,2.523,0,0,0-.281.94v.011c-1.176,3.031-1.744,7.26-1.18,9.116a1.33,1.33,0,0,0,.548.863.547.547,0,0,0,.172.062.88.88,0,0,0,.2.016,1.23,1.23,0,0,0,.727-.316.309.309,0,0,0,.041-.045c-.011.029-.019.052-.027.079-.341,1.167-.056,1.582.5,1.416a1.117,1.117,0,0,0,.2-.073,2.1,2.1,0,0,0,.365-.257,85.654,85.654,0,0,0,6.205-6.944c.424-.509.692-.842.733-.89-.242.406-.529.832-.827,1.256-1.207,1.738-2.562,3.452-1.609,3.561a1.731,1.731,0,0,0,.513-.046.175.175,0,0,1,.031-.007c1.265-.291,3.073-2.131,4.432-3.712a.092.092,0,0,0,.032-.039c1.042-1.218,1.812-2.272,1.864-2.343a6.684,6.684,0,0,0-.548,1.2l0,.008c-.326,1,0,1.456,1.926-.274,2.612-2.349,5-7.079,5.09-6.4.333,2.566,4.98,7.155,6.441,7.347a.417.417,0,0,0,.282-.039.648.648,0,0,0,.1-.07c.7-.62-.107-2.655-.315-3.149-.014-.043-.031-.075-.038-.095.016.025.059.083.114.168,0,.006,0,.006,0,.01.681,1.03,3.923,5.823,5.033,5.356a.548.548,0,0,0,.122-.071.692.692,0,0,0,.261-.371,4.077,4.077,0,0,0-.229-2.189c-.295-.751-.487-1.276-.532-1.41a13.666,13.666,0,0,1,.532,1.41c1.076,2.76,3.52,8.529,5.059,8.43.708-.047,1.04-.832,1.137-1.972a8.649,8.649,0,0,0,.029-1.016C757.525,740.514,757.515,740.283,757.5,740.043Z" transform="translate(-704.476 -718.756)" fill="#ad5c00"/>
      <g id="Group_798" data-name="Group 798" transform="translate(15.042 0.004)" opacity="0.2" style="mix-blend-mode: screen;isolation: isolate">
        <path id="Path_3336" data-name="Path 3336" d="M740.18,718.761c-.978,2.041-1.8,4.154-2.768,6.2-1.03,2.188-2.24,4.294-3.466,6.378-1.733,2.96-3.582,5.856-5.6,8.624a1.73,1.73,0,0,1-.513.046,100.552,100.552,0,0,0,5.783-8.884,73.457,73.457,0,0,0,3.72-6.943c.807-1.8,1.556-3.627,2.407-5.407C739.891,718.766,740.035,718.761,740.18,718.761Z" transform="translate(-721.161 -718.761)" fill="#bf6000"/>
        <path id="Path_3337" data-name="Path 3337" d="M736.761,718.968c-2.4,4.989-5.719,9.518-8.835,14.07a58.559,58.559,0,0,0-4.841,8.069q-.452.971-.868,1.956a2.1,2.1,0,0,1-.365.257,1.11,1.11,0,0,1-.2.073q.568-1.378,1.213-2.732a56.385,56.385,0,0,1,4.523-7.537c3.12-4.557,6.477-9.1,8.9-14.089C736.448,719.011,736.6,718.988,736.761,718.968Z" transform="translate(-720.043 -718.798)" fill="#bf6000"/>
        <path id="Path_3338" data-name="Path 3338" d="M732.941,719.951a66.036,66.036,0,0,0-7.194,9.955,52.017,52.017,0,0,0-3.982,7.84c-.45,1.155-.848,2.325-1.275,3.489-.143.383-.3.788-.428,1.2a.873.873,0,0,1-.2-.016.545.545,0,0,1-.172-.061c.07-.248.156-.491.242-.728.438-1.226.86-2.464,1.335-3.679a52.345,52.345,0,0,1,3.983-7.972,69.856,69.856,0,0,1,6.927-9.747Q732.549,720.088,732.941,719.951Z" transform="translate(-719.687 -718.976)" fill="#bf6000"/>
        <path id="Path_3339" data-name="Path 3339" d="M763.079,740.913a8.638,8.638,0,0,1-.029,1.016,37.994,37.994,0,0,0-4.585-11.862,47.963,47.963,0,0,0-9.021-10.355c.329.106.65.224.963.354a44.749,44.749,0,0,1,8.407,9.823,38.745,38.745,0,0,1,4.233,10.328C763.065,740.455,763.075,740.686,763.079,740.913Z" transform="translate(-725.067 -718.933)" fill="#bf6000"/>
        <path id="Path_3340" data-name="Path 3340" d="M756.6,737.539a.692.692,0,0,1-.261.371c-1.054-2.462-2.245-4.87-3.486-7.251-1.273-2.44-2.558-4.872-3.79-7.328a35.5,35.5,0,0,0-2.31-4.281c.179.03.358.061.536.1a41.555,41.555,0,0,1,2.122,4c1.234,2.46,2.522,4.888,3.791,7.329C754.406,732.8,755.562,735.144,756.6,737.539Z" transform="translate(-724.58 -718.813)" fill="#bf6000"/>
        <path id="Path_3341" data-name="Path 3341" d="M749.1,735.646a.645.645,0,0,1-.1.07.416.416,0,0,1-.282.039c-.809-1.7-1.553-3.423-2.267-5.161-.759-1.86-1.515-3.715-2.326-5.558a25.124,25.124,0,0,1-1.6-4.506,30.751,30.751,0,0,1-1.509,4.285c-.919,2.06-2.18,3.912-3.225,5.9a46.366,46.366,0,0,1-2.522,4.353,6.692,6.692,0,0,1,.548-1.2c-.052.07-.822,1.125-1.864,2.343a35.569,35.569,0,0,0,3.341-5.385c1.14-2.169,2.538-4.177,3.483-6.445a36.274,36.274,0,0,0,1.792-5.585c.133,0,.262.013.39.025-.078.335-.161.668-.243,1a.164.164,0,0,1,.082.123,25.543,25.543,0,0,0,1.966,5.553c.773,1.731,1.453,3.5,2.179,5.249C747.626,732.4,748.335,734.037,749.1,735.646Z" transform="translate(-722.266 -718.767)" fill="#bf6000"/>
      </g>
      <path id="Path_3342" data-name="Path 3342" d="M750.375,748.907c-.408-.622-.77-4.023,1.923-4.825s4.672,2.229,4.544,3.192c-.1.76-.461,1.633-2.717,2.286A4.951,4.951,0,0,1,750.375,748.907Z" transform="translate(-710.143 -723.311)" fill="#e55b30" opacity="0.2" style="mix-blend-mode: multiply;isolation: isolate"/>
      <path id="Path_3343" data-name="Path 3343" d="M750.432,749.1s-.439-3.436,2.4-4.007,3.913,2.644,3.913,2.644S754.567,749.8,750.432,749.1Z" transform="translate(-710.2 -723.506)" fill="#fff"/>
      <path id="Path_3344" data-name="Path 3344" d="M728.472,748.331c-.484-.284,1.107-3.425,4.473-2.771s2.651,4.117,2.362,4.068c-.648-.111.048-3.1-2.691-3.445S728.751,748.5,728.472,748.331Z" transform="translate(-706.218 -723.586)" fill="#443b41"/>
      <path id="Path_3345" data-name="Path 3345" d="M755.063,746.843a1.565,1.565,0,1,1-1.564-1.566A1.566,1.566,0,0,1,755.063,746.843Z" transform="translate(-710.476 -723.551)" fill="#604b42"/>
      <path id="Path_3346" data-name="Path 3346" d="M750.394,749.055c-.161,0-.978-3.3,2.535-4.157,3.387-.829,4.175,2.548,3.774,2.794-.293.18-.492-2.975-3.754-2.06C750.039,746.448,750.632,749.055,750.394,749.055Z" transform="translate(-710.162 -723.459)" fill="#443b41"/>
      <path id="Path_3347" data-name="Path 3347" d="M724.195,751.607c-.356,2.309,4.418,4.9,5.313,2.56C730.362,751.924,724.556,749.257,724.195,751.607Z" transform="translate(-705.457 -724.531)" fill="#f33" opacity="0.3"/>
      <path id="Path_3348" data-name="Path 3348" d="M756.989,754.3c1.484,1.811,5.658-1.681,4.077-3.418C759.55,749.219,755.518,752.509,756.989,754.3Z" transform="translate(-711.332 -724.483)" fill="#f33" opacity="0.3"/>
      <path id="Path_3349" data-name="Path 3349" d="M717.948,748.3a7.149,7.149,0,0,1,2.9,3c.523,1.3,0,2.937-.981,2.676s-.065-2.825-.065-2.825Z" transform="translate(-704.331 -724.097)" fill="#e55b30" opacity="0.2" style="mix-blend-mode: multiply;isolation: isolate"/>
      <path id="Path_3350" data-name="Path 3350" d="M768.688,748.337a4.812,4.812,0,0,0-2.924,2.537c-.785,1.646-.024,2.066,0,2.12a1.243,1.243,0,0,0,1.81-.921c.333-1.506-.307-1.919-.307-1.919Z" transform="translate(-712.912 -724.104)" fill="#e55b30" opacity="0.2" style="mix-blend-mode: multiply;isolation: isolate"/>
      <path id="Path_3351" data-name="Path 3351" d="M727.878,739.04c-1.668,2.013-5.673,6.775-6.573,7.2-.679.321-1.075-.043-.693-1.344.007-.027.012-.05.018-.079a.232.232,0,0,1-.049.045,1.158,1.158,0,0,1-.952.3c-.356-.066-.6-.4-.766-.924-.562-1.856.021-6.085,1.093-9.116-.563,3.87-.816,8.758.674,9.14,0,0-.011,1,1.9-.407,1.819-1.335,6.042-6.521,6.434-7.006A10.927,10.927,0,0,0,727.878,739.04Z" transform="translate(-704.457 -721.716)" fill="#ad5c00" opacity="0.2" style="mix-blend-mode: multiply;isolation: isolate"/>
      <path id="Path_3352" data-name="Path 3352" d="M747.611,734.182c.215.513,1.078,2.7.215,3.219-.977.588-6.361-4.538-6.723-7.308-.09-.683-2.478,4.047-5.09,6.4s-2.283.668-1.375-.936c-.121.17-4.076,5.578-6.327,6.095-1.88.424-.309-1.527,1.065-3.508-.1.491-.043.906.325,1.07,1.179.535,5.31-4.726,5.31-4.726s-.075.784,1.2.392,5.043-6.759,5.043-6.759,4.115,8.366,5.463,7.884c1.293-.462.106-2.6.007-2.781C746.784,733.281,747.123,733.664,747.611,734.182Z" transform="translate(-706.048 -720.448)" fill="#ad5c00" opacity="0.2" style="mix-blend-mode: multiply;isolation: isolate"/>
      <path id="Path_3353" data-name="Path 3353" d="M762.4,746.674c-1.539.1-3.983-5.67-5.059-8.43.324,1.046.554,2.334-.153,2.631-1.11.467-4.352-4.326-5.033-5.356,1.314,1.379,3.565,3.583,4.226,3.231.937-.494-.463-3.554-.528-3.7.145.234,5,7.969,5.968,7.343.443-.287.842-1.719,1.124-3.271a24.469,24.469,0,0,1,.623,4.562C763.6,745.343,763.308,746.616,762.4,746.674Z" transform="translate(-710.516 -721.702)" fill="#ad5c00" opacity="0.2" style="mix-blend-mode: multiply;isolation: isolate"/>
      <path id="Path_3354" data-name="Path 3354" d="M758.917,741.829a4.085,4.085,0,0,0-1.774,1.025c.03,1.656-.262,2.93-1.167,2.988-1.539.1-3.983-5.67-5.059-8.43.324,1.046.554,2.334-.153,2.631-1.221.513-5.041-5.368-5.154-5.545.05.117,1.214,2.749.257,3.325-.977.588-6.361-4.538-6.723-7.308-.09-.683-2.478,4.047-5.09,6.4s-2.283.669-1.375-.936c-.121.17-4.076,5.578-6.327,6.095-2.281.519.508-2.468,1.878-4.746-.363.442-6.182,7.545-7.293,8.074-.679.321-1.075-.043-.693-1.343-.012-.012-.022-.024-.031-.034a1.157,1.157,0,0,1-.952.3c-.356-.066-.6-.4-.766-.924a3.476,3.476,0,0,0-1.41.695,4.234,4.234,0,0,0-.477.419,27.752,27.752,0,0,1,2.893,8.18,12.313,12.313,0,0,0,1.955.278,17.142,17.142,0,0,0,2.311,5.952,16.745,16.745,0,0,0,2.717,3.378,14.255,14.255,0,0,0,5.349,3.206,22.022,22.022,0,0,0,8.809.907,14.693,14.693,0,0,0,3.346-.808c4.135-1.431,9.894-4.714,11.994-9.607a9.687,9.687,0,0,0,.783-4.549,4.05,4.05,0,0,0,1.371-.255C757.659,748.2,759.1,743.669,758.917,741.829ZM750.155,760.1c-4.256,4.449-14.73,5.832-20.789,2.064s-7.3-13.708-7.4-15.339,2.558-4.39,2.558-4.39.675,1.668,3.512.572a5.821,5.821,0,0,0,3.2-3.949c.025.442.372.836,1.818.422,2.617-.76,5.8-7.143,5.8-7.143.059-.1.116-.2.171-.309,1.627,3.825,5.439,7.658,6.708,7.6,1.421-.061,1.031-2,.988-2.2.109.249,1.683,3.855,3.238,4.4,1.611.564,1.425-1.543,1.425-1.543,1.616,6.806,4.061,5.859,4.061,5.859C756.081,750.535,754.417,755.658,750.155,760.1Z" transform="translate(-704.088 -720.87)" fill="#e55b30" opacity="0.2" style="mix-blend-mode: multiply;isolation: isolate"/>
      <path id="Path_3355" data-name="Path 3355" d="M726.32,743.523c-.016-.1,3.074-3.193,5.915-3.292a3.475,3.475,0,0,0-3.876-.813C725.16,740.864,726.32,743.523,726.32,743.523Z" transform="translate(-705.807 -722.437)" fill="#913f06"/>
      <path id="Path_3356" data-name="Path 3356" d="M751.332,740.726a7.978,7.978,0,0,1,6.463,1.738s.844-2.671-1.719-3.378S751.332,740.726,751.332,740.726Z" transform="translate(-710.367 -722.408)" fill="#934007"/>
      <path id="Path_3357" data-name="Path 3357" d="M747.349,773.338a48.908,48.908,0,0,1-1.863,5.072A37.537,37.537,0,0,0,736.6,777.4c-.7-1.708-1.406-4.166-1.406-4.166a20.119,20.119,0,0,0,8.809.909A14.518,14.518,0,0,0,747.349,773.338Z" transform="translate(-707.449 -728.606)" fill="#e55b30" opacity="0.3" style="mix-blend-mode: multiply;isolation: isolate"/>
    </g>
    <g id="Group_800" data-name="Group 800" transform="translate(729.644 706.508)">
      <path id="Path_3358" data-name="Path 3358" d="M742.925,755.473c-1.449,0-1.807-.912-1.684-2.072a15.178,15.178,0,0,1,1.742-4.572,13.633,13.633,0,0,1,1.67,4.718C744.7,754.63,744.3,755.473,742.925,755.473Z" transform="translate(-741.219 -748.829)" fill="url(#linear-gradient-22)"/>
      <path id="Path_3359" data-name="Path 3359" d="M742.925,756.482c-1.449,0-1.807-.912-1.684-2.072a1.816,1.816,0,0,0,1.7.87,2.443,2.443,0,0,0,1.715-.724C744.7,755.64,744.3,756.482,742.925,756.482Z" transform="translate(-741.219 -749.838)" fill="#e55b30" opacity="0.2" style="mix-blend-mode: multiply;isolation: isolate"/>
    </g>
    <path id="Path_3360" data-name="Path 3360" d="M765.709,724.73l-2.191-.351a12.386,12.386,0,0,1-1.086-3.59,19.912,19.912,0,0,1,.433-7.594l1.912.512a21.8,21.8,0,0,0-.383,7.092A8.347,8.347,0,0,0,765.709,724.73Z" transform="translate(-15.376 -35.878)" fill="#489fbf"/>
    <path id="Path_3361" data-name="Path 3361" d="M746.9,766.441a7.1,7.1,0,0,1-3.6.817,9.177,9.177,0,0,1-3.686-.805c.349-.829,1.453-2,3.778-1.627A6.886,6.886,0,0,1,746.9,766.441Z" transform="translate(-11.284 -45.201)" fill="#cc5050"/>
    <path id="Path_3362" data-name="Path 3362" d="M749.41,761.719a5.882,5.882,0,0,1-.373.877c-5.517,1.5-11.163.872-13.1.84a5.727,5.727,0,0,1-.684-1.053C735.858,761.714,741.244,758.94,749.41,761.719Z" transform="translate(-10.496 -44.433)" fill="#fff"/>
    <path id="Path_3363" data-name="Path 3363" d="M709.306,764.668a19.081,19.081,0,0,1-3.133,4.03c.029-.223,0-.331-.125-.246a9.9,9.9,0,0,1-3.391,1.688,3.159,3.159,0,0,1-.415.063.186.186,0,0,1-.051.005c-.673.02-.958-.734-.84-1.262a.6.6,0,0,1,.025-.1c1.114.135,3.726-.972,6.245-3.293C707.621,765.557,709.881,763.416,709.306,764.668Z" transform="translate(-4.362 -45.114)" fill="#ad5c00" opacity="0.2" style="mix-blend-mode: multiply;isolation: isolate"/>
    <path id="Path_3364" data-name="Path 3364" d="M711.541,764.669a26.934,26.934,0,0,1-.542,3c-.04-.306-.065-.5-.065-.537a32.412,32.412,0,0,1-1.561,2.969c-.379.627-1.4,2.7-2.333,2.513a.412.412,0,0,1-.234-.135,13.519,13.519,0,0,0,2.412-3.578C710.256,766.81,711.718,763.063,711.541,764.669Z" transform="translate(-5.353 -45.115)" fill="#ad5c00" opacity="0.2" style="mix-blend-mode: multiply;isolation: isolate"/>
    <path id="Path_3365" data-name="Path 3365" d="M716.19,764.631a13.076,13.076,0,0,0-.308,4.559s0,0,0,.007v0c-.092.724-.346,3.047-.442,3.511a3.47,3.47,0,0,1-.378.628,2.691,2.691,0,0,1-.4.45,1.568,1.568,0,0,1-.185.147,31.99,31.99,0,0,1,.075-7.342C714.938,764.643,716.515,763.243,716.19,764.631Z" transform="translate(-6.709 -45.077)" fill="#ad5c00" opacity="0.2" style="mix-blend-mode: multiply;isolation: isolate"/>
    <path id="Path_3366" data-name="Path 3366" d="M720.985,770.334a1.744,1.744,0,0,1-.293.71,1.312,1.312,0,0,1-.087.114,4.592,4.592,0,0,1-.483.5,39.23,39.23,0,0,0-1.067-4.742c-.753-3.248-.263-5.151.223-3.422.252.9.642,1.981,1.019,2.924-.032-.033-.053-.061-.078-.088-.174-.21.238,1.273.422,1.774.014.037.025.075.039.111A4.244,4.244,0,0,1,720.985,770.334Z" transform="translate(-7.497 -44.855)" fill="#ad5c00" opacity="0.2" style="mix-blend-mode: multiply;isolation: isolate"/>
    <path id="Path_3367" data-name="Path 3367" d="M723.478,767.568c0,.021-.069.042-.083.064a.583.583,0,0,1-.317.291h0c-.583-1.65-1.953-3.348-2.4-5.779a27.238,27.238,0,0,1-.515-3.554s-5.484-.5-6.8-2.383a15.849,15.849,0,0,1,1.747-.636c.258-.079.5-.139.715-.193a2.153,2.153,0,0,0,.23.308.515.515,0,0,0,.044.056,2.174,2.174,0,0,0,.207.239.833.833,0,0,0,.062.058,1.165,1.165,0,0,0,.142.128,3.961,3.961,0,0,0,.789.49c.012,0,.017.008.025.011.046.022.084.043.132.064h0c.065.028.132.057.2.083a.464.464,0,0,1,.059.024c.052.017.1.035.147.053a8.636,8.636,0,0,0,.877.259c.132.034.258.065.385.089a12.7,12.7,0,0,0,1.755.23,17.913,17.913,0,0,0,2.362,5.955C723.586,765.254,723.872,766.883,723.478,767.568Z" transform="translate(-6.536 -43.505)" fill="#ad5c00" opacity="0.2" style="mix-blend-mode: multiply;isolation: isolate"/>
    <path id="Path_3368" data-name="Path 3368" d="M720.883,805.421c-2.793-.98-7.679-5.027-9.426-6.774-.229.94-.431,1.923-.6,2.957,0,0,.515.44,1.334,1.085a38.158,38.158,0,0,0,7.521,4.826h0c.048.021.1.039.147.058l.195.079c.156.059.311.116.46.164,0,0-.928,4.932-1.525,11.3a93.689,93.689,0,0,0-.409,12.838s.954.169,2.548.6C718.737,823.814,721.3,806.777,720.883,805.421Z" transform="translate(-6.085 -51.329)" opacity="0.4" fill="url(#linear-gradient-23)" style="mix-blend-mode: multiply;isolation: isolate"/>
    <path id="Path_3369" data-name="Path 3369" d="M773.226,800.807a33.155,33.155,0,0,0-.918-3.618c-1.384,1.393-5.95,6.082-7.92,7.169a247.651,247.651,0,0,1-1.13,28.441,10.649,10.649,0,0,0,2.868-1.105s-.083-6.185-.329-12.564c-.171-4.43-.418-8.956-.768-11.578l-.005-.019c-.043-.334-.088-.635-.138-.9l.414-.229c.033-.019.059-.034.094-.052h0a48.5,48.5,0,0,0,6.524-4.366C772.381,801.6,772.825,801.206,773.226,800.807Z" transform="translate(-15.56 -51.065)" opacity="0.4" fill="url(#linear-gradient-24)" style="mix-blend-mode: multiply;isolation: isolate"/>
    <path id="Path_3370" data-name="Path 3370" d="M758.733,842.1c-14.586,6.184-33.688,1.211-38.658-.272l.157-2.4c.039,0,.009-.115.009-.115,3.5.838,23.592,5.989,38.079.1A11.761,11.761,0,0,1,758.733,842.1Z" transform="translate(-7.752 -58.681)" fill="#009494"/>
    <g id="Group_801" data-name="Group 801" transform="translate(712.045 781.805)" opacity="0.4">
      <path id="Path_3371" data-name="Path 3371" d="M727.374,841.1c-1.176.887-6.454,4.549-7.638,5.253l.053-.852a71.354,71.354,0,0,0,5.667-4.757C725.747,840.8,727.065,841.047,727.374,841.1Z" transform="translate(-719.736 -840.746)" fill="#076877"/>
      <path id="Path_3372" data-name="Path 3372" d="M766.3,846.454a37.677,37.677,0,0,1-6.526-4.988c.264-.064,1.307-.3,1.569-.375a32.608,32.608,0,0,0,4.874,4.443C766.246,845.833,766.274,846.141,766.3,846.454Z" transform="translate(-726.975 -840.808)" fill="#076877"/>
      <path id="Path_3373" data-name="Path 3373" d="M743.373,850.417a.358.358,0,0,1-.642-.12,51.377,51.377,0,0,1-.592-7.587c.235.013.471.025.709.035a52.406,52.406,0,0,0,.452,6.553,10.227,10.227,0,0,0,1.779-6.5c.237.009.479.009.72.009A11.189,11.189,0,0,1,743.373,850.417Z" transform="translate(-723.787 -841.101)" fill="#076877"/>
    </g>
    <path id="Path_3374" data-name="Path 3374" d="M764.737,861.281c-4.125.827-18.259,2.327-19.317,2.533l-.036-.295C754.2,862.183,764.215,860.91,764.737,861.281Z" transform="translate(-12.328 -62.642)" fill="#00cbd2" opacity="0.4" style="mix-blend-mode: screen;isolation: isolate"/>
    <path id="Path_3375" data-name="Path 3375" d="M738.651,864.228c-.313.166-3.154.244-9.054-.147s-11.287-1.3-11.287-1.3.136-.032.377-.085C722.135,862.571,738.651,864.228,738.651,864.228Z" transform="translate(-7.433 -62.908)" fill="#00cbd2" opacity="0.4" style="mix-blend-mode: screen;isolation: isolate"/>
    <path id="Path_3376" data-name="Path 3376" d="M754.6,808.423a67.187,67.187,0,0,0-4.916-6.848c-2.274-2.621-2.274-8.656,1.1-8.746s3.638,5.857,3.638,5.857-.661-6.034,3.242-5.058S758.858,803.569,754.6,808.423Z" transform="translate(-12.818 -50.277)" fill="#00cbd2" opacity="0.4" style="mix-blend-mode: screen;isolation: isolate"/>
    <path id="Path_3377" data-name="Path 3377" d="M727.929,825.982s6.037-5.46,4.438-8.832-5.271-3.059-5.12,1.355c0,0,.1-3.47-2.093-2.946S726.066,824.253,727.929,825.982Z" transform="translate(-8.534 -54.263)" fill="#00cbd2" opacity="0.4" style="mix-blend-mode: screen;isolation: isolate"/>
    <g id="Group_802" data-name="Group 802" transform="translate(749.324 750.922)">
      <path id="Path_3378" data-name="Path 3378" d="M775.514,841.438a7.225,7.225,0,0,1-.454,6.078,9.615,9.615,0,0,1-.726,1.221c-.016.024-.032.043-.049.067l0,.008a17.465,17.465,0,0,1-1.344,1.724,5.6,5.6,0,0,1-1.353,1.174l-.006,0c-.438.24-.737.229-.9.089a.534.534,0,0,1-.152-.508c.12-.762,1.347-6.533.85-7.074a.106.106,0,0,0-.129-.035c-.8.254-1.1,2.914-1.462,3s-.871-3.54.936-6.619a95.2,95.2,0,0,0-3.216-14.094,51.6,51.6,0,0,1-1.346-6.28,118.558,118.558,0,0,0-.912-12.5,49.93,49.93,0,0,0,7.032-4.647c.026.1.054.2.079.3,1.3,4.9,3.87,14.271,3.834,23.893C776.15,838.366,775.514,841.438,775.514,841.438Z" transform="translate(-765.243 -803.046)" fill="url(#linear-gradient-25)"/>
      <path id="Path_3379" data-name="Path 3379" d="M768.91,823.8c1.925,6.11,2.989,15.162,2.723,17.292a28.4,28.4,0,0,0-1.852,6.087c-.355.085-.871-3.54.936-6.619a95.2,95.2,0,0,0-3.216-14.094,51.6,51.6,0,0,1-1.346-6.28,118.558,118.558,0,0,0-.912-12.5,49.93,49.93,0,0,0,7.032-4.647c.026.1.054.2.079.3-1.118,2.184-4.394,5.841-5.453,7.3A52.855,52.855,0,0,0,768.91,823.8Z" transform="translate(-765.243 -803.046)" fill="#e55b30" opacity="0.2" style="mix-blend-mode: multiply;isolation: isolate"/>
      <path id="Path_3380" data-name="Path 3380" d="M772.411,859.445a9.6,9.6,0,0,1-.575,1.107.534.534,0,0,1-.152-.508c.12-.762,1.347-6.533.85-7.074v-.007c.319-1.4.854-2.191.854-.821S773.446,857.214,772.411,859.445Z" transform="translate(-766.406 -811.794)" fill="#e55b30" opacity="0.2" style="mix-blend-mode: multiply;isolation: isolate"/>
      <path id="Path_3381" data-name="Path 3381" d="M774.336,859.582a5.6,5.6,0,0,1-1.353,1.174,11.68,11.68,0,0,0,1.531-4.578c.234-2.191.532-3.813.709-2.8A28.21,28.21,0,0,1,774.336,859.582Z" transform="translate(-766.642 -812.091)" fill="#e55b30" opacity="0.2" style="mix-blend-mode: multiply;isolation: isolate"/>
      <path id="Path_3382" data-name="Path 3382" d="M777.056,856.583a9.591,9.591,0,0,1-.726,1.221c-.016.025-.032.043-.049.067.193-1.226.672-3.672.719-4.467C777.059,852.536,777.265,854.51,777.056,856.583Z" transform="translate(-767.239 -812.113)" fill="#e55b30" opacity="0.2" style="mix-blend-mode: multiply;isolation: isolate"/>
    </g>
    <g id="Group_803" data-name="Group 803" transform="translate(703.065 751.36)">
      <path id="Path_3383" data-name="Path 3383" d="M720.133,808.708s-.928,4.932-1.525,11.3c-.48,2.585-1.091,5.379-1.861,8.2-2.585,9.44-1.715,13.877-1.715,13.877a7.5,7.5,0,0,1,.99,7.055c-.067.122-.134.179-.18.167-.358-.075-.735-2.722-1.543-2.958s.765,6.278.919,7.091a.468.468,0,0,1-.342.6,1.316,1.316,0,0,1-.9-.275h0a6.391,6.391,0,0,1-1.157-.99l0,0a15.579,15.579,0,0,1-1.112-1.31c-.006-.007-.01-.015-.014-.017-.113-.145-.23-.3-.352-.465a7.632,7.632,0,0,1-.905-1.615v-.005a9.141,9.141,0,0,1,.242-6.837s-1.516-3.512-1.864-14.629c-.306-9.734,1.757-18.75,2.823-23.5.068-.292.127-.564.183-.822C713.76,805.119,717.438,807.836,720.133,808.708Z" transform="translate(-708.774 -803.581)" fill="url(#linear-gradient-26)"/>
      <path id="Path_3384" data-name="Path 3384" d="M720.763,808.708s-.928,4.932-1.525,11.3c-.48,2.585-1.091,5.379-1.861,8.2-2.585,9.44-1.714,13.877-1.714,13.877a7.5,7.5,0,0,1,.99,7.055,24.968,24.968,0,0,0-1.934-7.6c-1.363-3.255.65-11.3,2.188-16.51s2.072-13.667,2.072-13.667c-.315-.158-5.371-5.358-6.72-6.97.068-.292.127-.564.184-.822C714.39,805.119,718.067,807.836,720.763,808.708Z" transform="translate(-709.403 -803.581)" fill="#e55b30" opacity="0.2" style="mix-blend-mode: multiply;isolation: isolate"/>
      <path id="Path_3385" data-name="Path 3385" d="M715.9,863.249c-.777-1.312-1.6-6.087-1.44-7.7.178-1.758.709-1.139.863,0-.811-.229.765,6.278.919,7.091A.468.468,0,0,1,715.9,863.249Z" transform="translate(-709.798 -812.779)" fill="#e55b30" opacity="0.2" style="mix-blend-mode: multiply;isolation: isolate"/>
      <path id="Path_3386" data-name="Path 3386" d="M714.636,863.309a6.4,6.4,0,0,1-1.157-.99l0,0c-.6-1.877-1.173-4.977-.973-5.69.238-.844.415.077.592,1.914A14.308,14.308,0,0,0,714.636,863.309Z" transform="translate(-709.441 -813.115)" fill="#e55b30" opacity="0.2" style="mix-blend-mode: multiply;isolation: isolate"/>
      <path id="Path_3387" data-name="Path 3387" d="M712.041,861.011c-.113-.145-.23-.3-.352-.464a7.632,7.632,0,0,1-.905-1.615v-.005c-.016-.241-.03-.5-.034-.78-.025-2.249.5-1.893.5-1.079A13.47,13.47,0,0,0,712.041,861.011Z" transform="translate(-709.131 -813.139)" fill="#e55b30" opacity="0.2" style="mix-blend-mode: multiply;isolation: isolate"/>
    </g>
    <g id="Group_804" data-name="Group 804" transform="translate(720.389 864.049)">
      <path id="Path_3388" data-name="Path 3388" d="M738.858,947.428c-.238.709-2.749.887-4.464.827s-4.473-.533-4.473-1.836a2.927,2.927,0,0,1,.251-1c.647-1.638,2.389-4.111,3.238-4.266,1.313-.232,4.108,3.392,5.1,5.262A1.959,1.959,0,0,1,738.858,947.428Z" transform="translate(-729.922 -941.142)" fill="#9b5d6d"/>
      <path id="Path_3389" data-name="Path 3389" d="M738.858,948.371c-.238.709-2.749.887-4.464.827s-4.473-.533-4.473-1.836a2.927,2.927,0,0,1,.251-1,9.233,9.233,0,0,0,8.335,1A1.96,1.96,0,0,1,738.858,948.371Z" transform="translate(-729.922 -942.086)" fill="#ba8d9a"/>
    </g>
    <g id="Group_805" data-name="Group 805" transform="translate(738.847 864.415)">
      <path id="Path_3390" data-name="Path 3390" d="M760.506,947.094c.056.65-1.243,1.6-3.728,1.774s-4.2-.3-4.32-1.36a2.333,2.333,0,0,1,.211-.92c.677-1.761,2.728-4.984,3.221-5,1.652-.049,3.66,3.255,4.36,4.8A2.907,2.907,0,0,1,760.506,947.094Z" transform="translate(-752.454 -941.589)" fill="#9b5d6d"/>
      <path id="Path_3391" data-name="Path 3391" d="M760.506,948.153c.056.65-1.243,1.6-3.728,1.774s-4.2-.3-4.32-1.36a2.333,2.333,0,0,1,.211-.92c1.469.787,4.878,1.647,7.581-.2A2.907,2.907,0,0,1,760.506,948.153Z" transform="translate(-752.454 -942.648)" fill="#ba8d9a"/>
    </g>
    <path id="Path_3392" data-name="Path 3392" d="M748.319,718.441c-.582-.16.111-.352-.025-.235C748.262,718.235,748.269,718.317,748.319,718.441Z" transform="translate(-12.816 -36.778)" fill="#e55b30" opacity="0.2" style="mix-blend-mode: multiply;isolation: isolate"/>
    <path id="Path_3393" data-name="Path 3393" d="M765.751,726.406l-2.191-.352a12.387,12.387,0,0,1-1.086-3.59c.675.025,1.413.036,1.963.011A8.348,8.348,0,0,0,765.751,726.406Z" transform="translate(-15.418 -37.554)" fill="#489fbf" opacity="0.3" style="mix-blend-mode: multiply;isolation: isolate"/>
    <g id="Group_806" data-name="Group 806" transform="translate(725.157 599.994)">
      <path id="Path_3394" data-name="Path 3394" d="M743.218,703.821c0,.252-.319.454-.715.454h-6.028l-.011-.906H742.5C742.9,703.369,743.218,703.574,743.218,703.821Z" transform="translate(-735.873 -634.096)" fill="#827f7a"/>
      <path id="Path_3395" data-name="Path 3395" d="M743.2,691.742c0,.25-.319.451-.715.451h-6.113l-.007-.9h6.119C742.881,691.292,743.2,691.494,743.2,691.742Z" transform="translate(-735.855 -631.912)" fill="#827f7a"/>
      <path id="Path_3396" data-name="Path 3396" d="M743.182,679.66c0,.251-.32.45-.715.45h-6.2l-.006-.9h6.2C742.862,679.209,743.182,679.412,743.182,679.66Z" transform="translate(-735.836 -629.728)" fill="#827f7a"/>
      <path id="Path_3397" data-name="Path 3397" d="M743.163,667.582c0,.247-.32.451-.715.451h-6.282l-.007-.9h6.29C742.843,667.131,743.163,667.333,743.163,667.582Z" transform="translate(-735.817 -627.544)" fill="#827f7a"/>
      <path id="Path_3398" data-name="Path 3398" d="M743.144,655.5c0,.252-.32.455-.715.455h-6.368l-.007-.9h6.375C742.824,655.049,743.144,655.25,743.144,655.5Z" transform="translate(-735.798 -625.359)" fill="#827f7a"/>
      <path id="Path_3399" data-name="Path 3399" d="M743.125,643.421c0,.248-.32.451-.715.451h-6.454l-.006-.9h6.46C742.806,642.97,743.125,643.172,743.125,643.421Z" transform="translate(-735.78 -623.175)" fill="#827f7a"/>
      <path id="Path_3400" data-name="Path 3400" d="M743.107,631.337c0,.252-.319.451-.715.451h-6.535l-.01-.9h6.545C742.787,630.887,743.107,631.088,743.107,631.337Z" transform="translate(-735.761 -620.99)" fill="#827f7a"/>
      <path id="Path_3401" data-name="Path 3401" d="M743.088,619.258c0,.248-.32.452-.715.452h-6.62l-.011-.9h6.63C742.768,618.806,743.088,619.012,743.088,619.258Z" transform="translate(-735.742 -618.806)" fill="#827f7a"/>
    </g>
    <g id="Group_807" data-name="Group 807" transform="translate(841.086 659.824)">
      <path id="Path_3402" data-name="Path 3402" d="M887.626,701.285a7.566,7.566,0,0,1-4.792,2.073c-2.077,0-5.307-2.073-5.307-2.073l-.212-7.234-.055-1.792,9.3-.416.152,1.346Z" transform="translate(-877.259 -691.842)" fill="#d9f7f6" opacity="0.5"/>
      <path id="Path_3403" data-name="Path 3403" d="M886.713,693.188l-9.4.862-.055-1.793,9.3-.416Z" transform="translate(-877.259 -691.842)" fill="#93cdd1" opacity="0.5" style="mix-blend-mode: multiply;isolation: isolate"/>
    </g>
    <path id="Path_3404" data-name="Path 3404" d="M883.589,691.276l.861-.4.49,4.172-.677-.357Z" transform="translate(-37.317 -31.843)" fill="#cc545d"/>
    <path id="Path_3405" data-name="Path 3405" d="M882.183,583.539h-.016c-2.683-.568-7.007,7.014-7.007,7.014a123.506,123.506,0,0,0-2.482-14.119c-1.657-6.649-6.927-10.943-9.188-12.66s-5.962,1.776-11.877,5.446-14.8,1.893-14.8,1.893c.916,11.918-3.345,18.344-3.613,18.737a.066.066,0,0,0-.015.02c-1.319-4.67-2.368-15.982-1.81-20.207a17.53,17.53,0,0,1,.326-1.783c2.055,3.61,7.118.524,12.348-.673,5.7-1.3,6.373-8.166,17.4-4.732,9.2,2.86,10.609-2.347,9.989-6.764a28.657,28.657,0,0,1,7.5,8.184C883.617,571.706,882.183,583.539,882.183,583.539Z" transform="translate(-27.849 -7.403)" opacity="0.3" fill="url(#linear-gradient-27)" style="mix-blend-mode: multiply;isolation: isolate"/>
    <g id="Group_808" data-name="Group 808" transform="translate(803.658 543.799)" opacity="0.4" style="mix-blend-mode: screen;isolation: isolate">
      <path id="Path_3406" data-name="Path 3406" d="M831.94,566.723c.029-.117.06-.23.094-.344a23.691,23.691,0,0,0,8.86-.737,32.651,32.651,0,0,0,9.824-4.964c2.993-2.129,5.795-4.56,8.951-6.459a24.155,24.155,0,0,1,6.134-2.52c.184.075.363.152.544.231a24.975,24.975,0,0,0-7.319,3.11c-3.245,2.112-6.166,4.673-9.4,6.807a30,30,0,0,1-9.466,4.356A24.825,24.825,0,0,1,831.94,566.723Z" transform="translate(-831.636 -550.477)" fill="#823703"/>
      <path id="Path_3407" data-name="Path 3407" d="M868.226,553.112a.476.476,0,0,1-.023.075,11.75,11.75,0,0,1-1.345,2.658,32,32,0,0,1-4.026,4.732,26.763,26.763,0,0,1-10.509,6.617,39.978,39.978,0,0,1-13.3,2.323,27.8,27.8,0,0,1-7.451-1.167c.017-.127.042-.252.071-.376,7.186,2.115,14.977,1.081,22.041-1.628a27.3,27.3,0,0,0,10.336-7.525,17.47,17.47,0,0,0,3.754-5.473,2.841,2.841,0,0,0,.109-.421C868,552.99,868.111,553.05,868.226,553.112Z" transform="translate(-831.569 -550.699)" fill="#823703"/>
      <path id="Path_3408" data-name="Path 3408" d="M863.25,550.425a33.99,33.99,0,0,0-14.494,5.721c-2.756,1.982-5.434,4.559-8.651,5.773a14.679,14.679,0,0,1-6.345.618c.062-.116.121-.23.185-.343a13.207,13.207,0,0,0,7.125-1.073c3.077-1.6,5.616-4.09,8.522-5.968a34.983,34.983,0,0,1,12.833-4.945C862.7,550.276,862.976,550.345,863.25,550.425Z" transform="translate(-831.965 -550.207)" fill="#823703"/>
    </g>
    <path id="Path_3409" data-name="Path 3409" d="M863.968,582.268c-.616-.059,3.608-2.45,6.531-1.5,2.724.886,3.549,4.2,2.975,4.279C873,585.108,871.9,583.033,863.968,582.268Z" transform="translate(-33.758 -11.894)" fill="#803400"/>
    <path id="Path_3410" data-name="Path 3410" d="M845.121,581.894c.291-.138-7.138-3.509-8.678,2.932A75,75,0,0,0,845.121,581.894Z" transform="translate(-28.793 -11.956)" fill="#803400"/>
    <g id="Group_809" data-name="Group 809" transform="translate(817.083 595.512)">
      <path id="Path_3411" data-name="Path 3411" d="M860.617,613.335a7.954,7.954,0,0,1-.417,1.84,6.616,6.616,0,0,1-2.751,3.553,7.011,7.011,0,0,1-3.709.94,5.523,5.523,0,0,1-2.911-.766,6.114,6.114,0,0,1-2.227-2.492,7.251,7.251,0,0,1-.637-1.765S857.123,615.411,860.617,613.335Z" transform="translate(-847.959 -613.335)" fill="#bf4242"/>
      <path id="Path_3412" data-name="Path 3412" d="M860.616,613.335s.164.055-.193,1.092c-2.887,2.4-6.79,2.88-12.057,1.474-.491-.963-.4-1.256-.4-1.256S857.121,615.411,860.616,613.335Z" transform="translate(-847.957 -613.335)" fill="#fff"/>
      <path id="Path_3413" data-name="Path 3413" d="M858.082,619.725a7.011,7.011,0,0,1-3.709.94,5.524,5.524,0,0,1-2.911-.766c1.165-.547,3.468-1.431,5.173-.865A6.009,6.009,0,0,1,858.082,619.725Z" transform="translate(-848.591 -614.333)" fill="#d46464"/>
    </g>
    <g id="Group_810" data-name="Group 810" transform="translate(810.703 614.247)">
      <path id="Path_3414" data-name="Path 3414" d="M845.435,677.9a2.632,2.632,0,1,1-2.633-2.633A2.633,2.633,0,0,1,845.435,677.9Z" transform="translate(-840.17 -643.267)" fill="#c4c2c0"/>
      <path id="Path_3415" data-name="Path 3415" d="M842.572,651.179a105.172,105.172,0,0,0-.241,14.043c.54.113,1.019.191,1.434.241a104.361,104.361,0,0,1,.22-14.147c.56-5.764,2.057-12.617,5.974-13.722-.116-.434-.223-.907-.315-1.388C845.818,637.2,843.439,642.224,842.572,651.179Z" transform="translate(-840.538 -636.205)" fill="url(#linear-gradient-28)"/>
      <path id="Path_3416" data-name="Path 3416" d="M842.588,675.666l.032.468a.714.714,0,0,0,.709.668c.014,0,.029-.007.042-.007a.7.7,0,0,0,.664-.749l-.029-.477c-.052-.795-.137-2.082-.213-3.7-.414-.05-.894-.128-1.434-.241C842.438,673.4,842.53,674.813,842.588,675.666Z" transform="translate(-840.566 -642.61)" fill="#b0afaf"/>
      <path id="Path_3417" data-name="Path 3417" d="M844.47,677.99a1.349,1.349,0,1,1-1.348-1.348A1.349,1.349,0,0,1,844.47,677.99Z" transform="translate(-840.46 -643.516)" fill="#d4d4d4"/>
    </g>
    <path id="Path_3418" data-name="Path 3418" d="M865.46,959.208c-.177.709-18.995,1.951-21.124,1.6,0,0,5.235-6.593,12.113-8S865.46,959.208,865.46,959.208Z" transform="translate(-30.22 -79.172)" fill="#3a261b"/>
  </g>
</svg>
