<svg xmlns="http://www.w3.org/2000/svg" width="27" height="28" viewBox="0 0 27 28">
  <g id="notification_icon" data-name="notification icon" transform="translate(-0.006 0.434)">
    <g id="Iconly_Light_Notification" data-name="Iconly/Light/Notification" transform="translate(0.006 -0.434)">
      <g id="Notification" transform="translate(4.007 2.29)">
        <path id="Path_425" d="M0,13.495v-.251A4.122,4.122,0,0,1,.69,11.162,5.576,5.576,0,0,0,2.056,8.513c0-.763,0-1.537.067-2.3C2.467,2.54,6.1,0,9.687,0h.089C13.363,0,17,2.54,17.351,6.213c.067.763,0,1.537.056,2.3a5.673,5.673,0,0,0,1.366,2.66,4.014,4.014,0,0,1,.689,2.071v.24a4.083,4.083,0,0,1-.966,2.736,5.158,5.158,0,0,1-3.266,1.57,51.607,51.607,0,0,1-11.008,0A5.214,5.214,0,0,1,.956,16.22,4.126,4.126,0,0,1,0,13.495Z" transform="translate(0 0)" fill="none" stroke="#fff" stroke-linecap="round" stroke-linejoin="round" stroke-miterlimit="10" stroke-width="1.5"/>
        <path id="Path_421" d="M0,0A3.5,3.5,0,0,0,2.332,1.29,3.535,3.535,0,0,0,4.91.578,3.3,3.3,0,0,0,5.509,0" transform="translate(6.932 21.583)" fill="none" stroke="#fff" stroke-linecap="round" stroke-linejoin="round" stroke-miterlimit="10" stroke-width="1.5"/>
      </g>
    </g>
    <g id="Ellipse_1" data-name="Ellipse 1" transform="translate(15.006 -0.434)" fill="#0eb214" stroke="#fff" stroke-width="1">
      <ellipse cx="4.5" cy="5" rx="4.5" ry="5" stroke="none"/>
      <ellipse cx="4.5" cy="5" rx="4" ry="4.5" fill="none"/>
    </g>
  </g>
</svg>
