<svg id="_3359100" data-name="3359100" xmlns="http://www.w3.org/2000/svg" width="136.721" height="136.721" viewBox="0 0 136.721 136.721">
  <path id="Path_2565" data-name="Path 2565" d="M32.764,75.012H19.947a5.7,5.7,0,1,1,0-11.393H32.764a5.7,5.7,0,0,0,5.7-5.7V15.2a5.7,5.7,0,0,1,11.393,0V57.922A17.111,17.111,0,0,1,32.764,75.012Z" transform="translate(66.928 44.619)" fill="#f5c32f"/>
  <path id="Path_2566" data-name="Path 2566" d="M86.875,61.574H4.273A4.274,4.274,0,0,1,0,57.3V37.363A21.392,21.392,0,0,1,21.363,16H69.785A21.392,21.392,0,0,1,91.147,37.363V57.3A4.274,4.274,0,0,1,86.875,61.574Z" transform="translate(0 75.147)" fill="#ea891b"/>
  <path id="Path_2567" data-name="Path 2567" d="M54.713,16.3C40.529,16.637,34.832,7.75,34.832,7.75,24.578,17.32,8.456,16.865,3.557,16.466L3.5,17.719a25.635,25.635,0,1,0,51.27,0Z" transform="translate(16.438 36.399)" fill="#ffcc80"/>
  <path id="Path_2568" data-name="Path 2568" d="M29.088,5A25.612,25.612,0,0,0,3.51,29.382c4.9.4,21.021.855,31.275-8.716,0,0,5.7,8.887,19.881,8.545A25.663,25.663,0,0,0,29.088,5Z" transform="translate(16.485 23.483)" fill="#607d8b"/>
  <path id="Path_2569" data-name="Path 2569" d="M45.574,16H21.363A21.392,21.392,0,0,0,0,37.363V57.3a4.274,4.274,0,0,0,4.273,4.273h41.3Z" transform="translate(0 75.147)" fill="#f6a951"/>
  <path id="Path_2570" data-name="Path 2570" d="M29.135,8.467c-7.172,3.925-15.438,4.762-20.924,4.8H7.829c-1.76,0-3.213-.08-4.21-.16a.255.255,0,0,0-.063-.006L3.5,14.352A25.674,25.674,0,0,0,29.135,39.987Z" transform="translate(16.438 39.767)" fill="#deb26f"/>
  <path id="Path_2571" data-name="Path 2571" d="M29.088,5A25.612,25.612,0,0,0,3.51,29.382c.023,0,.04.006.063.006,1,.08,2.45.16,4.21.16h.382c5.486-.034,13.752-.872,20.924-4.8Z" transform="translate(16.485 23.483)" fill="#546d79"/>
  <path id="Path_2572" data-name="Path 2572" d="M40.635,62.664A25.666,25.666,0,0,1,15,37.029V9.969A9.98,9.98,0,0,1,24.969,0H56.3A9.98,9.98,0,0,1,66.27,9.969V37.029A25.666,25.666,0,0,1,40.635,62.664Z" transform="translate(70.451)" fill="#eceff1"/>
  <path id="Path_2573" data-name="Path 2573" d="M39.787,11.045H36.938V8.2a5.7,5.7,0,1,0-11.393,0v2.848H22.7a5.7,5.7,0,1,0,0,11.393h2.848v2.848a5.7,5.7,0,1,0,11.393,0V22.438h2.848a5.7,5.7,0,0,0,0-11.393Z" transform="translate(79.844 11.742)" fill="#f44336"/>
  <path id="Path_2574" data-name="Path 2574" d="M40.635,0H24.969A9.98,9.98,0,0,0,15,9.969V37.029A25.666,25.666,0,0,0,40.635,62.664V42.725a5.7,5.7,0,0,1-5.7-5.7V34.18H32.09a5.7,5.7,0,0,1,0-11.393h2.848V19.938a5.7,5.7,0,0,1,5.7-5.7Z" transform="translate(70.451)" fill="#cdd0d2"/>
  <path id="Path_2575" data-name="Path 2575" d="M31.242,2.5a5.7,5.7,0,0,0-5.7,5.7v2.848H22.7a5.7,5.7,0,1,0,0,11.393h2.848v2.848a5.7,5.7,0,0,0,5.7,5.7Z" transform="translate(79.844 11.742)" fill="#d43a2f"/>
</svg>
