<svg xmlns="http://www.w3.org/2000/svg" width="57" height="57" viewBox="0 0 57 57">
  <g id="twitter" transform="translate(-0.363 -0.059)">
    <g id="Ellipse_t" data-name="Ellipse t" transform="translate(0.363 0.059)" fill="#fff" stroke="#e6e6e6" stroke-width="1">
      <circle cx="28.5" cy="28.5" r="28.5" stroke="none"/>
      <circle cx="28.5" cy="28.5" r="28" fill="none"/>
    </g>
    <path id="t" d="M330.109,249.016a8.612,8.612,0,0,1-2.875.878,5.883,5.883,0,0,0,2.159-3.03,8.019,8.019,0,0,1-3.232,1.233l0,0a5,5,0,0,0-3.746-1.725,5.391,5.391,0,0,0-5.181,5.579,5.943,5.943,0,0,0,.134,1.243h0a14.568,14.568,0,0,1-10.973-5.788,5.843,5.843,0,0,0,1.57,7.371,3.155,3.155,0,0,1-2.261-.629,5.332,5.332,0,0,0,3.995,5.45,3.78,3.78,0,0,1-2.156.175,4.985,4.985,0,0,0,4.629,3.788A8.119,8.119,0,0,1,305,265.878a14.729,14.729,0,0,0,8.1,2.468c8.357,0,14.848-7.293,14.5-16.291,0-.01,0-.021,0-.031s0-.048,0-.07,0-.056,0-.084A9.339,9.339,0,0,0,330.109,249.016Z" transform="translate(-289.021 -229.255)" fill="#38a1f3"/>
  </g>
</svg>
